{
    "asset" : {
        "generator" : "Khronos glTF Blender I/O v1.8.19",
        "version" : "2.0"
    },
    "scene" : 0,
    "scenes" : [
        {
            "name" : "Scene",
            "nodes" : [
                0
            ]
        }
    ],
    "nodes" : [
        {
            "mesh" : 0,
            "name" : "group1691929210"
        }
    ],
    "materials" : [
        {
            "name" : "mat20",
            "pbrMetallicRoughness" : {
                "baseColorFactor" : [
                    0.1899999976158142,
                    0.09000000357627869,
                    0.05999999865889549,
                    1
                ],
                "metallicFactor" : 0
            }
        },
        {
            "name" : "mat18",
            "pbrMetallicRoughness" : {
                "baseColorFactor" : [
                    1,
                    0.6100000143051147,
                    0.25,
                    1
                ],
                "metallicFactor" : 0
            }
        },
        {
            "name" : "mat17",
            "pbrMetallicRoughness" : {
                "baseColorFactor" : [
                    0.05999999865889549,
                    0.10000000149011612,
                    0.12999999523162842,
                    1
                ],
                "metallicFactor" : 0
            }
        },
        {
            "name" : "mat16",
            "pbrMetallicRoughness" : {
                "baseColorFactor" : [
                    0.1899999976158142,
                    0.2800000011920929,
                    0.3400000035762787,
                    1
                ],
                "metallicFactor" : 0
            }
        },
        {
            "name" : "mat21",
            "pbrMetallicRoughness" : {
                "metallicFactor" : 0
            }
        },
        {
            "name" : "mat23",
            "pbrMetallicRoughness" : {
                "baseColorFactor" : [
                    0.009999999776482582,
                    0.009999999776482582,
                    0.009999999776482582,
                    1
                ],
                "metallicFactor" : 0
            }
        },
        {
            "name" : "mat3",
            "pbrMetallicRoughness" : {
                "baseColorFactor" : [
                    0.2199999988079071,
                    0.7400000095367432,
                    0.8299999833106995,
                    1
                ],
                "metallicFactor" : 0
            }
        }
    ],
    "meshes" : [
        {
            "name" : "mesh1691929210",
            "primitives" : [
                {
                    "attributes" : {
                        "POSITION" : 0,
                        "NORMAL" : 1,
                        "TEXCOORD_0" : 2
                    },
                    "indices" : 3,
                    "material" : 0
                },
                {
                    "attributes" : {
                        "POSITION" : 4,
                        "NORMAL" : 5,
                        "TEXCOORD_0" : 6
                    },
                    "indices" : 7,
                    "material" : 1
                },
                {
                    "attributes" : {
                        "POSITION" : 8,
                        "NORMAL" : 9,
                        "TEXCOORD_0" : 10
                    },
                    "indices" : 11,
                    "material" : 2
                },
                {
                    "attributes" : {
                        "POSITION" : 12,
                        "NORMAL" : 13,
                        "TEXCOORD_0" : 14
                    },
                    "indices" : 15,
                    "material" : 3
                },
                {
                    "attributes" : {
                        "POSITION" : 16,
                        "NORMAL" : 17,
                        "TEXCOORD_0" : 18
                    },
                    "indices" : 19,
                    "material" : 4
                },
                {
                    "attributes" : {
                        "POSITION" : 20,
                        "NORMAL" : 21,
                        "TEXCOORD_0" : 22
                    },
                    "indices" : 23,
                    "material" : 5
                },
                {
                    "attributes" : {
                        "POSITION" : 24,
                        "NORMAL" : 25,
                        "TEXCOORD_0" : 26
                    },
                    "indices" : 27,
                    "material" : 6
                }
            ]
        }
    ],
    "accessors" : [
        {
            "bufferView" : 0,
            "componentType" : 5126,
            "count" : 1050,
            "max" : [
                0.11624781787395477,
                0.19358886778354645,
                0.10298971086740494
            ],
            "min" : [
                -0.39495718479156494,
                -0.14003263413906097,
                -0.04895872250199318
            ],
            "type" : "VEC3"
        },
        {
            "bufferView" : 1,
            "componentType" : 5126,
            "count" : 1050,
            "type" : "VEC3"
        },
        {
            "bufferView" : 2,
            "componentType" : 5126,
            "count" : 1050,
            "type" : "VEC2"
        },
        {
            "bufferView" : 3,
            "componentType" : 5123,
            "count" : 1056,
            "type" : "SCALAR"
        },
        {
            "bufferView" : 4,
            "componentType" : 5126,
            "count" : 1082,
            "max" : [
                0.11624781787395477,
                0.21660450100898743,
                0.10328111052513123
            ],
            "min" : [
                -0.39495718479156494,
                -0.1305476427078247,
                -0.04895872250199318
            ],
            "type" : "VEC3"
        },
        {
            "bufferView" : 5,
            "componentType" : 5126,
            "count" : 1082,
            "type" : "VEC3"
        },
        {
            "bufferView" : 6,
            "componentType" : 5126,
            "count" : 1082,
            "type" : "VEC2"
        },
        {
            "bufferView" : 7,
            "componentType" : 5123,
            "count" : 1092,
            "type" : "SCALAR"
        },
        {
            "bufferView" : 8,
            "componentType" : 5126,
            "count" : 48,
            "max" : [
                0.02769973874092102,
                0.19358886778354645,
                0.07111179083585739
            ],
            "min" : [
                -0.06339247524738312,
                0.1226467713713646,
                0.006355592515319586
            ],
            "type" : "VEC3"
        },
        {
            "bufferView" : 9,
            "componentType" : 5126,
            "count" : 48,
            "type" : "VEC3"
        },
        {
            "bufferView" : 10,
            "componentType" : 5126,
            "count" : 48,
            "type" : "VEC2"
        },
        {
            "bufferView" : 11,
            "componentType" : 5123,
            "count" : 48,
            "type" : "SCALAR"
        },
        {
            "bufferView" : 12,
            "componentType" : 5126,
            "count" : 96,
            "max" : [
                0.03868051618337631,
                0.20714622735977173,
                0.0706658735871315
            ],
            "min" : [
                -0.054522804915905,
                0.12260500341653824,
                -0.029612837359309196
            ],
            "type" : "VEC3"
        },
        {
            "bufferView" : 13,
            "componentType" : 5126,
            "count" : 96,
            "type" : "VEC3"
        },
        {
            "bufferView" : 14,
            "componentType" : 5126,
            "count" : 96,
            "type" : "VEC2"
        },
        {
            "bufferView" : 15,
            "componentType" : 5123,
            "count" : 96,
            "type" : "SCALAR"
        },
        {
            "bufferView" : 16,
            "componentType" : 5126,
            "count" : 272,
            "max" : [
                0.11992426216602325,
                0.19051846861839294,
                0.09410985559225082
            ],
            "min" : [
                -0.3126777708530426,
                -0.13528230786323547,
                -0.050295762717723846
            ],
            "type" : "VEC3"
        },
        {
            "bufferView" : 17,
            "componentType" : 5126,
            "count" : 272,
            "type" : "VEC3"
        },
        {
            "bufferView" : 18,
            "componentType" : 5126,
            "count" : 272,
            "type" : "VEC2"
        },
        {
            "bufferView" : 19,
            "componentType" : 5123,
            "count" : 276,
            "type" : "SCALAR"
        },
        {
            "bufferView" : 20,
            "componentType" : 5126,
            "count" : 2473,
            "max" : [
                0.14389385282993317,
                0.19525934755802155,
                0.1313815861940384
            ],
            "min" : [
                -0.3075861930847168,
                -0.5598844289779663,
                -0.12696458399295807
            ],
            "type" : "VEC3"
        },
        {
            "bufferView" : 21,
            "componentType" : 5126,
            "count" : 2473,
            "type" : "VEC3"
        },
        {
            "bufferView" : 22,
            "componentType" : 5126,
            "count" : 2473,
            "type" : "VEC2"
        },
        {
            "bufferView" : 23,
            "componentType" : 5123,
            "count" : 2493,
            "type" : "SCALAR"
        },
        {
            "bufferView" : 24,
            "componentType" : 5126,
            "count" : 219,
            "max" : [
                0.11297769844532013,
                0.11848738044500351,
                0.104534812271595
            ],
            "min" : [
                -0.31700313091278076,
                -0.14089679718017578,
                -0.033614013344049454
            ],
            "type" : "VEC3"
        },
        {
            "bufferView" : 25,
            "componentType" : 5126,
            "count" : 219,
            "type" : "VEC3"
        },
        {
            "bufferView" : 26,
            "componentType" : 5126,
            "count" : 219,
            "type" : "VEC2"
        },
        {
            "bufferView" : 27,
            "componentType" : 5123,
            "count" : 219,
            "type" : "SCALAR"
        }
    ],
    "bufferViews" : [
        {
            "buffer" : 0,
            "byteLength" : 12600,
            "byteOffset" : 0
        },
        {
            "buffer" : 0,
            "byteLength" : 12600,
            "byteOffset" : 12600
        },
        {
            "buffer" : 0,
            "byteLength" : 8400,
            "byteOffset" : 25200
        },
        {
            "buffer" : 0,
            "byteLength" : 2112,
            "byteOffset" : 33600
        },
        {
            "buffer" : 0,
            "byteLength" : 12984,
            "byteOffset" : 35712
        },
        {
            "buffer" : 0,
            "byteLength" : 12984,
            "byteOffset" : 48696
        },
        {
            "buffer" : 0,
            "byteLength" : 8656,
            "byteOffset" : 61680
        },
        {
            "buffer" : 0,
            "byteLength" : 2184,
            "byteOffset" : 70336
        },
        {
            "buffer" : 0,
            "byteLength" : 576,
            "byteOffset" : 72520
        },
        {
            "buffer" : 0,
            "byteLength" : 576,
            "byteOffset" : 73096
        },
        {
            "buffer" : 0,
            "byteLength" : 384,
            "byteOffset" : 73672
        },
        {
            "buffer" : 0,
            "byteLength" : 96,
            "byteOffset" : 74056
        },
        {
            "buffer" : 0,
            "byteLength" : 1152,
            "byteOffset" : 74152
        },
        {
            "buffer" : 0,
            "byteLength" : 1152,
            "byteOffset" : 75304
        },
        {
            "buffer" : 0,
            "byteLength" : 768,
            "byteOffset" : 76456
        },
        {
            "buffer" : 0,
            "byteLength" : 192,
            "byteOffset" : 77224
        },
        {
            "buffer" : 0,
            "byteLength" : 3264,
            "byteOffset" : 77416
        },
        {
            "buffer" : 0,
            "byteLength" : 3264,
            "byteOffset" : 80680
        },
        {
            "buffer" : 0,
            "byteLength" : 2176,
            "byteOffset" : 83944
        },
        {
            "buffer" : 0,
            "byteLength" : 552,
            "byteOffset" : 86120
        },
        {
            "buffer" : 0,
            "byteLength" : 29676,
            "byteOffset" : 86672
        },
        {
            "buffer" : 0,
            "byteLength" : 29676,
            "byteOffset" : 116348
        },
        {
            "buffer" : 0,
            "byteLength" : 19784,
            "byteOffset" : 146024
        },
        {
            "buffer" : 0,
            "byteLength" : 4986,
            "byteOffset" : 165808
        },
        {
            "buffer" : 0,
            "byteLength" : 2628,
            "byteOffset" : 170796
        },
        {
            "buffer" : 0,
            "byteLength" : 2628,
            "byteOffset" : 173424
        },
        {
            "buffer" : 0,
            "byteLength" : 1752,
            "byteOffset" : 176052
        },
        {
            "buffer" : 0,
            "byteLength" : 438,
            "byteOffset" : 177804
        }
    ],
    "buffers" : [
        {
            "byteLength" : 178244,
            "uri" : "data:application/octet-stream;base64,"
        }
    ]
}
