{
    "asset" : {
        "generator" : "Khronos glTF Blender I/O v1.8.19",
        "version" : "2.0"
    },
    "scene" : 0,
    "scenes" : [
        {
            "name" : "Scene",
            "nodes" : [
                0,
                1
            ]
        }
    ],
    "nodes" : [
        {
            "mesh" : 0,
            "name" : "group1140142745",
            "scale" : [
                0.17024540901184082,
                0.17024540901184082,
                0.17024540901184082
            ],
            "translation" : [
                0,
                0.4101872742176056,
                0
            ]
        },
        {
            "mesh" : 1,
            "name" : "pg.6",
            "scale" : [
                36.90305709838867,
                25.943098068237305,
                4.183688163757324
            ],
            "translation" : [
                0.02148151397705078,
                0,
                0
            ]
        }
    ],
    "materials" : [
        {
            "name" : "mat23.006",
            "pbrMetallicRoughness" : {
                "baseColorFactor" : [
                    0.009999999776482582,
                    0.009999999776482582,
                    0.009999999776482582,
                    1
                ],
                "metallicFactor" : 0
            }
        },
        {
            "name" : "mat3.002",
            "pbrMetallicRoughness" : {
                "baseColorFactor" : [
                    0.2199999988079071,
                    0.7400000095367432,
                    0.8299999833106995,
                    1
                ],
                "metallicFactor" : 0
            }
        },
        {
            "name" : "mat21.006",
            "pbrMetallicRoughness" : {
                "metallicFactor" : 0
            }
        },
        {
            "name" : "mat20.003",
            "pbrMetallicRoughness" : {
                "baseColorFactor" : [
                    0.1899999976158142,
                    0.09000000357627869,
                    0.05999999865889549,
                    1
                ],
                "metallicFactor" : 0
            }
        },
        {
            "name" : "mat18.003",
            "pbrMetallicRoughness" : {
                "baseColorFactor" : [
                    1,
                    0.6100000143051147,
                    0.25,
                    1
                ],
                "metallicFactor" : 0
            }
        },
        {
            "name" : "mat17.004",
            "pbrMetallicRoughness" : {
                "baseColorFactor" : [
                    0.05999999865889549,
                    0.10000000149011612,
                    0.12999999523162842,
                    1
                ],
                "metallicFactor" : 0
            }
        },
        {
            "name" : "mat16.004",
            "pbrMetallicRoughness" : {
                "baseColorFactor" : [
                    0.1899999976158142,
                    0.2800000011920929,
                    0.3400000035762787,
                    1
                ],
                "metallicFactor" : 0
            }
        },
        {
            "name" : "Pages",
            "pbrMetallicRoughness" : {
                "baseColorFactor" : [
                    0.8000000715255737,
                    0.6763367652893066,
                    0.29701265692710876,
                    1
                ],
                "metallicFactor" : 0.4000000059604645,
                "roughnessFactor" : 0.27216553688049316
            }
        },
        {
            "name" : "Material.016",
            "pbrMetallicRoughness" : {
                "baseColorFactor" : [
                    0.0835312008857727,
                    0.01692999340593815,
                    0.01164965145289898,
                    1
                ],
                "metallicFactor" : 0.4000000059604645
            }
        }
    ],
    "meshes" : [
        {
            "name" : "mesh1140142745",
            "primitives" : [
                {
                    "attributes" : {
                        "POSITION" : 0,
                        "NORMAL" : 1,
                        "TEXCOORD_0" : 2
                    },
                    "indices" : 3,
                    "material" : 0
                },
                {
                    "attributes" : {
                        "POSITION" : 4,
                        "NORMAL" : 5,
                        "TEXCOORD_0" : 6
                    },
                    "indices" : 7,
                    "material" : 1
                },
                {
                    "attributes" : {
                        "POSITION" : 8,
                        "NORMAL" : 9,
                        "TEXCOORD_0" : 10
                    },
                    "indices" : 11,
                    "material" : 2
                },
                {
                    "attributes" : {
                        "POSITION" : 12,
                        "NORMAL" : 13,
                        "TEXCOORD_0" : 14
                    },
                    "indices" : 15,
                    "material" : 3
                },
                {
                    "attributes" : {
                        "POSITION" : 16,
                        "NORMAL" : 17,
                        "TEXCOORD_0" : 18
                    },
                    "indices" : 19,
                    "material" : 4
                },
                {
                    "attributes" : {
                        "POSITION" : 20,
                        "NORMAL" : 21,
                        "TEXCOORD_0" : 22
                    },
                    "indices" : 23,
                    "material" : 5
                },
                {
                    "attributes" : {
                        "POSITION" : 24,
                        "NORMAL" : 25,
                        "TEXCOORD_0" : 26
                    },
                    "indices" : 27,
                    "material" : 6
                }
            ]
        },
        {
            "name" : "pg.6",
            "primitives" : [
                {
                    "attributes" : {
                        "POSITION" : 28,
                        "NORMAL" : 29,
                        "TEXCOORD_0" : 30
                    },
                    "indices" : 31,
                    "material" : 7
                },
                {
                    "attributes" : {
                        "POSITION" : 32,
                        "NORMAL" : 33,
                        "TEXCOORD_0" : 34
                    },
                    "indices" : 35,
                    "material" : 8
                }
            ]
        }
    ],
    "accessors" : [
        {
            "bufferView" : 0,
            "componentType" : 5126,
            "count" : 2473,
            "max" : [
                0.622931182384491,
                0.8452976942062378,
                0.568764328956604
            ],
            "min" : [
                -1.3315720558166504,
                -2.4237968921661377,
                -0.5496426820755005
            ],
            "type" : "VEC3"
        },
        {
            "bufferView" : 1,
            "componentType" : 5126,
            "count" : 2473,
            "type" : "VEC3"
        },
        {
            "bufferView" : 2,
            "componentType" : 5126,
            "count" : 2473,
            "type" : "VEC2"
        },
        {
            "bufferView" : 3,
            "componentType" : 5123,
            "count" : 2493,
            "type" : "SCALAR"
        },
        {
            "bufferView" : 4,
            "componentType" : 5126,
            "count" : 219,
            "max" : [
                0.48909199237823486,
                0.5129439830780029,
                0.45254188776016235
            ],
            "min" : [
                -1.3723390102386475,
                -0.6099566221237183,
                -0.145518496632576
            ],
            "type" : "VEC3"
        },
        {
            "bufferView" : 5,
            "componentType" : 5126,
            "count" : 219,
            "type" : "VEC3"
        },
        {
            "bufferView" : 6,
            "componentType" : 5126,
            "count" : 219,
            "type" : "VEC2"
        },
        {
            "bufferView" : 7,
            "componentType" : 5123,
            "count" : 219,
            "type" : "SCALAR"
        },
        {
            "bufferView" : 8,
            "componentType" : 5126,
            "count" : 272,
            "max" : [
                0.5191643834114075,
                0.824773907661438,
                0.4074111878871918
            ],
            "min" : [
                -1.3536139726638794,
                -0.5856509208679199,
                -0.21773549914360046
            ],
            "type" : "VEC3"
        },
        {
            "bufferView" : 9,
            "componentType" : 5126,
            "count" : 272,
            "type" : "VEC3"
        },
        {
            "bufferView" : 10,
            "componentType" : 5126,
            "count" : 272,
            "type" : "VEC2"
        },
        {
            "bufferView" : 11,
            "componentType" : 5123,
            "count" : 276,
            "type" : "SCALAR"
        },
        {
            "bufferView" : 12,
            "componentType" : 5126,
            "count" : 1050,
            "max" : [
                0.5032486915588379,
                0.8380659818649292,
                0.44585299491882324
            ],
            "min" : [
                -1.7098100185394287,
                -0.6062155961990356,
                -0.21194730699062347
            ],
            "type" : "VEC3"
        },
        {
            "bufferView" : 13,
            "componentType" : 5126,
            "count" : 1050,
            "type" : "VEC3"
        },
        {
            "bufferView" : 14,
            "componentType" : 5126,
            "count" : 1050,
            "type" : "VEC2"
        },
        {
            "bufferView" : 15,
            "componentType" : 5123,
            "count" : 1056,
            "type" : "SCALAR"
        },
        {
            "bufferView" : 16,
            "componentType" : 5126,
            "count" : 1082,
            "max" : [
                0.5032486915588379,
                0.937703013420105,
                0.447114497423172
            ],
            "min" : [
                -1.7098100185394287,
                -0.5651540756225586,
                -0.21194730699062347
            ],
            "type" : "VEC3"
        },
        {
            "bufferView" : 17,
            "componentType" : 5126,
            "count" : 1082,
            "type" : "VEC3"
        },
        {
            "bufferView" : 18,
            "componentType" : 5126,
            "count" : 1082,
            "type" : "VEC2"
        },
        {
            "bufferView" : 19,
            "componentType" : 5123,
            "count" : 1092,
            "type" : "SCALAR"
        },
        {
            "bufferView" : 20,
            "componentType" : 5126,
            "count" : 48,
            "max" : [
                0.11991500109434128,
                0.8380659818649292,
                0.3078502118587494
            ],
            "min" : [
                -0.274432510137558,
                0.5309504270553589,
                0.027514010667800903
            ],
            "type" : "VEC3"
        },
        {
            "bufferView" : 21,
            "componentType" : 5126,
            "count" : 48,
            "type" : "VEC3"
        },
        {
            "bufferView" : 22,
            "componentType" : 5126,
            "count" : 48,
            "type" : "VEC2"
        },
        {
            "bufferView" : 23,
            "componentType" : 5123,
            "count" : 48,
            "type" : "SCALAR"
        },
        {
            "bufferView" : 24,
            "componentType" : 5126,
            "count" : 96,
            "max" : [
                0.1674519032239914,
                0.896757185459137,
                0.3059197962284088
            ],
            "min" : [
                -0.2360347956418991,
                0.5307695865631104,
                -0.12819699943065643
            ],
            "type" : "VEC3"
        },
        {
            "bufferView" : 25,
            "componentType" : 5126,
            "count" : 96,
            "type" : "VEC3"
        },
        {
            "bufferView" : 26,
            "componentType" : 5126,
            "count" : 96,
            "type" : "VEC2"
        },
        {
            "bufferView" : 27,
            "componentType" : 5123,
            "count" : 96,
            "type" : "SCALAR"
        },
        {
            "bufferView" : 28,
            "componentType" : 5126,
            "count" : 1152,
            "max" : [
                0.009762545116245747,
                0.010226343758404255,
                0.03662625327706337
            ],
            "min" : [
                -0.009997332468628883,
                -0.010124181397259235,
                -0.023722145706415176
            ],
            "type" : "VEC3"
        },
        {
            "bufferView" : 29,
            "componentType" : 5126,
            "count" : 1152,
            "type" : "VEC3"
        },
        {
            "bufferView" : 30,
            "componentType" : 5126,
            "count" : 1152,
            "type" : "VEC2"
        },
        {
            "bufferView" : 31,
            "componentType" : 5123,
            "count" : 1152,
            "type" : "SCALAR"
        },
        {
            "bufferView" : 32,
            "componentType" : 5126,
            "count" : 690,
            "max" : [
                0.010166613385081291,
                0.010152105242013931,
                0.009424470365047455
            ],
            "min" : [
                -0.010000687092542648,
                -0.010097645223140717,
                -0.030388275161385536
            ],
            "type" : "VEC3"
        },
        {
            "bufferView" : 33,
            "componentType" : 5126,
            "count" : 690,
            "type" : "VEC3"
        },
        {
            "bufferView" : 34,
            "componentType" : 5126,
            "count" : 690,
            "type" : "VEC2"
        },
        {
            "bufferView" : 35,
            "componentType" : 5123,
            "count" : 720,
            "type" : "SCALAR"
        }
    ],
    "bufferViews" : [
        {
            "buffer" : 0,
            "byteLength" : 29676,
            "byteOffset" : 0
        },
        {
            "buffer" : 0,
            "byteLength" : 29676,
            "byteOffset" : 29676
        },
        {
            "buffer" : 0,
            "byteLength" : 19784,
            "byteOffset" : 59352
        },
        {
            "buffer" : 0,
            "byteLength" : 4986,
            "byteOffset" : 79136
        },
        {
            "buffer" : 0,
            "byteLength" : 2628,
            "byteOffset" : 84124
        },
        {
            "buffer" : 0,
            "byteLength" : 2628,
            "byteOffset" : 86752
        },
        {
            "buffer" : 0,
            "byteLength" : 1752,
            "byteOffset" : 89380
        },
        {
            "buffer" : 0,
            "byteLength" : 438,
            "byteOffset" : 91132
        },
        {
            "buffer" : 0,
            "byteLength" : 3264,
            "byteOffset" : 91572
        },
        {
            "buffer" : 0,
            "byteLength" : 3264,
            "byteOffset" : 94836
        },
        {
            "buffer" : 0,
            "byteLength" : 2176,
            "byteOffset" : 98100
        },
        {
            "buffer" : 0,
            "byteLength" : 552,
            "byteOffset" : 100276
        },
        {
            "buffer" : 0,
            "byteLength" : 12600,
            "byteOffset" : 100828
        },
        {
            "buffer" : 0,
            "byteLength" : 12600,
            "byteOffset" : 113428
        },
        {
            "buffer" : 0,
            "byteLength" : 8400,
            "byteOffset" : 126028
        },
        {
            "buffer" : 0,
            "byteLength" : 2112,
            "byteOffset" : 134428
        },
        {
            "buffer" : 0,
            "byteLength" : 12984,
            "byteOffset" : 136540
        },
        {
            "buffer" : 0,
            "byteLength" : 12984,
            "byteOffset" : 149524
        },
        {
            "buffer" : 0,
            "byteLength" : 8656,
            "byteOffset" : 162508
        },
        {
            "buffer" : 0,
            "byteLength" : 2184,
            "byteOffset" : 171164
        },
        {
            "buffer" : 0,
            "byteLength" : 576,
            "byteOffset" : 173348
        },
        {
            "buffer" : 0,
            "byteLength" : 576,
            "byteOffset" : 173924
        },
        {
            "buffer" : 0,
            "byteLength" : 384,
            "byteOffset" : 174500
        },
        {
            "buffer" : 0,
            "byteLength" : 96,
            "byteOffset" : 174884
        },
        {
            "buffer" : 0,
            "byteLength" : 1152,
            "byteOffset" : 174980
        },
        {
            "buffer" : 0,
            "byteLength" : 1152,
            "byteOffset" : 176132
        },
        {
            "buffer" : 0,
            "byteLength" : 768,
            "byteOffset" : 177284
        },
        {
            "buffer" : 0,
            "byteLength" : 192,
            "byteOffset" : 178052
        },
        {
            "buffer" : 0,
            "byteLength" : 13824,
            "byteOffset" : 178244
        },
        {
            "buffer" : 0,
            "byteLength" : 13824,
            "byteOffset" : 192068
        },
        {
            "buffer" : 0,
            "byteLength" : 9216,
            "byteOffset" : 205892
        },
        {
            "buffer" : 0,
            "byteLength" : 2304,
            "byteOffset" : 215108
        },
        {
            "buffer" : 0,
            "byteLength" : 8280,
            "byteOffset" : 217412
        },
        {
            "buffer" : 0,
            "byteLength" : 8280,
            "byteOffset" : 225692
        },
        {
            "buffer" : 0,
            "byteLength" : 5520,
            "byteOffset" : 233972
        },
        {
            "buffer" : 0,
            "byteLength" : 1440,
            "byteOffset" : 239492
        }
    ],
    "buffers" : [
        {
            "byteLength" : 240932,
            "uri" : "data:application/octet-stream;base64,"
        }
    ]
}
