{
    "asset" : {
        "generator" : "Khronos glTF Blender I/O v1.8.19",
        "version" : "2.0"
    },
    "scene" : 0,
    "scenes" : [
        {
            "name" : "Scene",
            "nodes" : [
                0
            ]
        }
    ],
    "nodes" : [
        {
            "mesh" : 0,
            "name" : "Node",
            "scale" : [
                0.438745379447937,
                0.438745379447937,
                0.438745379447937
            ]
        }
    ],
    "materials" : [
        {
            "name" : "mat23.002",
            "pbrMetallicRoughness" : {
                "baseColorFactor" : [
                    0.009999999776482582,
                    0.009999999776482582,
                    0.009999999776482582,
                    1
                ],
                "metallicFactor" : 0
            }
        },
        {
            "name" : "mat19.001",
            "pbrMetallicRoughness" : {
                "baseColorFactor" : [
                    0.7400000095367432,
                    0.33000001311302185,
                    0.05999999865889549,
                    1
                ],
                "metallicFactor" : 0
            }
        },
        {
            "name" : "mat21.002",
            "pbrMetallicRoughness" : {
                "metallicFactor" : 0
            }
        },
        {
            "name" : "mat17.002",
            "pbrMetallicRoughness" : {
                "baseColorFactor" : [
                    0.05999999865889549,
                    0.10000000149011612,
                    0.12999999523162842,
                    1
                ],
                "metallicFactor" : 0
            }
        },
        {
            "name" : "mat20.002",
            "pbrMetallicRoughness" : {
                "baseColorFactor" : [
                    0.1899999976158142,
                    0.09000000357627869,
                    0.05999999865889549,
                    1
                ],
                "metallicFactor" : 0
            }
        },
        {
            "name" : "mat16.002",
            "pbrMetallicRoughness" : {
                "baseColorFactor" : [
                    0.1899999976158142,
                    0.2800000011920929,
                    0.3400000035762787,
                    1
                ],
                "metallicFactor" : 0
            }
        },
        {
            "alphaMode" : "BLEND",
            "doubleSided" : true,
            "name" : "mat25",
            "pbrMetallicRoughness" : {
                "baseColorFactor" : [
                    0.8299999833106995,
                    0.8899999856948853,
                    0.8700000047683716,
                    0.4000000059604645
                ],
                "metallicFactor" : 0,
                "roughnessFactor" : 0.699999988079071
            }
        },
        {
            "name" : "mat13.001",
            "pbrMetallicRoughness" : {
                "baseColorFactor" : [
                    1,
                    0.33000001311302185,
                    0,
                    1
                ],
                "metallicFactor" : 0
            }
        }
    ],
    "meshes" : [
        {
            "name" : "Node-Mesh",
            "primitives" : [
                {
                    "attributes" : {
                        "POSITION" : 0,
                        "NORMAL" : 1
                    },
                    "indices" : 2,
                    "material" : 0
                },
                {
                    "attributes" : {
                        "POSITION" : 3,
                        "NORMAL" : 4
                    },
                    "indices" : 5,
                    "material" : 1
                },
                {
                    "attributes" : {
                        "POSITION" : 6,
                        "NORMAL" : 7
                    },
                    "indices" : 8,
                    "material" : 2
                },
                {
                    "attributes" : {
                        "POSITION" : 9,
                        "NORMAL" : 10
                    },
                    "indices" : 11,
                    "material" : 3
                },
                {
                    "attributes" : {
                        "POSITION" : 12,
                        "NORMAL" : 13
                    },
                    "indices" : 14,
                    "material" : 4
                },
                {
                    "attributes" : {
                        "POSITION" : 15,
                        "NORMAL" : 16
                    },
                    "indices" : 17,
                    "material" : 5
                },
                {
                    "attributes" : {
                        "POSITION" : 18,
                        "NORMAL" : 19
                    },
                    "indices" : 20,
                    "material" : 6
                },
                {
                    "attributes" : {
                        "POSITION" : 21,
                        "NORMAL" : 22
                    },
                    "indices" : 23,
                    "material" : 7
                }
            ]
        }
    ],
    "accessors" : [
        {
            "bufferView" : 0,
            "componentType" : 5126,
            "count" : 920,
            "max" : [
                0.22636300325393677,
                0.6163378953933716,
                0.8015809059143066
            ],
            "min" : [
                -0.44898390769958496,
                -0.8303226828575134,
                -0.24846060574054718
            ],
            "type" : "VEC3"
        },
        {
            "bufferView" : 1,
            "componentType" : 5126,
            "count" : 920,
            "type" : "VEC3"
        },
        {
            "bufferView" : 2,
            "componentType" : 5123,
            "count" : 966,
            "type" : "SCALAR"
        },
        {
            "bufferView" : 3,
            "componentType" : 5126,
            "count" : 144,
            "max" : [
                0.3908796012401581,
                0.53873610496521,
                0.23982639610767365
            ],
            "min" : [
                -0.4543546140193939,
                -0.29379960894584656,
                -0.1761769950389862
            ],
            "type" : "VEC3"
        },
        {
            "bufferView" : 4,
            "componentType" : 5126,
            "count" : 144,
            "type" : "VEC3"
        },
        {
            "bufferView" : 5,
            "componentType" : 5123,
            "count" : 144,
            "type" : "SCALAR"
        },
        {
            "bufferView" : 6,
            "componentType" : 5126,
            "count" : 42,
            "max" : [
                -0.36535489559173584,
                -0.21694549918174744,
                0.15565480291843414
            ],
            "min" : [
                -0.6656469702720642,
                -0.4888826906681061,
                -0.05905253067612648
            ],
            "type" : "VEC3"
        },
        {
            "bufferView" : 7,
            "componentType" : 5126,
            "count" : 42,
            "type" : "VEC3"
        },
        {
            "bufferView" : 8,
            "componentType" : 5123,
            "count" : 42,
            "type" : "SCALAR"
        },
        {
            "bufferView" : 9,
            "componentType" : 5126,
            "count" : 567,
            "max" : [
                0.45854249596595764,
                0.28644001483917236,
                0.41260120272636414
            ],
            "min" : [
                -0.4404780864715576,
                -0.7578892111778259,
                -0.16988599300384521
            ],
            "type" : "VEC3"
        },
        {
            "bufferView" : 10,
            "componentType" : 5126,
            "count" : 567,
            "type" : "VEC3"
        },
        {
            "bufferView" : 11,
            "componentType" : 5123,
            "count" : 783,
            "type" : "SCALAR"
        },
        {
            "bufferView" : 12,
            "componentType" : 5126,
            "count" : 84,
            "max" : [
                0.4921799898147583,
                -0.08606327325105667,
                0.08991813659667969
            ],
            "min" : [
                0.231318399310112,
                -0.3336543142795563,
                -0.18540599942207336
            ],
            "type" : "VEC3"
        },
        {
            "bufferView" : 13,
            "componentType" : 5126,
            "count" : 84,
            "type" : "VEC3"
        },
        {
            "bufferView" : 14,
            "componentType" : 5123,
            "count" : 120,
            "type" : "SCALAR"
        },
        {
            "bufferView" : 15,
            "componentType" : 5126,
            "count" : 150,
            "max" : [
                0.40593400597572327,
                -0.10030850023031235,
                0.018074069172143936
            ],
            "min" : [
                -0.13355860114097595,
                -0.2380369007587433,
                -0.20686329901218414
            ],
            "type" : "VEC3"
        },
        {
            "bufferView" : 16,
            "componentType" : 5126,
            "count" : 150,
            "type" : "VEC3"
        },
        {
            "bufferView" : 17,
            "componentType" : 5123,
            "count" : 168,
            "type" : "SCALAR"
        },
        {
            "bufferView" : 18,
            "componentType" : 5126,
            "count" : 108,
            "max" : [
                0.12007699906826019,
                0.028511520475149155,
                0.10427360236644745
            ],
            "min" : [
                0.05391347035765648,
                -0.11236950010061264,
                -0.049262430518865585
            ],
            "type" : "VEC3"
        },
        {
            "bufferView" : 19,
            "componentType" : 5126,
            "count" : 108,
            "type" : "VEC3"
        },
        {
            "bufferView" : 20,
            "componentType" : 5123,
            "count" : 108,
            "type" : "SCALAR"
        },
        {
            "bufferView" : 21,
            "componentType" : 5126,
            "count" : 426,
            "max" : [
                0.06822072714567184,
                0.5085983872413635,
                0.06910490989685059
            ],
            "min" : [
                -0.1493404060602188,
                0.18043239414691925,
                -0.1920183002948761
            ],
            "type" : "VEC3"
        },
        {
            "bufferView" : 22,
            "componentType" : 5126,
            "count" : 426,
            "type" : "VEC3"
        },
        {
            "bufferView" : 23,
            "componentType" : 5123,
            "count" : 612,
            "type" : "SCALAR"
        }
    ],
    "bufferViews" : [
        {
            "buffer" : 0,
            "byteLength" : 11040,
            "byteOffset" : 0
        },
        {
            "buffer" : 0,
            "byteLength" : 11040,
            "byteOffset" : 11040
        },
        {
            "buffer" : 0,
            "byteLength" : 1932,
            "byteOffset" : 22080
        },
        {
            "buffer" : 0,
            "byteLength" : 1728,
            "byteOffset" : 24012
        },
        {
            "buffer" : 0,
            "byteLength" : 1728,
            "byteOffset" : 25740
        },
        {
            "buffer" : 0,
            "byteLength" : 288,
            "byteOffset" : 27468
        },
        {
            "buffer" : 0,
            "byteLength" : 504,
            "byteOffset" : 27756
        },
        {
            "buffer" : 0,
            "byteLength" : 504,
            "byteOffset" : 28260
        },
        {
            "buffer" : 0,
            "byteLength" : 84,
            "byteOffset" : 28764
        },
        {
            "buffer" : 0,
            "byteLength" : 6804,
            "byteOffset" : 28848
        },
        {
            "buffer" : 0,
            "byteLength" : 6804,
            "byteOffset" : 35652
        },
        {
            "buffer" : 0,
            "byteLength" : 1566,
            "byteOffset" : 42456
        },
        {
            "buffer" : 0,
            "byteLength" : 1008,
            "byteOffset" : 44024
        },
        {
            "buffer" : 0,
            "byteLength" : 1008,
            "byteOffset" : 45032
        },
        {
            "buffer" : 0,
            "byteLength" : 240,
            "byteOffset" : 46040
        },
        {
            "buffer" : 0,
            "byteLength" : 1800,
            "byteOffset" : 46280
        },
        {
            "buffer" : 0,
            "byteLength" : 1800,
            "byteOffset" : 48080
        },
        {
            "buffer" : 0,
            "byteLength" : 336,
            "byteOffset" : 49880
        },
        {
            "buffer" : 0,
            "byteLength" : 1296,
            "byteOffset" : 50216
        },
        {
            "buffer" : 0,
            "byteLength" : 1296,
            "byteOffset" : 51512
        },
        {
            "buffer" : 0,
            "byteLength" : 216,
            "byteOffset" : 52808
        },
        {
            "buffer" : 0,
            "byteLength" : 5112,
            "byteOffset" : 53024
        },
        {
            "buffer" : 0,
            "byteLength" : 5112,
            "byteOffset" : 58136
        },
        {
            "buffer" : 0,
            "byteLength" : 1224,
            "byteOffset" : 63248
        }
    ],
    "buffers" : [
        {
            "byteLength" : 64472,
            "uri" : "data:application/octet-stream;base64,"
        }
    ]
}
