{
    "asset" : {
        "generator" : "Khronos glTF Blender I/O v1.8.19",
        "version" : "2.0"
    },
    "scene" : 0,
    "scenes" : [
        {
            "name" : "Scene",
            "nodes" : [
                0
            ]
        }
    ],
    "nodes" : [
        {
            "mesh" : 0,
            "name" : "Computer_mesh"
        }
    ],
    "materials" : [
        {
            "name" : "Computer_mat1",
            "pbrMetallicRoughness" : {
                "baseColorTexture" : {
                    "index" : 0
                },
                "metallicFactor" : 0
            }
        }
    ],
    "meshes" : [
        {
            "name" : "Computer_mesh_1",
            "primitives" : [
                {
                    "attributes" : {
                        "POSITION" : 0,
                        "NORMAL" : 1,
                        "TEXCOORD_0" : 2
                    },
                    "indices" : 3,
                    "material" : 0
                }
            ]
        }
    ],
    "textures" : [
        {
            "sampler" : 0,
            "source" : 0
        }
    ],
    "images" : [
        {
            "bufferView" : 4,
            "mimeType" : "image/png",
            "name" : "Image_0"
        }
    ],
    "accessors" : [
        {
            "bufferView" : 0,
            "componentType" : 5126,
            "count" : 3951,
            "max" : [
                0.2334837168455124,
                0.33057504892349243,
                0.18294046819210052
            ],
            "min" : [
                -0.3861362040042877,
                -0.0032572902273386717,
                -0.2616938054561615
            ],
            "type" : "VEC3"
        },
        {
            "bufferView" : 1,
            "componentType" : 5126,
            "count" : 3951,
            "type" : "VEC3"
        },
        {
            "bufferView" : 2,
            "componentType" : 5126,
            "count" : 3951,
            "type" : "VEC2"
        },
        {
            "bufferView" : 3,
            "componentType" : 5123,
            "count" : 4638,
            "type" : "SCALAR"
        }
    ],
    "bufferViews" : [
        {
            "buffer" : 0,
            "byteLength" : 47412,
            "byteOffset" : 0
        },
        {
            "buffer" : 0,
            "byteLength" : 47412,
            "byteOffset" : 47412
        },
        {
            "buffer" : 0,
            "byteLength" : 31608,
            "byteOffset" : 94824
        },
        {
            "buffer" : 0,
            "byteLength" : 9276,
            "byteOffset" : 126432
        },
        {
            "buffer" : 0,
            "byteLength" : 422054,
            "byteOffset" : 135708
        }
    ],
    "samplers" : [
        {
            "magFilter" : 9729,
            "minFilter" : 9987
        }
    ],
    "buffers" : [
        {
            "byteLength" : 557764,
            "uri" : "data:application/octet-stream;base64,"
        }
    ]
}
