{
    "asset" : {
        "generator" : "Khronos glTF Blender I/O v1.8.19",
        "version" : "2.0"
    },
    "scene" : 0,
    "scenes" : [
        {
            "name" : "Scene",
            "nodes" : [
                0
            ]
        }
    ],
    "nodes" : [
        {
            "mesh" : 0,
            "name" : "Drive"
        }
    ],
    "materials" : [
        {
            "name" : "lambert3SG.001",
            "pbrMetallicRoughness" : {
                "baseColorTexture" : {
                    "index" : 0
                },
                "metallicFactor" : 0
            }
        },
        {
            "name" : "initialShadingGroup",
            "pbrMetallicRoughness" : {
                "baseColorFactor" : [
                    0.5,
                    0.5,
                    0.5,
                    1
                ],
                "metallicFactor" : 0
            }
        }
    ],
    "meshes" : [
        {
            "name" : "Drive_1",
            "primitives" : [
                {
                    "attributes" : {
                        "POSITION" : 0,
                        "NORMAL" : 1,
                        "TEXCOORD_0" : 2
                    },
                    "indices" : 3,
                    "material" : 0
                },
                {
                    "attributes" : {
                        "POSITION" : 4,
                        "NORMAL" : 5,
                        "TEXCOORD_0" : 6
                    },
                    "indices" : 7,
                    "material" : 1
                }
            ]
        }
    ],
    "textures" : [
        {
            "sampler" : 0,
            "source" : 0
        }
    ],
    "images" : [
        {
            "bufferView" : 4,
            "mimeType" : "image/png",
            "name" : "Image_0"
        }
    ],
    "accessors" : [
        {
            "bufferView" : 0,
            "componentType" : 5126,
            "count" : 6818,
            "max" : [
                0.3041137158870697,
                0.21635550260543823,
                0.213142529129982
            ],
            "min" : [
                -0.15903528034687042,
                -0.0009070302476175129,
                -0.2060619443655014
            ],
            "type" : "VEC3"
        },
        {
            "bufferView" : 1,
            "componentType" : 5126,
            "count" : 6818,
            "type" : "VEC3"
        },
        {
            "bufferView" : 2,
            "componentType" : 5126,
            "count" : 6818,
            "type" : "VEC2"
        },
        {
            "bufferView" : 3,
            "componentType" : 5123,
            "count" : 7764,
            "type" : "SCALAR"
        },
        {
            "bufferView" : 5,
            "componentType" : 5126,
            "count" : 8,
            "max" : [
                0.28726106882095337,
                0.1941884607076645,
                0.08349721878767014
            ],
            "min" : [
                0.2029978185892105,
                0.18269802629947662,
                -0.049983423203229904
            ],
            "type" : "VEC3"
        },
        {
            "bufferView" : 6,
            "componentType" : 5126,
            "count" : 8,
            "type" : "VEC3"
        },
        {
            "bufferView" : 7,
            "componentType" : 5126,
            "count" : 8,
            "type" : "VEC2"
        },
        {
            "bufferView" : 8,
            "componentType" : 5123,
            "count" : 12,
            "type" : "SCALAR"
        }
    ],
    "bufferViews" : [
        {
            "buffer" : 0,
            "byteLength" : 81816,
            "byteOffset" : 0
        },
        {
            "buffer" : 0,
            "byteLength" : 81816,
            "byteOffset" : 81816
        },
        {
            "buffer" : 0,
            "byteLength" : 54544,
            "byteOffset" : 163632
        },
        {
            "buffer" : 0,
            "byteLength" : 15528,
            "byteOffset" : 218176
        },
        {
            "buffer" : 0,
            "byteLength" : 32144,
            "byteOffset" : 233704
        },
        {
            "buffer" : 0,
            "byteLength" : 96,
            "byteOffset" : 265848
        },
        {
            "buffer" : 0,
            "byteLength" : 96,
            "byteOffset" : 265944
        },
        {
            "buffer" : 0,
            "byteLength" : 64,
            "byteOffset" : 266040
        },
        {
            "buffer" : 0,
            "byteLength" : 24,
            "byteOffset" : 266104
        }
    ],
    "samplers" : [
        {
            "magFilter" : 9729,
            "minFilter" : 9987
        }
    ],
    "buffers" : [
        {
            "byteLength" : 266128,
            "uri" : "data:application/octet-stream;base64,"
        }
    ]
}
