{
    "asset" : {
        "generator" : "Khronos glTF Blender I/O v1.8.19",
        "version" : "2.0"
    },
    "scene" : 0,
    "scenes" : [
        {
            "name" : "Scene",
            "nodes" : [
                0
            ]
        }
    ],
    "nodes" : [
        {
            "mesh" : 0,
            "name" : "path4"
        }
    ],
    "materials" : [
        {
            "doubleSided" : true,
            "name" : "SVGMat.067",
            "pbrMetallicRoughness" : {
                "baseColorFactor" : [
                    0.15292614698410034,
                    0.3049873113632202,
                    0.41788506507873535,
                    1
                ],
                "metallicFactor" : 0,
                "roughnessFactor" : 0.4000000059604645
            }
        },
        {
            "doubleSided" : true,
            "name" : "SVGMat.063",
            "pbrMetallicRoughness" : {
                "baseColorFactor" : [
                    0.8796223998069763,
                    0.25015828013420105,
                    0.1384316086769104,
                    1
                ],
                "metallicFactor" : 0,
                "roughnessFactor" : 0.4000000059604645
            }
        },
        {
            "doubleSided" : true,
            "name" : "SVGMat.064",
            "pbrMetallicRoughness" : {
                "baseColorFactor" : [
                    0.002428215928375721,
                    0.16202937066555023,
                    0.4677838087081909,
                    1
                ],
                "metallicFactor" : 0,
                "roughnessFactor" : 0.4000000059604645
            }
        },
        {
            "doubleSided" : true,
            "name" : "SVGMat.065",
            "pbrMetallicRoughness" : {
                "baseColorFactor" : [
                    0.5149176716804504,
                    0.7304607629776001,
                    0.9473065137863159,
                    1
                ],
                "metallicFactor" : 0,
                "roughnessFactor" : 0.4000000059604645
            }
        },
        {
            "doubleSided" : true,
            "name" : "SVGMat.066",
            "pbrMetallicRoughness" : {
                "baseColorFactor" : [
                    0.045186202973127365,
                    0.10702310502529144,
                    0.10702310502529144,
                    1
                ],
                "metallicFactor" : 0,
                "roughnessFactor" : 0.4000000059604645
            }
        },
        {
            "doubleSided" : true,
            "name" : "SVGMat.068",
            "pbrMetallicRoughness" : {
                "baseColorFactor" : [
                    0.9046611785888672,
                    0.4910208582878113,
                    0.4969329833984375,
                    1
                ],
                "metallicFactor" : 0,
                "roughnessFactor" : 0.4000000059604645
            }
        },
        {
            "doubleSided" : true,
            "name" : "SVGMat.069",
            "pbrMetallicRoughness" : {
                "baseColorFactor" : [
                    0.2961382567882538,
                    0.3915724754333496,
                    0.43415364623069763,
                    1
                ],
                "metallicFactor" : 0,
                "roughnessFactor" : 0.4000000059604645
            }
        }
    ],
    "meshes" : [
        {
            "name" : "path4.006",
            "primitives" : [
                {
                    "attributes" : {
                        "POSITION" : 0,
                        "NORMAL" : 1,
                        "TEXCOORD_0" : 2
                    },
                    "indices" : 3,
                    "material" : 0
                },
                {
                    "attributes" : {
                        "POSITION" : 4,
                        "NORMAL" : 5,
                        "TEXCOORD_0" : 6
                    },
                    "indices" : 7,
                    "material" : 1
                },
                {
                    "attributes" : {
                        "POSITION" : 8,
                        "NORMAL" : 9,
                        "TEXCOORD_0" : 10
                    },
                    "indices" : 11,
                    "material" : 2
                },
                {
                    "attributes" : {
                        "POSITION" : 12,
                        "NORMAL" : 13,
                        "TEXCOORD_0" : 14
                    },
                    "indices" : 15,
                    "material" : 3
                },
                {
                    "attributes" : {
                        "POSITION" : 16,
                        "NORMAL" : 17,
                        "TEXCOORD_0" : 18
                    },
                    "indices" : 19,
                    "material" : 4
                },
                {
                    "attributes" : {
                        "POSITION" : 20,
                        "NORMAL" : 21,
                        "TEXCOORD_0" : 22
                    },
                    "indices" : 23,
                    "material" : 5
                },
                {
                    "attributes" : {
                        "POSITION" : 24,
                        "NORMAL" : 25,
                        "TEXCOORD_0" : 26
                    },
                    "indices" : 27,
                    "material" : 6
                }
            ]
        }
    ],
    "accessors" : [
        {
            "bufferView" : 0,
            "componentType" : 5126,
            "count" : 17549,
            "max" : [
                0.5741549134254456,
                0.44373446702957153,
                0.05735186114907265
            ],
            "min" : [
                0.0009711777092888951,
                0.060847606509923935,
                -0.057351842522621155
            ],
            "type" : "VEC3"
        },
        {
            "bufferView" : 1,
            "componentType" : 5126,
            "count" : 17549,
            "type" : "VEC3"
        },
        {
            "bufferView" : 2,
            "componentType" : 5126,
            "count" : 17549,
            "type" : "VEC2"
        },
        {
            "bufferView" : 3,
            "componentType" : 5123,
            "count" : 29988,
            "type" : "SCALAR"
        },
        {
            "bufferView" : 4,
            "componentType" : 5126,
            "count" : 17581,
            "max" : [
                0.6476536393165588,
                0.6453261375427246,
                0.057351868599653244
            ],
            "min" : [
                6.069787104934221e-06,
                0.10874895006418228,
                -0.05735183507204056
            ],
            "type" : "VEC3"
        },
        {
            "bufferView" : 5,
            "componentType" : 5126,
            "count" : 17581,
            "type" : "VEC3"
        },
        {
            "bufferView" : 6,
            "componentType" : 5126,
            "count" : 17581,
            "type" : "VEC2"
        },
        {
            "bufferView" : 7,
            "componentType" : 5123,
            "count" : 28596,
            "type" : "SCALAR"
        },
        {
            "bufferView" : 8,
            "componentType" : 5126,
            "count" : 3369,
            "max" : [
                0.6163740754127502,
                0.45583876967430115,
                0.05735186114907265
            ],
            "min" : [
                -2.0298436993471114e-06,
                0.0019419684540480375,
                -0.057351842522621155
            ],
            "type" : "VEC3"
        },
        {
            "bufferView" : 9,
            "componentType" : 5126,
            "count" : 3369,
            "type" : "VEC3"
        },
        {
            "bufferView" : 10,
            "componentType" : 5126,
            "count" : 3369,
            "type" : "VEC2"
        },
        {
            "bufferView" : 11,
            "componentType" : 5123,
            "count" : 5604,
            "type" : "SCALAR"
        },
        {
            "bufferView" : 12,
            "componentType" : 5126,
            "count" : 9889,
            "max" : [
                0.5736423134803772,
                0.47968554496765137,
                0.05735186114907265
            ],
            "min" : [
                0.040060121566057205,
                0.06176788732409477,
                -0.057351842522621155
            ],
            "type" : "VEC3"
        },
        {
            "bufferView" : 13,
            "componentType" : 5126,
            "count" : 9889,
            "type" : "VEC3"
        },
        {
            "bufferView" : 14,
            "componentType" : 5126,
            "count" : 9889,
            "type" : "VEC2"
        },
        {
            "bufferView" : 15,
            "componentType" : 5123,
            "count" : 16908,
            "type" : "SCALAR"
        },
        {
            "bufferView" : 16,
            "componentType" : 5126,
            "count" : 6503,
            "max" : [
                0.5751755237579346,
                0.4481842517852783,
                0.05735186114907265
            ],
            "min" : [
                0.0004248003242537379,
                0.07638320326805115,
                -0.05735183507204056
            ],
            "type" : "VEC3"
        },
        {
            "bufferView" : 17,
            "componentType" : 5126,
            "count" : 6503,
            "type" : "VEC3"
        },
        {
            "bufferView" : 18,
            "componentType" : 5126,
            "count" : 6503,
            "type" : "VEC2"
        },
        {
            "bufferView" : 19,
            "componentType" : 5123,
            "count" : 10452,
            "type" : "SCALAR"
        },
        {
            "bufferView" : 20,
            "componentType" : 5126,
            "count" : 8154,
            "max" : [
                0.5735906362533569,
                0.55408775806427,
                0.057351868599653244
            ],
            "min" : [
                0.19358809292316437,
                0.1074955016374588,
                -0.05735183507204056
            ],
            "type" : "VEC3"
        },
        {
            "bufferView" : 21,
            "componentType" : 5126,
            "count" : 8154,
            "type" : "VEC3"
        },
        {
            "bufferView" : 22,
            "componentType" : 5126,
            "count" : 8154,
            "type" : "VEC2"
        },
        {
            "bufferView" : 23,
            "componentType" : 5123,
            "count" : 14712,
            "type" : "SCALAR"
        },
        {
            "bufferView" : 24,
            "componentType" : 5126,
            "count" : 7226,
            "max" : [
                0.5742128491401672,
                0.4555046260356903,
                1.9910737947270718e-08
            ],
            "min" : [
                0.00037210111622698605,
                0.06088097766041756,
                2.6611921555286244e-09
            ],
            "type" : "VEC3"
        },
        {
            "bufferView" : 25,
            "componentType" : 5126,
            "count" : 7226,
            "type" : "VEC3"
        },
        {
            "bufferView" : 26,
            "componentType" : 5126,
            "count" : 7226,
            "type" : "VEC2"
        },
        {
            "bufferView" : 27,
            "componentType" : 5123,
            "count" : 7260,
            "type" : "SCALAR"
        }
    ],
    "bufferViews" : [
        {
            "buffer" : 0,
            "byteLength" : 210588,
            "byteOffset" : 0
        },
        {
            "buffer" : 0,
            "byteLength" : 210588,
            "byteOffset" : 210588
        },
        {
            "buffer" : 0,
            "byteLength" : 140392,
            "byteOffset" : 421176
        },
        {
            "buffer" : 0,
            "byteLength" : 59976,
            "byteOffset" : 561568
        },
        {
            "buffer" : 0,
            "byteLength" : 210972,
            "byteOffset" : 621544
        },
        {
            "buffer" : 0,
            "byteLength" : 210972,
            "byteOffset" : 832516
        },
        {
            "buffer" : 0,
            "byteLength" : 140648,
            "byteOffset" : 1043488
        },
        {
            "buffer" : 0,
            "byteLength" : 57192,
            "byteOffset" : 1184136
        },
        {
            "buffer" : 0,
            "byteLength" : 40428,
            "byteOffset" : 1241328
        },
        {
            "buffer" : 0,
            "byteLength" : 40428,
            "byteOffset" : 1281756
        },
        {
            "buffer" : 0,
            "byteLength" : 26952,
            "byteOffset" : 1322184
        },
        {
            "buffer" : 0,
            "byteLength" : 11208,
            "byteOffset" : 1349136
        },
        {
            "buffer" : 0,
            "byteLength" : 118668,
            "byteOffset" : 1360344
        },
        {
            "buffer" : 0,
            "byteLength" : 118668,
            "byteOffset" : 1479012
        },
        {
            "buffer" : 0,
            "byteLength" : 79112,
            "byteOffset" : 1597680
        },
        {
            "buffer" : 0,
            "byteLength" : 33816,
            "byteOffset" : 1676792
        },
        {
            "buffer" : 0,
            "byteLength" : 78036,
            "byteOffset" : 1710608
        },
        {
            "buffer" : 0,
            "byteLength" : 78036,
            "byteOffset" : 1788644
        },
        {
            "buffer" : 0,
            "byteLength" : 52024,
            "byteOffset" : 1866680
        },
        {
            "buffer" : 0,
            "byteLength" : 20904,
            "byteOffset" : 1918704
        },
        {
            "buffer" : 0,
            "byteLength" : 97848,
            "byteOffset" : 1939608
        },
        {
            "buffer" : 0,
            "byteLength" : 97848,
            "byteOffset" : 2037456
        },
        {
            "buffer" : 0,
            "byteLength" : 65232,
            "byteOffset" : 2135304
        },
        {
            "buffer" : 0,
            "byteLength" : 29424,
            "byteOffset" : 2200536
        },
        {
            "buffer" : 0,
            "byteLength" : 86712,
            "byteOffset" : 2229960
        },
        {
            "buffer" : 0,
            "byteLength" : 86712,
            "byteOffset" : 2316672
        },
        {
            "buffer" : 0,
            "byteLength" : 57808,
            "byteOffset" : 2403384
        },
        {
            "buffer" : 0,
            "byteLength" : 14520,
            "byteOffset" : 2461192
        }
    ],
    "buffers" : [
        {
            "byteLength" : 2475712,
            "uri" : "data:application/octet-stream;base64,"
        }
    ]
}
