{
    "asset" : {
        "generator" : "Khronos glTF Blender I/O v1.8.19",
        "version" : "2.0"
    },
    "scene" : 0,
    "scenes" : [
        {
            "name" : "Scene",
            "nodes" : [
                0
            ]
        }
    ],
    "nodes" : [
        {
            "mesh" : 0,
            "name" : "Geo_Shark",
            "scale" : [
                0.003905954770743847,
                0.003905954770743847,
                0.003905954770743847
            ]
        }
    ],
    "materials" : [
        {
            "name" : "lambert2SG",
            "pbrMetallicRoughness" : {
                "baseColorTexture" : {
                    "index" : 0
                },
                "metallicFactor" : 0
            }
        }
    ],
    "meshes" : [
        {
            "name" : "Geo_Shark_1",
            "primitives" : [
                {
                    "attributes" : {
                        "POSITION" : 0,
                        "NORMAL" : 1,
                        "TEXCOORD_0" : 2
                    },
                    "indices" : 3,
                    "material" : 0
                }
            ]
        }
    ],
    "textures" : [
        {
            "sampler" : 0,
            "source" : 0
        }
    ],
    "images" : [
        {
            "bufferView" : 4,
            "mimeType" : "image/png",
            "name" : "Image_0"
        }
    ],
    "accessors" : [
        {
            "bufferView" : 0,
            "componentType" : 5126,
            "count" : 1210,
            "max" : [
                38.12858200073242,
                44.990482330322266,
                88.02332305908203
            ],
            "min" : [
                -38.24334716796875,
                -15.514205932617188,
                -88.11264038085938
            ],
            "type" : "VEC3"
        },
        {
            "bufferView" : 1,
            "componentType" : 5126,
            "count" : 1210,
            "type" : "VEC3"
        },
        {
            "bufferView" : 2,
            "componentType" : 5126,
            "count" : 1210,
            "type" : "VEC2"
        },
        {
            "bufferView" : 3,
            "componentType" : 5123,
            "count" : 1482,
            "type" : "SCALAR"
        }
    ],
    "bufferViews" : [
        {
            "buffer" : 0,
            "byteLength" : 14520,
            "byteOffset" : 0
        },
        {
            "buffer" : 0,
            "byteLength" : 14520,
            "byteOffset" : 14520
        },
        {
            "buffer" : 0,
            "byteLength" : 9680,
            "byteOffset" : 29040
        },
        {
            "buffer" : 0,
            "byteLength" : 2964,
            "byteOffset" : 38720
        },
        {
            "buffer" : 0,
            "byteLength" : 115,
            "byteOffset" : 41684
        }
    ],
    "samplers" : [
        {
            "magFilter" : 9729,
            "minFilter" : 9987
        }
    ],
    "buffers" : [
        {
            "byteLength" : 41800,
            "uri" : "data:application/octet-stream;base64,"
        }
    ]
}
