{
    "asset" : {
        "generator" : "Khronos glTF Blender I/O v1.8.19",
        "version" : "2.0"
    },
    "scene" : 0,
    "scenes" : [
        {
            "name" : "Scene",
            "nodes" : [
                0
            ]
        }
    ],
    "nodes" : [
        {
            "mesh" : 0,
            "name" : "objdefault001"
        }
    ],
    "materials" : [
        {
            "name" : "_crayfishdiffuse",
            "pbrMetallicRoughness" : {
                "baseColorFactor" : [
                    0.2824000120162964,
                    0.12549999356269836,
                    0.09019999951124191,
                    1
                ],
                "metallicFactor" : 0,
                "roughnessFactor" : 0.9700000286102295
            }
        },
        {
            "name" : "03___Default",
            "pbrMetallicRoughness" : {
                "baseColorFactor" : [
                    0.6980000138282776,
                    0.6980000138282776,
                    0.6980000138282776,
                    1
                ],
                "metallicFactor" : 0,
                "roughnessFactor" : 0.9900000095367432
            }
        },
        {
            "name" : "02___Default",
            "pbrMetallicRoughness" : {
                "baseColorFactor" : [
                    0.2549000084400177,
                    0.17249999940395355,
                    0.14900000393390656,
                    1
                ],
                "metallicFactor" : 0,
                "roughnessFactor" : 0.9900000095367432
            }
        }
    ],
    "meshes" : [
        {
            "name" : "objdefault001_1",
            "primitives" : [
                {
                    "attributes" : {
                        "POSITION" : 0,
                        "NORMAL" : 1
                    },
                    "indices" : 2,
                    "material" : 0
                },
                {
                    "attributes" : {
                        "POSITION" : 3,
                        "NORMAL" : 4
                    },
                    "indices" : 5,
                    "material" : 1
                },
                {
                    "attributes" : {
                        "POSITION" : 6,
                        "NORMAL" : 7
                    },
                    "indices" : 8,
                    "material" : 2
                }
            ]
        }
    ],
    "accessors" : [
        {
            "bufferView" : 0,
            "componentType" : 5126,
            "count" : 21260,
            "max" : [
                0.13869625329971313,
                0.03519918769598007,
                0.5213772058486938
            ],
            "min" : [
                -0.12949271500110626,
                -0.028483552858233452,
                -0.16809150576591492
            ],
            "type" : "VEC3"
        },
        {
            "bufferView" : 1,
            "componentType" : 5126,
            "count" : 21260,
            "type" : "VEC3"
        },
        {
            "bufferView" : 2,
            "componentType" : 5123,
            "count" : 29658,
            "type" : "SCALAR"
        },
        {
            "bufferView" : 3,
            "componentType" : 5126,
            "count" : 2815,
            "max" : [
                0.030180562287569046,
                0.028595540672540665,
                0.5042285919189453
            ],
            "min" : [
                -0.12898071110248566,
                -0.021393539384007454,
                0.028122536838054657
            ],
            "type" : "VEC3"
        },
        {
            "bufferView" : 4,
            "componentType" : 5126,
            "count" : 2815,
            "type" : "VEC3"
        },
        {
            "bufferView" : 5,
            "componentType" : 5123,
            "count" : 3174,
            "type" : "SCALAR"
        },
        {
            "bufferView" : 6,
            "componentType" : 5126,
            "count" : 4437,
            "max" : [
                0.13869290053844452,
                0.03519918769598007,
                0.5349665284156799
            ],
            "min" : [
                -0.13002651929855347,
                -0.026417218148708344,
                -0.16806179285049438
            ],
            "type" : "VEC3"
        },
        {
            "bufferView" : 7,
            "componentType" : 5126,
            "count" : 4437,
            "type" : "VEC3"
        },
        {
            "bufferView" : 8,
            "componentType" : 5123,
            "count" : 5655,
            "type" : "SCALAR"
        }
    ],
    "bufferViews" : [
        {
            "buffer" : 0,
            "byteLength" : 255120,
            "byteOffset" : 0
        },
        {
            "buffer" : 0,
            "byteLength" : 255120,
            "byteOffset" : 255120
        },
        {
            "buffer" : 0,
            "byteLength" : 59316,
            "byteOffset" : 510240
        },
        {
            "buffer" : 0,
            "byteLength" : 33780,
            "byteOffset" : 569556
        },
        {
            "buffer" : 0,
            "byteLength" : 33780,
            "byteOffset" : 603336
        },
        {
            "buffer" : 0,
            "byteLength" : 6348,
            "byteOffset" : 637116
        },
        {
            "buffer" : 0,
            "byteLength" : 53244,
            "byteOffset" : 643464
        },
        {
            "buffer" : 0,
            "byteLength" : 53244,
            "byteOffset" : 696708
        },
        {
            "buffer" : 0,
            "byteLength" : 11310,
            "byteOffset" : 749952
        }
    ],
    "buffers" : [
        {
            "byteLength" : 761264,
            "uri" : "data:application/octet-stream;base64,"
        }
    ]
}
