{
    "asset" : {
        "generator" : "Khronos glTF Blender I/O v1.6.16",
        "version" : "2.0"
    },
    "scene" : 0,
    "scenes" : [
        {
            "name" : "Scene",
            "nodes" : [
                0,
                1,
                2,
                3,
                4
            ]
        }
    ],
    "nodes" : [
        {
            "mesh" : 0,
            "name" : "group2089373109",
            "rotation" : [
                0.7071068286895752,
                0,
                0,
                0.7071067094802856
            ]
        },
        {
            "mesh" : 1,
            "name" : "group1518070955",
            "rotation" : [
                0.7071068286895752,
                0,
                0,
                0.7071067094802856
            ]
        },
        {
            "mesh" : 2,
            "name" : "group1868352797",
            "rotation" : [
                0.7071068286895752,
                0,
                0,
                0.7071067094802856
            ]
        },
        {
            "mesh" : 3,
            "name" : "group1156846795",
            "rotation" : [
                0.7071068286895752,
                0,
                0,
                0.7071067094802856
            ]
        },
        {
            "mesh" : 4,
            "name" : "group705226761",
            "rotation" : [
                0.7071068286895752,
                0,
                0,
                0.7071067094802856
            ]
        }
    ],
    "materials" : [
        {
            "doubleSided" : true,
            "name" : "mat21",
            "pbrMetallicRoughness" : {
                "metallicFactor" : 0
            }
        },
        {
            "doubleSided" : true,
            "name" : "mat23",
            "pbrMetallicRoughness" : {
                "baseColorFactor" : [
                    0.009999999776482582,
                    0.009999999776482582,
                    0.009999999776482582,
                    1
                ],
                "metallicFactor" : 0
            }
        },
        {
            "doubleSided" : true,
            "name" : "mat13",
            "pbrMetallicRoughness" : {
                "baseColorFactor" : [
                    1,
                    0.33000001311302185,
                    0,
                    1
                ],
                "metallicFactor" : 0
            }
        },
        {
            "doubleSided" : true,
            "name" : "mat18",
            "pbrMetallicRoughness" : {
                "baseColorFactor" : [
                    1,
                    0.6100000143051147,
                    0.25,
                    1
                ],
                "metallicFactor" : 0
            }
        },
        {
            "doubleSided" : true,
            "name" : "mat11",
            "pbrMetallicRoughness" : {
                "baseColorFactor" : [
                    0,
                    0.3100000023841858,
                    0.25,
                    1
                ],
                "metallicFactor" : 0
            }
        }
    ],
    "meshes" : [
        {
            "name" : "group2089373109",
            "primitives" : [
                {
                    "attributes" : {
                        "POSITION" : 0,
                        "NORMAL" : 1,
                        "TEXCOORD_0" : 2
                    },
                    "indices" : 3,
                    "material" : 0
                },
                {
                    "attributes" : {
                        "POSITION" : 4,
                        "NORMAL" : 5,
                        "TEXCOORD_0" : 6
                    },
                    "indices" : 7,
                    "material" : 1
                }
            ]
        },
        {
            "name" : "group1518070955",
            "primitives" : [
                {
                    "attributes" : {
                        "POSITION" : 8,
                        "NORMAL" : 9,
                        "TEXCOORD_0" : 10
                    },
                    "indices" : 11,
                    "material" : 2
                },
                {
                    "attributes" : {
                        "POSITION" : 12,
                        "NORMAL" : 13,
                        "TEXCOORD_0" : 14
                    },
                    "indices" : 15,
                    "material" : 3
                },
                {
                    "attributes" : {
                        "POSITION" : 16,
                        "NORMAL" : 17,
                        "TEXCOORD_0" : 18
                    },
                    "indices" : 19,
                    "material" : 0
                }
            ]
        },
        {
            "name" : "group1868352797",
            "primitives" : [
                {
                    "attributes" : {
                        "POSITION" : 20,
                        "NORMAL" : 21,
                        "TEXCOORD_0" : 22
                    },
                    "indices" : 23,
                    "material" : 0
                }
            ]
        },
        {
            "name" : "group1156846795",
            "primitives" : [
                {
                    "attributes" : {
                        "POSITION" : 24,
                        "NORMAL" : 25,
                        "TEXCOORD_0" : 26
                    },
                    "indices" : 27,
                    "material" : 0
                },
                {
                    "attributes" : {
                        "POSITION" : 28,
                        "NORMAL" : 29,
                        "TEXCOORD_0" : 30
                    },
                    "indices" : 31,
                    "material" : 4
                },
                {
                    "attributes" : {
                        "POSITION" : 32,
                        "NORMAL" : 33,
                        "TEXCOORD_0" : 34
                    },
                    "indices" : 35,
                    "material" : 1
                }
            ]
        },
        {
            "name" : "group705226761",
            "primitives" : [
                {
                    "attributes" : {
                        "POSITION" : 36,
                        "NORMAL" : 37,
                        "TEXCOORD_0" : 38
                    },
                    "indices" : 39,
                    "material" : 0
                },
                {
                    "attributes" : {
                        "POSITION" : 40,
                        "NORMAL" : 41,
                        "TEXCOORD_0" : 42
                    },
                    "indices" : 43,
                    "material" : 4
                },
                {
                    "attributes" : {
                        "POSITION" : 44,
                        "NORMAL" : 45,
                        "TEXCOORD_0" : 46
                    },
                    "indices" : 47,
                    "material" : 1
                }
            ]
        }
    ],
    "accessors" : [
        {
            "bufferView" : 0,
            "componentType" : 5126,
            "count" : 400,
            "max" : [
                0.11143720149993896,
                0.27285340428352356,
                0.07407689094543457
            ],
            "min" : [
                -0.2655065059661865,
                -0.16574989259243011,
                -0.26803821325302124
            ],
            "type" : "VEC3"
        },
        {
            "bufferView" : 1,
            "componentType" : 5126,
            "count" : 400,
            "type" : "VEC3"
        },
        {
            "bufferView" : 2,
            "componentType" : 5126,
            "count" : 400,
            "type" : "VEC2"
        },
        {
            "bufferView" : 3,
            "componentType" : 5123,
            "count" : 588,
            "type" : "SCALAR"
        },
        {
            "bufferView" : 4,
            "componentType" : 5126,
            "count" : 8,
            "max" : [
                0.04137415066361427,
                -0.07107210159301758,
                0.019858060404658318
            ],
            "min" : [
                -0.0712638571858406,
                -0.13150380551815033,
                -0.02449372038245201
            ],
            "type" : "VEC3"
        },
        {
            "bufferView" : 5,
            "componentType" : 5126,
            "count" : 8,
            "type" : "VEC3"
        },
        {
            "bufferView" : 6,
            "componentType" : 5126,
            "count" : 8,
            "type" : "VEC2"
        },
        {
            "bufferView" : 7,
            "componentType" : 5123,
            "count" : 12,
            "type" : "SCALAR"
        },
        {
            "bufferView" : 8,
            "componentType" : 5126,
            "count" : 524,
            "max" : [
                0.207840695977211,
                0.451583594083786,
                0.43115609884262085
            ],
            "min" : [
                -0.3247765898704529,
                -0.0839463472366333,
                -0.17558680474758148
            ],
            "type" : "VEC3"
        },
        {
            "bufferView" : 9,
            "componentType" : 5126,
            "count" : 524,
            "type" : "VEC3"
        },
        {
            "bufferView" : 10,
            "componentType" : 5126,
            "count" : 524,
            "type" : "VEC2"
        },
        {
            "bufferView" : 11,
            "componentType" : 5123,
            "count" : 792,
            "type" : "SCALAR"
        },
        {
            "bufferView" : 12,
            "componentType" : 5126,
            "count" : 32,
            "max" : [
                0.05200612172484398,
                0.08796101808547974,
                0.37586718797683716
            ],
            "min" : [
                -0.19420139491558075,
                -0.0455658994615078,
                0.07020757347345352
            ],
            "type" : "VEC3"
        },
        {
            "bufferView" : 13,
            "componentType" : 5126,
            "count" : 32,
            "type" : "VEC3"
        },
        {
            "bufferView" : 14,
            "componentType" : 5126,
            "count" : 32,
            "type" : "VEC2"
        },
        {
            "bufferView" : 15,
            "componentType" : 5123,
            "count" : 48,
            "type" : "SCALAR"
        },
        {
            "bufferView" : 16,
            "componentType" : 5126,
            "count" : 52,
            "max" : [
                0.09148547053337097,
                0.10389590263366699,
                0.43124300241470337
            ],
            "min" : [
                -0.24346449971199036,
                -0.006258606910705566,
                0.3979969918727875
            ],
            "type" : "VEC3"
        },
        {
            "bufferView" : 17,
            "componentType" : 5126,
            "count" : 52,
            "type" : "VEC3"
        },
        {
            "bufferView" : 18,
            "componentType" : 5126,
            "count" : 52,
            "type" : "VEC2"
        },
        {
            "bufferView" : 19,
            "componentType" : 5123,
            "count" : 84,
            "type" : "SCALAR"
        },
        {
            "bufferView" : 20,
            "componentType" : 5126,
            "count" : 62,
            "max" : [
                0.21091130375862122,
                0.1530303955078125,
                0.2799505889415741
            ],
            "min" : [
                0.09134209156036377,
                -0.20665280520915985,
                0.17901569604873657
            ],
            "type" : "VEC3"
        },
        {
            "bufferView" : 21,
            "componentType" : 5126,
            "count" : 62,
            "type" : "VEC3"
        },
        {
            "bufferView" : 22,
            "componentType" : 5126,
            "count" : 62,
            "type" : "VEC2"
        },
        {
            "bufferView" : 23,
            "componentType" : 5123,
            "count" : 96,
            "type" : "SCALAR"
        },
        {
            "bufferView" : 24,
            "componentType" : 5126,
            "count" : 53,
            "max" : [
                -0.08826135098934174,
                0.07222706079483032,
                -0.04328757897019386
            ],
            "min" : [
                -0.14233900606632233,
                -0.031276170164346695,
                -0.13829480111598969
            ],
            "type" : "VEC3"
        },
        {
            "bufferView" : 25,
            "componentType" : 5126,
            "count" : 53,
            "type" : "VEC3"
        },
        {
            "bufferView" : 26,
            "componentType" : 5126,
            "count" : 53,
            "type" : "VEC2"
        },
        {
            "bufferView" : 27,
            "componentType" : 5123,
            "count" : 87,
            "type" : "SCALAR"
        },
        {
            "bufferView" : 28,
            "componentType" : 5126,
            "count" : 19,
            "max" : [
                -0.1066925972700119,
                0.04222964867949486,
                -0.051116470247507095
            ],
            "min" : [
                -0.13255420327186584,
                -0.016516389325261116,
                -0.1357875019311905
            ],
            "type" : "VEC3"
        },
        {
            "bufferView" : 29,
            "componentType" : 5126,
            "count" : 19,
            "type" : "VEC3"
        },
        {
            "bufferView" : 30,
            "componentType" : 5126,
            "count" : 19,
            "type" : "VEC2"
        },
        {
            "bufferView" : 31,
            "componentType" : 5123,
            "count" : 27,
            "type" : "SCALAR"
        },
        {
            "bufferView" : 32,
            "componentType" : 5126,
            "count" : 20,
            "max" : [
                -0.1066925972700119,
                0.029134269803762436,
                -0.06428608298301697
            ],
            "min" : [
                -0.12684430181980133,
                -0.009445548057556152,
                -0.13362979888916016
            ],
            "type" : "VEC3"
        },
        {
            "bufferView" : 33,
            "componentType" : 5126,
            "count" : 20,
            "type" : "VEC3"
        },
        {
            "bufferView" : 34,
            "componentType" : 5126,
            "count" : 20,
            "type" : "VEC2"
        },
        {
            "bufferView" : 35,
            "componentType" : 5123,
            "count" : 30,
            "type" : "SCALAR"
        },
        {
            "bufferView" : 36,
            "componentType" : 5126,
            "count" : 53,
            "max" : [
                0.03225243091583252,
                0.10358119755983353,
                -0.04056471958756447
            ],
            "min" : [
                -0.003233640920370817,
                0.004437028896063566,
                -0.1349879950284958
            ],
            "type" : "VEC3"
        },
        {
            "bufferView" : 37,
            "componentType" : 5126,
            "count" : 53,
            "type" : "VEC3"
        },
        {
            "bufferView" : 38,
            "componentType" : 5126,
            "count" : 53,
            "type" : "VEC2"
        },
        {
            "bufferView" : 39,
            "componentType" : 5123,
            "count" : 87,
            "type" : "SCALAR"
        },
        {
            "bufferView" : 40,
            "componentType" : 5126,
            "count" : 19,
            "max" : [
                0.030974509194493294,
                0.0813949704170227,
                -0.047207240015268326
            ],
            "min" : [
                0.016903800889849663,
                0.01860160008072853,
                -0.13259899616241455
            ],
            "type" : "VEC3"
        },
        {
            "bufferView" : 41,
            "componentType" : 5126,
            "count" : 19,
            "type" : "VEC3"
        },
        {
            "bufferView" : 42,
            "componentType" : 5126,
            "count" : 19,
            "type" : "VEC2"
        },
        {
            "bufferView" : 43,
            "componentType" : 5123,
            "count" : 27,
            "type" : "SCALAR"
        },
        {
            "bufferView" : 44,
            "componentType" : 5126,
            "count" : 20,
            "max" : [
                0.028556300327181816,
                0.06747453659772873,
                -0.06049085035920143
            ],
            "min" : [
                0.016903800889849663,
                0.02495718002319336,
                -0.13054320216178894
            ],
            "type" : "VEC3"
        },
        {
            "bufferView" : 45,
            "componentType" : 5126,
            "count" : 20,
            "type" : "VEC3"
        },
        {
            "bufferView" : 46,
            "componentType" : 5126,
            "count" : 20,
            "type" : "VEC2"
        },
        {
            "bufferView" : 47,
            "componentType" : 5123,
            "count" : 30,
            "type" : "SCALAR"
        }
    ],
    "bufferViews" : [
        {
            "buffer" : 0,
            "byteLength" : 4800,
            "byteOffset" : 0
        },
        {
            "buffer" : 0,
            "byteLength" : 4800,
            "byteOffset" : 4800
        },
        {
            "buffer" : 0,
            "byteLength" : 3200,
            "byteOffset" : 9600
        },
        {
            "buffer" : 0,
            "byteLength" : 1176,
            "byteOffset" : 12800
        },
        {
            "buffer" : 0,
            "byteLength" : 96,
            "byteOffset" : 13976
        },
        {
            "buffer" : 0,
            "byteLength" : 96,
            "byteOffset" : 14072
        },
        {
            "buffer" : 0,
            "byteLength" : 64,
            "byteOffset" : 14168
        },
        {
            "buffer" : 0,
            "byteLength" : 24,
            "byteOffset" : 14232
        },
        {
            "buffer" : 0,
            "byteLength" : 6288,
            "byteOffset" : 14256
        },
        {
            "buffer" : 0,
            "byteLength" : 6288,
            "byteOffset" : 20544
        },
        {
            "buffer" : 0,
            "byteLength" : 4192,
            "byteOffset" : 26832
        },
        {
            "buffer" : 0,
            "byteLength" : 1584,
            "byteOffset" : 31024
        },
        {
            "buffer" : 0,
            "byteLength" : 384,
            "byteOffset" : 32608
        },
        {
            "buffer" : 0,
            "byteLength" : 384,
            "byteOffset" : 32992
        },
        {
            "buffer" : 0,
            "byteLength" : 256,
            "byteOffset" : 33376
        },
        {
            "buffer" : 0,
            "byteLength" : 96,
            "byteOffset" : 33632
        },
        {
            "buffer" : 0,
            "byteLength" : 624,
            "byteOffset" : 33728
        },
        {
            "buffer" : 0,
            "byteLength" : 624,
            "byteOffset" : 34352
        },
        {
            "buffer" : 0,
            "byteLength" : 416,
            "byteOffset" : 34976
        },
        {
            "buffer" : 0,
            "byteLength" : 168,
            "byteOffset" : 35392
        },
        {
            "buffer" : 0,
            "byteLength" : 744,
            "byteOffset" : 35560
        },
        {
            "buffer" : 0,
            "byteLength" : 744,
            "byteOffset" : 36304
        },
        {
            "buffer" : 0,
            "byteLength" : 496,
            "byteOffset" : 37048
        },
        {
            "buffer" : 0,
            "byteLength" : 192,
            "byteOffset" : 37544
        },
        {
            "buffer" : 0,
            "byteLength" : 636,
            "byteOffset" : 37736
        },
        {
            "buffer" : 0,
            "byteLength" : 636,
            "byteOffset" : 38372
        },
        {
            "buffer" : 0,
            "byteLength" : 424,
            "byteOffset" : 39008
        },
        {
            "buffer" : 0,
            "byteLength" : 174,
            "byteOffset" : 39432
        },
        {
            "buffer" : 0,
            "byteLength" : 228,
            "byteOffset" : 39608
        },
        {
            "buffer" : 0,
            "byteLength" : 228,
            "byteOffset" : 39836
        },
        {
            "buffer" : 0,
            "byteLength" : 152,
            "byteOffset" : 40064
        },
        {
            "buffer" : 0,
            "byteLength" : 54,
            "byteOffset" : 40216
        },
        {
            "buffer" : 0,
            "byteLength" : 240,
            "byteOffset" : 40272
        },
        {
            "buffer" : 0,
            "byteLength" : 240,
            "byteOffset" : 40512
        },
        {
            "buffer" : 0,
            "byteLength" : 160,
            "byteOffset" : 40752
        },
        {
            "buffer" : 0,
            "byteLength" : 60,
            "byteOffset" : 40912
        },
        {
            "buffer" : 0,
            "byteLength" : 636,
            "byteOffset" : 40972
        },
        {
            "buffer" : 0,
            "byteLength" : 636,
            "byteOffset" : 41608
        },
        {
            "buffer" : 0,
            "byteLength" : 424,
            "byteOffset" : 42244
        },
        {
            "buffer" : 0,
            "byteLength" : 174,
            "byteOffset" : 42668
        },
        {
            "buffer" : 0,
            "byteLength" : 228,
            "byteOffset" : 42844
        },
        {
            "buffer" : 0,
            "byteLength" : 228,
            "byteOffset" : 43072
        },
        {
            "buffer" : 0,
            "byteLength" : 152,
            "byteOffset" : 43300
        },
        {
            "buffer" : 0,
            "byteLength" : 54,
            "byteOffset" : 43452
        },
        {
            "buffer" : 0,
            "byteLength" : 240,
            "byteOffset" : 43508
        },
        {
            "buffer" : 0,
            "byteLength" : 240,
            "byteOffset" : 43748
        },
        {
            "buffer" : 0,
            "byteLength" : 160,
            "byteOffset" : 43988
        },
        {
            "buffer" : 0,
            "byteLength" : 60,
            "byteOffset" : 44148
        }
    ],
    "buffers" : [
        {
            "byteLength" : 44208,
            "uri" : "data:application/octet-stream;base64,"
        }
    ]
}
