{
    "asset" : {
        "generator" : "Khronos glTF Blender I/O v1.8.19",
        "version" : "2.0"
    },
    "scene" : 0,
    "scenes" : [
        {
            "name" : "Scene",
            "nodes" : [
                0
            ]
        }
    ],
    "nodes" : [
        {
            "mesh" : 0,
            "name" : "venus_venus_0",
            "scale" : [
                0.08205582946538925,
                0.08205582946538925,
                0.08205582946538925
            ]
        }
    ],
    "materials" : [
        {
            "doubleSided" : true,
            "name" : "venus",
            "pbrMetallicRoughness" : {
                "baseColorFactor" : [
                    0.7076012492179871,
                    0.6030663251876831,
                    0.1849161982536316,
                    1
                ],
                "metallicFactor" : 0.2973794937133789,
                "roughnessFactor" : 0.6585953235626221
            }
        }
    ],
    "meshes" : [
        {
            "name" : "venus_venus_0",
            "primitives" : [
                {
                    "attributes" : {
                        "POSITION" : 0,
                        "NORMAL" : 1
                    },
                    "indices" : 2,
                    "material" : 0
                }
            ]
        }
    ],
    "accessors" : [
        {
            "bufferView" : 0,
            "componentType" : 5126,
            "count" : 6186,
            "max" : [
                2.1009299755096436,
                6.821897506713867,
                1.9362664222717285
            ],
            "min" : [
                -1.708309292793274,
                -5.2752556800842285,
                -1.7906018495559692
            ],
            "type" : "VEC3"
        },
        {
            "bufferView" : 1,
            "componentType" : 5126,
            "count" : 6186,
            "type" : "VEC3"
        },
        {
            "bufferView" : 2,
            "componentType" : 5123,
            "count" : 6186,
            "type" : "SCALAR"
        }
    ],
    "bufferViews" : [
        {
            "buffer" : 0,
            "byteLength" : 74232,
            "byteOffset" : 0
        },
        {
            "buffer" : 0,
            "byteLength" : 74232,
            "byteOffset" : 74232
        },
        {
            "buffer" : 0,
            "byteLength" : 12372,
            "byteOffset" : 148464
        }
    ],
    "buffers" : [
        {
            "byteLength" : 160836,
            "uri" : "data:application/octet-stream;base64,"
        }
    ]
}
