{
    "asset" : {
        "generator" : "Khronos glTF Blender I/O v1.8.19",
        "version" : "2.0"
    },
    "scene" : 0,
    "scenes" : [
        {
            "name" : "Scene",
            "nodes" : [
                0
            ]
        }
    ],
    "nodes" : [
        {
            "mesh" : 0,
            "name" : "xxx_blinn1_0"
        }
    ],
    "materials" : [
        {
            "doubleSided" : true,
            "name" : "blinn1",
            "pbrMetallicRoughness" : {
                "baseColorFactor" : [
                    1,
                    0,
                    0,
                    1
                ],
                "metallicFactor" : 0,
                "roughnessFactor" : 0.15072408318519592
            }
        }
    ],
    "meshes" : [
        {
            "name" : "xxx_blinn1_0",
            "primitives" : [
                {
                    "attributes" : {
                        "POSITION" : 0,
                        "NORMAL" : 1,
                        "TEXCOORD_0" : 2
                    },
                    "indices" : 3,
                    "material" : 0
                }
            ]
        }
    ],
    "accessors" : [
        {
            "bufferView" : 0,
            "componentType" : 5126,
            "count" : 541,
            "max" : [
                0.33799442648887634,
                0.32466015219688416,
                0.06586713343858719
            ],
            "min" : [
                -0.33799442648887634,
                -0.32466015219688416,
                -0.06586713343858719
            ],
            "type" : "VEC3"
        },
        {
            "bufferView" : 1,
            "componentType" : 5126,
            "count" : 541,
            "type" : "VEC3"
        },
        {
            "bufferView" : 2,
            "componentType" : 5126,
            "count" : 541,
            "type" : "VEC2"
        },
        {
            "bufferView" : 3,
            "componentType" : 5123,
            "count" : 1392,
            "type" : "SCALAR"
        }
    ],
    "bufferViews" : [
        {
            "buffer" : 0,
            "byteLength" : 6492,
            "byteOffset" : 0
        },
        {
            "buffer" : 0,
            "byteLength" : 6492,
            "byteOffset" : 6492
        },
        {
            "buffer" : 0,
            "byteLength" : 4328,
            "byteOffset" : 12984
        },
        {
            "buffer" : 0,
            "byteLength" : 2784,
            "byteOffset" : 17312
        }
    ],
    "buffers" : [
        {
            "byteLength" : 20096,
            "uri" : "data:application/octet-stream;base64,"
        }
    ]
}
