{
    "asset" : {
        "generator" : "Khronos glTF Blender I/O v1.8.19",
        "version" : "2.0"
    },
    "scene" : 0,
    "scenes" : [
        {
            "name" : "Scene",
            "nodes" : [
                0
            ]
        }
    ],
    "nodes" : [
        {
            "mesh" : 0,
            "name" : "Backpack"
        }
    ],
    "materials" : [
        {
            "name" : "Brown",
            "pbrMetallicRoughness" : {
                "baseColorFactor" : [
                    0.14308767020702362,
                    0.10141847282648087,
                    0.041053883731365204,
                    1
                ],
                "metallicFactor" : 0.4000000059604645,
                "roughnessFactor" : 0.41508710384368896
            }
        },
        {
            "name" : "LightGreen",
            "pbrMetallicRoughness" : {
                "baseColorFactor" : [
                    0.08522485941648483,
                    0.07335060834884644,
                    0.03187347203493118,
                    1
                ],
                "metallicFactor" : 0.4000000059604645,
                "roughnessFactor" : 0.41508710384368896
            }
        },
        {
            "name" : "Gold",
            "pbrMetallicRoughness" : {
                "baseColorFactor" : [
                    0.18641002476215363,
                    0.11901362985372543,
                    0.011910463683307171,
                    1
                ],
                "metallicFactor" : 0.4000000059604645,
                "roughnessFactor" : 0.41508710384368896
            }
        },
        {
            "name" : "Green",
            "pbrMetallicRoughness" : {
                "baseColorFactor" : [
                    0.048574451357126236,
                    0.0404079407453537,
                    0.01510690338909626,
                    1
                ],
                "metallicFactor" : 0.4000000059604645,
                "roughnessFactor" : 0.41508710384368896
            }
        }
    ],
    "meshes" : [
        {
            "name" : "Backpack",
            "primitives" : [
                {
                    "attributes" : {
                        "POSITION" : 0,
                        "NORMAL" : 1
                    },
                    "indices" : 2,
                    "material" : 0
                },
                {
                    "attributes" : {
                        "POSITION" : 3,
                        "NORMAL" : 4
                    },
                    "indices" : 5,
                    "material" : 1
                },
                {
                    "attributes" : {
                        "POSITION" : 6,
                        "NORMAL" : 7
                    },
                    "indices" : 8,
                    "material" : 2
                },
                {
                    "attributes" : {
                        "POSITION" : 9,
                        "NORMAL" : 10
                    },
                    "indices" : 11,
                    "material" : 3
                }
            ]
        }
    ],
    "accessors" : [
        {
            "bufferView" : 0,
            "componentType" : 5126,
            "count" : 654,
            "max" : [
                0.26547181606292725,
                0.26220422983169556,
                0.07365991175174713
            ],
            "min" : [
                -0.26547181606292725,
                0.1220337450504303,
                -0.08540067076683044
            ],
            "type" : "VEC3"
        },
        {
            "bufferView" : 1,
            "componentType" : 5126,
            "count" : 654,
            "type" : "VEC3"
        },
        {
            "bufferView" : 2,
            "componentType" : 5123,
            "count" : 948,
            "type" : "SCALAR"
        },
        {
            "bufferView" : 3,
            "componentType" : 5126,
            "count" : 2147,
            "max" : [
                0.2341277152299881,
                0.26279792189598083,
                0.17736227810382843
            ],
            "min" : [
                -0.23615340888500214,
                -0.23263949155807495,
                -0.0999007374048233
            ],
            "type" : "VEC3"
        },
        {
            "bufferView" : 4,
            "componentType" : 5126,
            "count" : 2147,
            "type" : "VEC3"
        },
        {
            "bufferView" : 5,
            "componentType" : 5123,
            "count" : 2898,
            "type" : "SCALAR"
        },
        {
            "bufferView" : 6,
            "componentType" : 5126,
            "count" : 876,
            "max" : [
                0.22316044569015503,
                0.05325343459844589,
                0.16639502346515656
            ],
            "min" : [
                -0.22518615424633026,
                -0.15582914650440216,
                -0.010874619707465172
            ],
            "type" : "VEC3"
        },
        {
            "bufferView" : 7,
            "componentType" : 5126,
            "count" : 876,
            "type" : "VEC3"
        },
        {
            "bufferView" : 8,
            "componentType" : 5123,
            "count" : 1200,
            "type" : "SCALAR"
        },
        {
            "bufferView" : 9,
            "componentType" : 5126,
            "count" : 162,
            "max" : [
                0.2110760658979416,
                0.12028487771749496,
                0.1547582447528839
            ],
            "min" : [
                -0.21310177445411682,
                -0.10688164085149765,
                -0.07890671491622925
            ],
            "type" : "VEC3"
        },
        {
            "bufferView" : 10,
            "componentType" : 5126,
            "count" : 162,
            "type" : "VEC3"
        },
        {
            "bufferView" : 11,
            "componentType" : 5123,
            "count" : 198,
            "type" : "SCALAR"
        }
    ],
    "bufferViews" : [
        {
            "buffer" : 0,
            "byteLength" : 7848,
            "byteOffset" : 0
        },
        {
            "buffer" : 0,
            "byteLength" : 7848,
            "byteOffset" : 7848
        },
        {
            "buffer" : 0,
            "byteLength" : 1896,
            "byteOffset" : 15696
        },
        {
            "buffer" : 0,
            "byteLength" : 25764,
            "byteOffset" : 17592
        },
        {
            "buffer" : 0,
            "byteLength" : 25764,
            "byteOffset" : 43356
        },
        {
            "buffer" : 0,
            "byteLength" : 5796,
            "byteOffset" : 69120
        },
        {
            "buffer" : 0,
            "byteLength" : 10512,
            "byteOffset" : 74916
        },
        {
            "buffer" : 0,
            "byteLength" : 10512,
            "byteOffset" : 85428
        },
        {
            "buffer" : 0,
            "byteLength" : 2400,
            "byteOffset" : 95940
        },
        {
            "buffer" : 0,
            "byteLength" : 1944,
            "byteOffset" : 98340
        },
        {
            "buffer" : 0,
            "byteLength" : 1944,
            "byteOffset" : 100284
        },
        {
            "buffer" : 0,
            "byteLength" : 396,
            "byteOffset" : 102228
        }
    ],
    "buffers" : [
        {
            "byteLength" : 102624,
            "uri" : "data:application/octet-stream;base64,"
        }
    ]
}
