{
    "asset" : {
        "generator" : "Khronos glTF Blender I/O v1.8.19",
        "version" : "2.0"
    },
    "scene" : 0,
    "scenes" : [
        {
            "name" : "Scene",
            "nodes" : [
                0
            ]
        }
    ],
    "nodes" : [
        {
            "mesh" : 0,
            "name" : "path8"
        }
    ],
    "materials" : [
        {
            "doubleSided" : true,
            "name" : "SVGMat.032",
            "pbrMetallicRoughness" : {
                "baseColorFactor" : [
                    0.7230551242828369,
                    0.1384316086769104,
                    0.09530746936798096,
                    1
                ],
                "metallicFactor" : 0,
                "roughnessFactor" : 0.4000000059604645
            }
        },
        {
            "doubleSided" : true,
            "name" : "SVGMat.024",
            "pbrMetallicRoughness" : {
                "baseColorFactor" : [
                    0.09084171056747437,
                    0.2622506618499756,
                    0.9646862745285034,
                    1
                ],
                "metallicFactor" : 0,
                "roughnessFactor" : 0.4000000059604645
            }
        },
        {
            "doubleSided" : true,
            "name" : "SVGMat.025",
            "pbrMetallicRoughness" : {
                "baseColorFactor" : [
                    0.9646862745285034,
                    0.5972017645835876,
                    0.4564110338687897,
                    1
                ],
                "metallicFactor" : 0,
                "roughnessFactor" : 0.4000000059604645
            }
        },
        {
            "doubleSided" : true,
            "name" : "SVGMat.026",
            "pbrMetallicRoughness" : {
                "baseColorFactor" : [
                    0.6104955673217773,
                    0.18447498977184296,
                    0.01850022003054619,
                    1
                ],
                "metallicFactor" : 0,
                "roughnessFactor" : 0.4000000059604645
            }
        },
        {
            "doubleSided" : true,
            "name" : "SVGMat.027",
            "pbrMetallicRoughness" : {
                "baseColorFactor" : [
                    0.9046611785888672,
                    0.37123769521713257,
                    0.08865558356046677,
                    1
                ],
                "metallicFactor" : 0,
                "roughnessFactor" : 0.4000000059604645
            }
        },
        {
            "doubleSided" : true,
            "name" : "SVGMat.028",
            "pbrMetallicRoughness" : {
                "baseColorFactor" : [
                    0.8307698965072632,
                    0.2961382567882538,
                    0.07227185368537903,
                    1
                ],
                "metallicFactor" : 0,
                "roughnessFactor" : 0.4000000059604645
            }
        },
        {
            "doubleSided" : true,
            "name" : "SVGMat.029",
            "pbrMetallicRoughness" : {
                "baseColorFactor" : [
                    0.25015828013420105,
                    0.5028864741325378,
                    0.9734452962875366,
                    1
                ],
                "metallicFactor" : 0,
                "roughnessFactor" : 0.4000000059604645
            }
        }
    ],
    "meshes" : [
        {
            "name" : "path8.001",
            "primitives" : [
                {
                    "attributes" : {
                        "POSITION" : 0,
                        "NORMAL" : 1,
                        "TEXCOORD_0" : 2
                    },
                    "indices" : 3,
                    "material" : 0
                },
                {
                    "attributes" : {
                        "POSITION" : 4,
                        "NORMAL" : 5,
                        "TEXCOORD_0" : 6
                    },
                    "indices" : 7,
                    "material" : 1
                },
                {
                    "attributes" : {
                        "POSITION" : 8,
                        "NORMAL" : 9,
                        "TEXCOORD_0" : 10
                    },
                    "indices" : 11,
                    "material" : 2
                },
                {
                    "attributes" : {
                        "POSITION" : 12,
                        "NORMAL" : 13,
                        "TEXCOORD_0" : 14
                    },
                    "indices" : 15,
                    "material" : 3
                },
                {
                    "attributes" : {
                        "POSITION" : 16,
                        "NORMAL" : 17,
                        "TEXCOORD_0" : 18
                    },
                    "indices" : 19,
                    "material" : 4
                },
                {
                    "attributes" : {
                        "POSITION" : 20,
                        "NORMAL" : 21,
                        "TEXCOORD_0" : 22
                    },
                    "indices" : 23,
                    "material" : 5
                },
                {
                    "attributes" : {
                        "POSITION" : 24,
                        "NORMAL" : 25,
                        "TEXCOORD_0" : 26
                    },
                    "indices" : 27,
                    "material" : 6
                }
            ]
        }
    ],
    "accessors" : [
        {
            "bufferView" : 0,
            "componentType" : 5126,
            "count" : 3134,
            "max" : [
                0.2986489236354828,
                0.4201304316520691,
                0.04976688697934151
            ],
            "min" : [
                0.2635168731212616,
                0.3257891833782196,
                -0.04976685345172882
            ],
            "type" : "VEC3"
        },
        {
            "bufferView" : 1,
            "componentType" : 5126,
            "count" : 3134,
            "type" : "VEC3"
        },
        {
            "bufferView" : 2,
            "componentType" : 5126,
            "count" : 3134,
            "type" : "VEC2"
        },
        {
            "bufferView" : 3,
            "componentType" : 5123,
            "count" : 5328,
            "type" : "SCALAR"
        },
        {
            "bufferView" : 4,
            "componentType" : 5126,
            "count" : 17229,
            "max" : [
                0.4991765320301056,
                0.43082812428474426,
                0.04976688697934151
            ],
            "min" : [
                0.06264474242925644,
                0.27242717146873474,
                -0.04976685717701912
            ],
            "type" : "VEC3"
        },
        {
            "bufferView" : 5,
            "componentType" : 5126,
            "count" : 17229,
            "type" : "VEC3"
        },
        {
            "bufferView" : 6,
            "componentType" : 5126,
            "count" : 17229,
            "type" : "VEC2"
        },
        {
            "bufferView" : 7,
            "componentType" : 5123,
            "count" : 28920,
            "type" : "SCALAR"
        },
        {
            "bufferView" : 8,
            "componentType" : 5126,
            "count" : 9590,
            "max" : [
                0.5339418053627014,
                0.4999178946018219,
                0.049766890704631805
            ],
            "min" : [
                0.028091207146644592,
                0.3505042493343353,
                -0.04976685345172882
            ],
            "type" : "VEC3"
        },
        {
            "bufferView" : 9,
            "componentType" : 5126,
            "count" : 9590,
            "type" : "VEC3"
        },
        {
            "bufferView" : 10,
            "componentType" : 5126,
            "count" : 9590,
            "type" : "VEC2"
        },
        {
            "bufferView" : 11,
            "componentType" : 5123,
            "count" : 15900,
            "type" : "SCALAR"
        },
        {
            "bufferView" : 12,
            "componentType" : 5126,
            "count" : 10057,
            "max" : [
                0.43092894554138184,
                0.5358670353889465,
                0.049766890704631805
            ],
            "min" : [
                0.13090503215789795,
                0.016851162537932396,
                -0.049766868352890015
            ],
            "type" : "VEC3"
        },
        {
            "bufferView" : 13,
            "componentType" : 5126,
            "count" : 10057,
            "type" : "VEC3"
        },
        {
            "bufferView" : 14,
            "componentType" : 5126,
            "count" : 10057,
            "type" : "VEC2"
        },
        {
            "bufferView" : 15,
            "componentType" : 5123,
            "count" : 16104,
            "type" : "SCALAR"
        },
        {
            "bufferView" : 16,
            "componentType" : 5126,
            "count" : 319,
            "max" : [
                0.3508591949939728,
                0.5002239942550659,
                0.049766890704631805
            ],
            "min" : [
                0.21124587953090668,
                0.016846973448991776,
                -0.049766868352890015
            ],
            "type" : "VEC3"
        },
        {
            "bufferView" : 17,
            "componentType" : 5126,
            "count" : 319,
            "type" : "VEC3"
        },
        {
            "bufferView" : 18,
            "componentType" : 5126,
            "count" : 319,
            "type" : "VEC2"
        },
        {
            "bufferView" : 19,
            "componentType" : 5123,
            "count" : 504,
            "type" : "SCALAR"
        },
        {
            "bufferView" : 20,
            "componentType" : 5126,
            "count" : 590,
            "max" : [
                0.4483356773853302,
                0.2721463143825531,
                0.04976687952876091
            ],
            "min" : [
                0.11348848044872284,
                0.016851162537932396,
                -0.049766868352890015
            ],
            "type" : "VEC3"
        },
        {
            "bufferView" : 21,
            "componentType" : 5126,
            "count" : 590,
            "type" : "VEC3"
        },
        {
            "bufferView" : 22,
            "componentType" : 5126,
            "count" : 590,
            "type" : "VEC2"
        },
        {
            "bufferView" : 23,
            "componentType" : 5123,
            "count" : 1140,
            "type" : "SCALAR"
        },
        {
            "bufferView" : 24,
            "componentType" : 5126,
            "count" : 30286,
            "max" : [
                0.5007429122924805,
                0.4308983087539673,
                0.04976688697934151
            ],
            "min" : [
                0.061069928109645844,
                0.3066911995410919,
                -0.04976685345172882
            ],
            "type" : "VEC3"
        },
        {
            "bufferView" : 25,
            "componentType" : 5126,
            "count" : 30286,
            "type" : "VEC3"
        },
        {
            "bufferView" : 26,
            "componentType" : 5126,
            "count" : 30286,
            "type" : "VEC2"
        },
        {
            "bufferView" : 27,
            "componentType" : 5123,
            "count" : 50520,
            "type" : "SCALAR"
        }
    ],
    "bufferViews" : [
        {
            "buffer" : 0,
            "byteLength" : 37608,
            "byteOffset" : 0
        },
        {
            "buffer" : 0,
            "byteLength" : 37608,
            "byteOffset" : 37608
        },
        {
            "buffer" : 0,
            "byteLength" : 25072,
            "byteOffset" : 75216
        },
        {
            "buffer" : 0,
            "byteLength" : 10656,
            "byteOffset" : 100288
        },
        {
            "buffer" : 0,
            "byteLength" : 206748,
            "byteOffset" : 110944
        },
        {
            "buffer" : 0,
            "byteLength" : 206748,
            "byteOffset" : 317692
        },
        {
            "buffer" : 0,
            "byteLength" : 137832,
            "byteOffset" : 524440
        },
        {
            "buffer" : 0,
            "byteLength" : 57840,
            "byteOffset" : 662272
        },
        {
            "buffer" : 0,
            "byteLength" : 115080,
            "byteOffset" : 720112
        },
        {
            "buffer" : 0,
            "byteLength" : 115080,
            "byteOffset" : 835192
        },
        {
            "buffer" : 0,
            "byteLength" : 76720,
            "byteOffset" : 950272
        },
        {
            "buffer" : 0,
            "byteLength" : 31800,
            "byteOffset" : 1026992
        },
        {
            "buffer" : 0,
            "byteLength" : 120684,
            "byteOffset" : 1058792
        },
        {
            "buffer" : 0,
            "byteLength" : 120684,
            "byteOffset" : 1179476
        },
        {
            "buffer" : 0,
            "byteLength" : 80456,
            "byteOffset" : 1300160
        },
        {
            "buffer" : 0,
            "byteLength" : 32208,
            "byteOffset" : 1380616
        },
        {
            "buffer" : 0,
            "byteLength" : 3828,
            "byteOffset" : 1412824
        },
        {
            "buffer" : 0,
            "byteLength" : 3828,
            "byteOffset" : 1416652
        },
        {
            "buffer" : 0,
            "byteLength" : 2552,
            "byteOffset" : 1420480
        },
        {
            "buffer" : 0,
            "byteLength" : 1008,
            "byteOffset" : 1423032
        },
        {
            "buffer" : 0,
            "byteLength" : 7080,
            "byteOffset" : 1424040
        },
        {
            "buffer" : 0,
            "byteLength" : 7080,
            "byteOffset" : 1431120
        },
        {
            "buffer" : 0,
            "byteLength" : 4720,
            "byteOffset" : 1438200
        },
        {
            "buffer" : 0,
            "byteLength" : 2280,
            "byteOffset" : 1442920
        },
        {
            "buffer" : 0,
            "byteLength" : 363432,
            "byteOffset" : 1445200
        },
        {
            "buffer" : 0,
            "byteLength" : 363432,
            "byteOffset" : 1808632
        },
        {
            "buffer" : 0,
            "byteLength" : 242288,
            "byteOffset" : 2172064
        },
        {
            "buffer" : 0,
            "byteLength" : 101040,
            "byteOffset" : 2414352
        }
    ],
    "buffers" : [
        {
            "byteLength" : 2515392,
            "uri" : "data:application/octet-stream;base64,"
        }
    ]
}
