{
    "asset" : {
        "generator" : "Khronos glTF Blender I/O v1.8.19",
        "version" : "2.0"
    },
    "scene" : 0,
    "scenes" : [
        {
            "name" : "Scene",
            "nodes" : [
                0
            ]
        }
    ],
    "nodes" : [
        {
            "mesh" : 0,
            "name" : "Moon"
        }
    ],
    "materials" : [
        {
            "name" : "Mat",
            "pbrMetallicRoughness" : {
                "baseColorTexture" : {
                    "index" : 0
                },
                "metallicFactor" : 0
            }
        }
    ],
    "meshes" : [
        {
            "name" : "Moon_1",
            "primitives" : [
                {
                    "attributes" : {
                        "POSITION" : 0,
                        "NORMAL" : 1,
                        "TEXCOORD_0" : 2
                    },
                    "indices" : 3,
                    "material" : 0
                }
            ]
        }
    ],
    "textures" : [
        {
            "sampler" : 0,
            "source" : 0
        }
    ],
    "images" : [
        {
            "bufferView" : 4,
            "mimeType" : "image/png",
            "name" : "Image_0"
        }
    ],
    "accessors" : [
        {
            "bufferView" : 0,
            "componentType" : 5126,
            "count" : 19368,
            "max" : [
                0.4033600687980652,
                0.8104618787765503,
                0.4108438193798065
            ],
            "min" : [
                -0.40313756465911865,
                0.006763779558241367,
                -0.41433778405189514
            ],
            "type" : "VEC3"
        },
        {
            "bufferView" : 1,
            "componentType" : 5126,
            "count" : 19368,
            "type" : "VEC3"
        },
        {
            "bufferView" : 2,
            "componentType" : 5126,
            "count" : 19368,
            "type" : "VEC2"
        },
        {
            "bufferView" : 3,
            "componentType" : 5123,
            "count" : 19368,
            "type" : "SCALAR"
        }
    ],
    "bufferViews" : [
        {
            "buffer" : 0,
            "byteLength" : 232416,
            "byteOffset" : 0
        },
        {
            "buffer" : 0,
            "byteLength" : 232416,
            "byteOffset" : 232416
        },
        {
            "buffer" : 0,
            "byteLength" : 154944,
            "byteOffset" : 464832
        },
        {
            "buffer" : 0,
            "byteLength" : 38736,
            "byteOffset" : 619776
        },
        {
            "buffer" : 0,
            "byteLength" : 564,
            "byteOffset" : 658512
        }
    ],
    "samplers" : [
        {
            "magFilter" : 9729,
            "minFilter" : 9987
        }
    ],
    "buffers" : [
        {
            "byteLength" : 659076,
            "uri" : "data:application/octet-stream;base64,"
        }
    ]
}
