{
    "asset" : {
        "generator" : "Khronos glTF Blender I/O v1.8.19",
        "version" : "2.0"
    },
    "scene" : 0,
    "scenes" : [
        {
            "name" : "Scene",
            "nodes" : [
                0
            ]
        }
    ],
    "nodes" : [
        {
            "mesh" : 0,
            "name" : "Luggage_mesh"
        }
    ],
    "materials" : [
        {
            "name" : "Luggage_mat1",
            "pbrMetallicRoughness" : {
                "baseColorTexture" : {
                    "index" : 0
                },
                "metallicFactor" : 0
            }
        }
    ],
    "meshes" : [
        {
            "name" : "Luggage_mesh_1",
            "primitives" : [
                {
                    "attributes" : {
                        "POSITION" : 0,
                        "NORMAL" : 1,
                        "TEXCOORD_0" : 2
                    },
                    "indices" : 3,
                    "material" : 0
                }
            ]
        }
    ],
    "textures" : [
        {
            "sampler" : 0,
            "source" : 0
        }
    ],
    "images" : [
        {
            "bufferView" : 4,
            "mimeType" : "image/png",
            "name" : "Image_0"
        }
    ],
    "accessors" : [
        {
            "bufferView" : 0,
            "componentType" : 5126,
            "count" : 1752,
            "max" : [
                0.1468145251274109,
                0.6190539598464966,
                0.15583495795726776
            ],
            "min" : [
                -0.1468145251274109,
                0.00015411566710099578,
                -0.07338903844356537
            ],
            "type" : "VEC3"
        },
        {
            "bufferView" : 1,
            "componentType" : 5126,
            "count" : 1752,
            "type" : "VEC3"
        },
        {
            "bufferView" : 2,
            "componentType" : 5126,
            "count" : 1752,
            "type" : "VEC2"
        },
        {
            "bufferView" : 3,
            "componentType" : 5123,
            "count" : 2112,
            "type" : "SCALAR"
        }
    ],
    "bufferViews" : [
        {
            "buffer" : 0,
            "byteLength" : 21024,
            "byteOffset" : 0
        },
        {
            "buffer" : 0,
            "byteLength" : 21024,
            "byteOffset" : 21024
        },
        {
            "buffer" : 0,
            "byteLength" : 14016,
            "byteOffset" : 42048
        },
        {
            "buffer" : 0,
            "byteLength" : 4224,
            "byteOffset" : 56064
        },
        {
            "buffer" : 0,
            "byteLength" : 1322003,
            "byteOffset" : 60288
        }
    ],
    "samplers" : [
        {
            "magFilter" : 9729,
            "minFilter" : 9987
        }
    ],
    "buffers" : [
        {
            "byteLength" : 1382292,
            "uri" : "data:application/octet-stream;base64,"
        }
    ]
}
