{
    "asset" : {
        "generator" : "Khronos glTF Blender I/O v1.8.19",
        "version" : "2.0"
    },
    "scene" : 0,
    "scenes" : [
        {
            "name" : "Scene",
            "nodes" : [
                0
            ]
        }
    ],
    "nodes" : [
        {
            "mesh" : 0,
            "name" : "Node"
        }
    ],
    "materials" : [
        {
            "name" : "mat8.002",
            "pbrMetallicRoughness" : {
                "baseColorFactor" : [
                    0.9100000262260437,
                    0.05000000074505806,
                    0.029999999329447746,
                    1
                ],
                "metallicFactor" : 0
            }
        },
        {
            "name" : "mat21.004",
            "pbrMetallicRoughness" : {
                "metallicFactor" : 0
            }
        },
        {
            "name" : "mat14.002",
            "pbrMetallicRoughness" : {
                "baseColorFactor" : [
                    1,
                    0.09000000357627869,
                    0.009999999776482582,
                    1
                ],
                "metallicFactor" : 0
            }
        },
        {
            "name" : "mat12",
            "pbrMetallicRoughness" : {
                "baseColorFactor" : [
                    1,
                    0.8299999833106995,
                    0.03999999910593033,
                    1
                ],
                "metallicFactor" : 0
            }
        },
        {
            "name" : "mat16.003",
            "pbrMetallicRoughness" : {
                "baseColorFactor" : [
                    0.1899999976158142,
                    0.2800000011920929,
                    0.3400000035762787,
                    1
                ],
                "metallicFactor" : 0
            }
        },
        {
            "name" : "mat15.001",
            "pbrMetallicRoughness" : {
                "baseColorFactor" : [
                    0.6299999952316284,
                    0.699999988079071,
                    0.7200000286102295,
                    1
                ],
                "metallicFactor" : 0
            }
        },
        {
            "name" : "mat17.003",
            "pbrMetallicRoughness" : {
                "baseColorFactor" : [
                    0.05999999865889549,
                    0.10000000149011612,
                    0.12999999523162842,
                    1
                ],
                "metallicFactor" : 0
            }
        },
        {
            "name" : "mat23.004",
            "pbrMetallicRoughness" : {
                "baseColorFactor" : [
                    0.009999999776482582,
                    0.009999999776482582,
                    0.009999999776482582,
                    1
                ],
                "metallicFactor" : 0
            }
        }
    ],
    "meshes" : [
        {
            "name" : "Node-Mesh.001",
            "primitives" : [
                {
                    "attributes" : {
                        "POSITION" : 0,
                        "NORMAL" : 1
                    },
                    "indices" : 2,
                    "material" : 0
                },
                {
                    "attributes" : {
                        "POSITION" : 3,
                        "NORMAL" : 4
                    },
                    "indices" : 5,
                    "material" : 1
                },
                {
                    "attributes" : {
                        "POSITION" : 6,
                        "NORMAL" : 7
                    },
                    "indices" : 8,
                    "material" : 2
                },
                {
                    "attributes" : {
                        "POSITION" : 9,
                        "NORMAL" : 10
                    },
                    "indices" : 11,
                    "material" : 3
                },
                {
                    "attributes" : {
                        "POSITION" : 12,
                        "NORMAL" : 13
                    },
                    "indices" : 14,
                    "material" : 4
                },
                {
                    "attributes" : {
                        "POSITION" : 15,
                        "NORMAL" : 16
                    },
                    "indices" : 17,
                    "material" : 5
                },
                {
                    "attributes" : {
                        "POSITION" : 18,
                        "NORMAL" : 19
                    },
                    "indices" : 20,
                    "material" : 6
                },
                {
                    "attributes" : {
                        "POSITION" : 21,
                        "NORMAL" : 22
                    },
                    "indices" : 23,
                    "material" : 7
                }
            ]
        }
    ],
    "accessors" : [
        {
            "bufferView" : 0,
            "componentType" : 5126,
            "count" : 972,
            "max" : [
                0.11040979623794556,
                -0.01013864204287529,
                -0.07194995880126953
            ],
            "min" : [
                0.01500118151307106,
                -0.0133209815248847,
                -0.20141535997390747
            ],
            "type" : "VEC3"
        },
        {
            "bufferView" : 1,
            "componentType" : 5126,
            "count" : 972,
            "type" : "VEC3"
        },
        {
            "bufferView" : 2,
            "componentType" : 5123,
            "count" : 972,
            "type" : "SCALAR"
        },
        {
            "bufferView" : 3,
            "componentType" : 5126,
            "count" : 804,
            "max" : [
                0.26057004928588867,
                0.20662567019462585,
                0.32298168540000916
            ],
            "min" : [
                -0.18105316162109375,
                -0.012174169532954693,
                -0.28117668628692627
            ],
            "type" : "VEC3"
        },
        {
            "bufferView" : 4,
            "componentType" : 5126,
            "count" : 804,
            "type" : "VEC3"
        },
        {
            "bufferView" : 5,
            "componentType" : 5123,
            "count" : 804,
            "type" : "SCALAR"
        },
        {
            "bufferView" : 6,
            "componentType" : 5126,
            "count" : 5358,
            "max" : [
                0.3163401782512665,
                0.2066257745027542,
                0.37874680757522583
            ],
            "min" : [
                -0.23681199550628662,
                -0.012507380917668343,
                -0.3369387090206146
            ],
            "type" : "VEC3"
        },
        {
            "bufferView" : 7,
            "componentType" : 5126,
            "count" : 5358,
            "type" : "VEC3"
        },
        {
            "bufferView" : 8,
            "componentType" : 5123,
            "count" : 5424,
            "type" : "SCALAR"
        },
        {
            "bufferView" : 9,
            "componentType" : 5126,
            "count" : 673,
            "max" : [
                0.2696758806705475,
                0.20363783836364746,
                0.3347310423851013
            ],
            "min" : [
                -0.23591427505016327,
                -0.010819602757692337,
                -0.2944222390651703
            ],
            "type" : "VEC3"
        },
        {
            "bufferView" : 10,
            "componentType" : 5126,
            "count" : 673,
            "type" : "VEC3"
        },
        {
            "bufferView" : 11,
            "componentType" : 5123,
            "count" : 693,
            "type" : "SCALAR"
        },
        {
            "bufferView" : 12,
            "componentType" : 5126,
            "count" : 1620,
            "max" : [
                0.018711503595113754,
                -0.0005285426159389317,
                0.2318664938211441
            ],
            "min" : [
                -0.20945106446743011,
                -0.010963350534439087,
                -0.0964503362774849
            ],
            "type" : "VEC3"
        },
        {
            "bufferView" : 13,
            "componentType" : 5126,
            "count" : 1620,
            "type" : "VEC3"
        },
        {
            "bufferView" : 14,
            "componentType" : 5123,
            "count" : 1638,
            "type" : "SCALAR"
        },
        {
            "bufferView" : 15,
            "componentType" : 5126,
            "count" : 899,
            "max" : [
                0.01963874325156212,
                -0.0018052587984129786,
                0.23130299150943756
            ],
            "min" : [
                -0.21838708221912384,
                -0.011024116538465023,
                -0.10439256578683853
            ],
            "type" : "VEC3"
        },
        {
            "bufferView" : 16,
            "componentType" : 5126,
            "count" : 899,
            "type" : "VEC3"
        },
        {
            "bufferView" : 17,
            "componentType" : 5123,
            "count" : 903,
            "type" : "SCALAR"
        },
        {
            "bufferView" : 18,
            "componentType" : 5126,
            "count" : 737,
            "max" : [
                0.3190350830554962,
                -0.003779323073104024,
                0.39491039514541626
            ],
            "min" : [
                -0.24938255548477173,
                -0.02057546377182007,
                -0.35579609870910645
            ],
            "type" : "VEC3"
        },
        {
            "bufferView" : 19,
            "componentType" : 5126,
            "count" : 737,
            "type" : "VEC3"
        },
        {
            "bufferView" : 20,
            "componentType" : 5123,
            "count" : 750,
            "type" : "SCALAR"
        },
        {
            "bufferView" : 21,
            "componentType" : 5126,
            "count" : 1104,
            "max" : [
                0.03225094452500343,
                0.047118909657001495,
                0.2781367599964142
            ],
            "min" : [
                -0.23313236236572266,
                0.001893885200843215,
                -0.04367268458008766
            ],
            "type" : "VEC3"
        },
        {
            "bufferView" : 22,
            "componentType" : 5126,
            "count" : 1104,
            "type" : "VEC3"
        },
        {
            "bufferView" : 23,
            "componentType" : 5123,
            "count" : 1104,
            "type" : "SCALAR"
        }
    ],
    "bufferViews" : [
        {
            "buffer" : 0,
            "byteLength" : 11664,
            "byteOffset" : 0
        },
        {
            "buffer" : 0,
            "byteLength" : 11664,
            "byteOffset" : 11664
        },
        {
            "buffer" : 0,
            "byteLength" : 1944,
            "byteOffset" : 23328
        },
        {
            "buffer" : 0,
            "byteLength" : 9648,
            "byteOffset" : 25272
        },
        {
            "buffer" : 0,
            "byteLength" : 9648,
            "byteOffset" : 34920
        },
        {
            "buffer" : 0,
            "byteLength" : 1608,
            "byteOffset" : 44568
        },
        {
            "buffer" : 0,
            "byteLength" : 64296,
            "byteOffset" : 46176
        },
        {
            "buffer" : 0,
            "byteLength" : 64296,
            "byteOffset" : 110472
        },
        {
            "buffer" : 0,
            "byteLength" : 10848,
            "byteOffset" : 174768
        },
        {
            "buffer" : 0,
            "byteLength" : 8076,
            "byteOffset" : 185616
        },
        {
            "buffer" : 0,
            "byteLength" : 8076,
            "byteOffset" : 193692
        },
        {
            "buffer" : 0,
            "byteLength" : 1386,
            "byteOffset" : 201768
        },
        {
            "buffer" : 0,
            "byteLength" : 19440,
            "byteOffset" : 203156
        },
        {
            "buffer" : 0,
            "byteLength" : 19440,
            "byteOffset" : 222596
        },
        {
            "buffer" : 0,
            "byteLength" : 3276,
            "byteOffset" : 242036
        },
        {
            "buffer" : 0,
            "byteLength" : 10788,
            "byteOffset" : 245312
        },
        {
            "buffer" : 0,
            "byteLength" : 10788,
            "byteOffset" : 256100
        },
        {
            "buffer" : 0,
            "byteLength" : 1806,
            "byteOffset" : 266888
        },
        {
            "buffer" : 0,
            "byteLength" : 8844,
            "byteOffset" : 268696
        },
        {
            "buffer" : 0,
            "byteLength" : 8844,
            "byteOffset" : 277540
        },
        {
            "buffer" : 0,
            "byteLength" : 1500,
            "byteOffset" : 286384
        },
        {
            "buffer" : 0,
            "byteLength" : 13248,
            "byteOffset" : 287884
        },
        {
            "buffer" : 0,
            "byteLength" : 13248,
            "byteOffset" : 301132
        },
        {
            "buffer" : 0,
            "byteLength" : 2208,
            "byteOffset" : 314380
        }
    ],
    "buffers" : [
        {
            "byteLength" : 316588,
            "uri" : "data:application/octet-stream;base64,"
        }
    ]
}
