{
    "asset" : {
        "generator" : "Khronos glTF Blender I/O v1.8.19",
        "version" : "2.0"
    },
    "scene" : 0,
    "scenes" : [
        {
            "name" : "Scene",
            "nodes" : [
                3,
                4
            ]
        }
    ],
    "nodes" : [
        {
            "name" : "temple.003_0",
            "scale" : [
                0.5,
                0.5,
                0.5
            ]
        },
        {
            "children" : [
                0
            ],
            "name" : "GLTF_SceneRootNode",
            "rotation" : [
                0.7071068286895752,
                0,
                0,
                0.7071068286895752
            ]
        },
        {
            "children" : [
                1
            ],
            "name" : "root"
        },
        {
            "children" : [
                2
            ],
            "name" : "Sketchfab_model",
            "rotation" : [
                -0.7071068286895752,
                0,
                0,
                0.7071068286895752
            ],
            "scale" : [
                0.2539963126182556,
                0.2539963126182556,
                0.2539963126182556
            ]
        },
        {
            "mesh" : 0,
            "name" : "Object_4"
        }
    ],
    "materials" : [
        {
            "doubleSided" : true,
            "name" : "temple",
            "pbrMetallicRoughness" : {
                "baseColorTexture" : {
                    "index" : 0
                },
                "metallicRoughnessTexture" : {
                    "index" : 1
                }
            }
        }
    ],
    "meshes" : [
        {
            "name" : "Object_0.001",
            "primitives" : [
                {
                    "attributes" : {
                        "POSITION" : 0,
                        "NORMAL" : 1,
                        "TEXCOORD_0" : 2
                    },
                    "indices" : 3,
                    "material" : 0
                }
            ]
        }
    ],
    "textures" : [
        {
            "sampler" : 0,
            "source" : 0
        },
        {
            "sampler" : 0,
            "source" : 1
        }
    ],
    "images" : [
        {
            "bufferView" : 4,
            "mimeType" : "image/jpeg",
            "name" : "temple_baseColor"
        },
        {
            "bufferView" : 5,
            "mimeType" : "image/png",
            "name" : "temple_metallicRoughness"
        }
    ],
    "accessors" : [
        {
            "bufferView" : 0,
            "componentType" : 5126,
            "count" : 1127,
            "max" : [
                0.12707655131816864,
                0.21695473790168762,
                0.19491459429264069
            ],
            "min" : [
                -0.12707637250423431,
                -0.0033110829535871744,
                -0.1831378936767578
            ],
            "type" : "VEC3"
        },
        {
            "bufferView" : 1,
            "componentType" : 5126,
            "count" : 1127,
            "type" : "VEC3"
        },
        {
            "bufferView" : 2,
            "componentType" : 5126,
            "count" : 1127,
            "type" : "VEC2"
        },
        {
            "bufferView" : 3,
            "componentType" : 5123,
            "count" : 2244,
            "type" : "SCALAR"
        }
    ],
    "bufferViews" : [
        {
            "buffer" : 0,
            "byteLength" : 13524,
            "byteOffset" : 0
        },
        {
            "buffer" : 0,
            "byteLength" : 13524,
            "byteOffset" : 13524
        },
        {
            "buffer" : 0,
            "byteLength" : 9016,
            "byteOffset" : 27048
        },
        {
            "buffer" : 0,
            "byteLength" : 4488,
            "byteOffset" : 36064
        },
        {
            "buffer" : 0,
            "byteLength" : 537147,
            "byteOffset" : 40552
        },
        {
            "buffer" : 0,
            "byteLength" : 593187,
            "byteOffset" : 577700
        }
    ],
    "samplers" : [
        {
            "magFilter" : 9729,
            "minFilter" : 9987
        }
    ],
    "buffers" : [
        {
            "byteLength" : 1170888,
            "uri" : "data:application/octet-stream;base64,"
        }
    ]
}
