{
    "asset" : {
        "generator" : "Khronos glTF Blender I/O v1.6.16",
        "version" : "2.0"
    },
    "scene" : 0,
    "scenes" : [
        {
            "name" : "Scene",
            "nodes" : [
                0
            ]
        }
    ],
    "nodes" : [
        {
            "mesh" : 0,
            "name" : "Body",
            "rotation" : [
                -0.7071068286895752,
                0,
                0,
                0.7071068286895752
            ],
            "scale" : [
                35.67036819458008,
                44.32526397705078,
                23.33831024169922
            ],
            "translation" : [
                0,
                2.5532045364379883,
                0
            ]
        }
    ],
    "materials" : [
        {
            "doubleSided" : true,
            "name" : "Bricks orange rough",
            "normalTexture" : {
                "index" : 0
            },
            "pbrMetallicRoughness" : {
                "baseColorTexture" : {
                    "index" : 1
                },
                "metallicFactor" : 0,
                "metallicRoughnessTexture" : {
                    "index" : 2
                }
            }
        }
    ],
    "meshes" : [
        {
            "name" : "Body",
            "primitives" : [
                {
                    "attributes" : {
                        "POSITION" : 0,
                        "NORMAL" : 1,
                        "TEXCOORD_0" : 2
                    },
                    "indices" : 3,
                    "material" : 0
                }
            ]
        }
    ],
    "textures" : [
        {
            "sampler" : 0,
            "source" : 0
        },
        {
            "sampler" : 0,
            "source" : 1
        },
        {
            "sampler" : 0,
            "source" : 2
        }
    ],
    "images" : [
        {
            "bufferView" : 4,
            "mimeType" : "image/jpeg",
            "name" : "bricks_orange_rough_Normal"
        },
        {
            "bufferView" : 5,
            "mimeType" : "image/jpeg",
            "name" : "bricks_orange_rough_Ambient Occlusion"
        },
        {
            "bufferView" : 6,
            "mimeType" : "image/png",
            "name" : "bricks_orange_rough_Roughness"
        }
    ],
    "accessors" : [
        {
            "bufferView" : 0,
            "componentType" : 5126,
            "count" : 5656,
            "max" : [
                0.02268092893064022,
                0.01295632217079401,
                0.0059954822063446045
            ],
            "min" : [
                -0.02268093079328537,
                -0.007018820848315954,
                -0.11092003434896469
            ],
            "type" : "VEC3"
        },
        {
            "bufferView" : 1,
            "componentType" : 5126,
            "count" : 5656,
            "type" : "VEC3"
        },
        {
            "bufferView" : 2,
            "componentType" : 5126,
            "count" : 5656,
            "type" : "VEC2"
        },
        {
            "bufferView" : 3,
            "componentType" : 5123,
            "count" : 7722,
            "type" : "SCALAR"
        }
    ],
    "bufferViews" : [
        {
            "buffer" : 0,
            "byteLength" : 67872,
            "byteOffset" : 0
        },
        {
            "buffer" : 0,
            "byteLength" : 67872,
            "byteOffset" : 67872
        },
        {
            "buffer" : 0,
            "byteLength" : 45248,
            "byteOffset" : 135744
        },
        {
            "buffer" : 0,
            "byteLength" : 15444,
            "byteOffset" : 180992
        },
        {
            "buffer" : 0,
            "byteLength" : 411510,
            "byteOffset" : 196436
        },
        {
            "buffer" : 0,
            "byteLength" : 350312,
            "byteOffset" : 607948
        },
        {
            "buffer" : 0,
            "byteLength" : 1072794,
            "byteOffset" : 958260
        }
    ],
    "samplers" : [
        {
            "magFilter" : 9729,
            "minFilter" : 9987
        }
    ],
    "buffers" : [
        {
            "byteLength" : 2031056,
            "uri" : "data:application/octet-stream;base64,"
        }
    ]
}
