{
    "asset" : {
        "generator" : "Khronos glTF Blender I/O v1.8.19",
        "version" : "2.0"
    },
    "scene" : 0,
    "scenes" : [
        {
            "name" : "Scene",
            "nodes" : [
                0
            ]
        }
    ],
    "nodes" : [
        {
            "mesh" : 0,
            "name" : "group1016466672"
        }
    ],
    "materials" : [
        {
            "name" : "mat21.001",
            "pbrMetallicRoughness" : {
                "metallicFactor" : 0
            }
        },
        {
            "alphaMode" : "BLEND",
            "doubleSided" : true,
            "name" : "mat25",
            "pbrMetallicRoughness" : {
                "baseColorFactor" : [
                    0.8299999833106995,
                    0.8899999856948853,
                    0.8700000047683716,
                    0.4000000059604645
                ],
                "metallicFactor" : 0,
                "roughnessFactor" : 0.699999988079071
            }
        }
    ],
    "meshes" : [
        {
            "name" : "mesh1016466672",
            "primitives" : [
                {
                    "attributes" : {
                        "POSITION" : 0,
                        "NORMAL" : 1,
                        "TEXCOORD_0" : 2
                    },
                    "indices" : 3,
                    "material" : 0
                },
                {
                    "attributes" : {
                        "POSITION" : 4,
                        "NORMAL" : 5,
                        "TEXCOORD_0" : 6
                    },
                    "indices" : 7,
                    "material" : 1
                }
            ]
        }
    ],
    "accessors" : [
        {
            "bufferView" : 0,
            "componentType" : 5126,
            "count" : 14844,
            "max" : [
                0.9199820160865784,
                0.9524527788162231,
                0.8661214709281921
            ],
            "min" : [
                -1.1944973468780518,
                -0.26743844151496887,
                -0.8417271375656128
            ],
            "type" : "VEC3"
        },
        {
            "bufferView" : 1,
            "componentType" : 5126,
            "count" : 14844,
            "type" : "VEC3"
        },
        {
            "bufferView" : 2,
            "componentType" : 5126,
            "count" : 14844,
            "type" : "VEC2"
        },
        {
            "bufferView" : 3,
            "componentType" : 5123,
            "count" : 15504,
            "type" : "SCALAR"
        },
        {
            "bufferView" : 4,
            "componentType" : 5126,
            "count" : 120,
            "max" : [
                0.025394372642040253,
                -0.10478631407022476,
                0.1341865062713623
            ],
            "min" : [
                -0.24569255113601685,
                -0.21322111785411835,
                -0.13690024614334106
            ],
            "type" : "VEC3"
        },
        {
            "bufferView" : 5,
            "componentType" : 5126,
            "count" : 120,
            "type" : "VEC3"
        },
        {
            "bufferView" : 6,
            "componentType" : 5126,
            "count" : 120,
            "type" : "VEC2"
        },
        {
            "bufferView" : 7,
            "componentType" : 5123,
            "count" : 132,
            "type" : "SCALAR"
        }
    ],
    "bufferViews" : [
        {
            "buffer" : 0,
            "byteLength" : 178128,
            "byteOffset" : 0
        },
        {
            "buffer" : 0,
            "byteLength" : 178128,
            "byteOffset" : 178128
        },
        {
            "buffer" : 0,
            "byteLength" : 118752,
            "byteOffset" : 356256
        },
        {
            "buffer" : 0,
            "byteLength" : 31008,
            "byteOffset" : 475008
        },
        {
            "buffer" : 0,
            "byteLength" : 1440,
            "byteOffset" : 506016
        },
        {
            "buffer" : 0,
            "byteLength" : 1440,
            "byteOffset" : 507456
        },
        {
            "buffer" : 0,
            "byteLength" : 960,
            "byteOffset" : 508896
        },
        {
            "buffer" : 0,
            "byteLength" : 264,
            "byteOffset" : 509856
        }
    ],
    "buffers" : [
        {
            "byteLength" : 510120,
            "uri" : "data:application/octet-stream;base64,"
        }
    ]
}
