{
    "asset" : {
        "generator" : "Khronos glTF Blender I/O v1.8.19",
        "version" : "2.0"
    },
    "scene" : 0,
    "scenes" : [
        {
            "name" : "Scene",
            "nodes" : [
                0
            ]
        }
    ],
    "nodes" : [
        {
            "mesh" : 0,
            "name" : "group1016466672"
        }
    ],
    "materials" : [
        {
            "name" : "mat21.001",
            "pbrMetallicRoughness" : {
                "metallicFactor" : 0
            }
        },
        {
            "alphaMode" : "BLEND",
            "doubleSided" : true,
            "name" : "mat25",
            "pbrMetallicRoughness" : {
                "baseColorFactor" : [
                    0.8299999833106995,
                    0.8899999856948853,
                    0.8700000047683716,
                    0.4000000059604645
                ],
                "metallicFactor" : 0,
                "roughnessFactor" : 0.699999988079071
            }
        }
    ],
    "meshes" : [
        {
            "name" : "mesh1016466672",
            "primitives" : [
                {
                    "attributes" : {
                        "POSITION" : 0,
                        "NORMAL" : 1,
                        "TEXCOORD_0" : 2
                    },
                    "indices" : 3,
                    "material" : 0
                },
                {
                    "attributes" : {
                        "POSITION" : 4,
                        "NORMAL" : 5,
                        "TEXCOORD_0" : 6
                    },
                    "indices" : 7,
                    "material" : 1
                }
            ]
        }
    ],
    "accessors" : [
        {
            "bufferView" : 0,
            "componentType" : 5126,
            "count" : 15195,
            "max" : [
                8.481931686401367,
                8.781301498413086,
                7.985355377197266
            ],
            "min" : [
                -11.012872695922852,
                -2.4656944274902344,
                -7.7604475021362305
            ],
            "type" : "VEC3"
        },
        {
            "bufferView" : 1,
            "componentType" : 5126,
            "count" : 15195,
            "type" : "VEC3"
        },
        {
            "bufferView" : 2,
            "componentType" : 5126,
            "count" : 15195,
            "type" : "VEC2"
        },
        {
            "bufferView" : 3,
            "componentType" : 5123,
            "count" : 15504,
            "type" : "SCALAR"
        },
        {
            "bufferView" : 4,
            "componentType" : 5126,
            "count" : 126,
            "max" : [
                0.23412775993347168,
                -0.9660953879356384,
                1.2371554374694824
            ],
            "min" : [
                -2.265204668045044,
                -1.9658286571502686,
                -1.2621753215789795
            ],
            "type" : "VEC3"
        },
        {
            "bufferView" : 5,
            "componentType" : 5126,
            "count" : 126,
            "type" : "VEC3"
        },
        {
            "bufferView" : 6,
            "componentType" : 5126,
            "count" : 126,
            "type" : "VEC2"
        },
        {
            "bufferView" : 7,
            "componentType" : 5123,
            "count" : 132,
            "type" : "SCALAR"
        }
    ],
    "bufferViews" : [
        {
            "buffer" : 0,
            "byteLength" : 182340,
            "byteOffset" : 0
        },
        {
            "buffer" : 0,
            "byteLength" : 182340,
            "byteOffset" : 182340
        },
        {
            "buffer" : 0,
            "byteLength" : 121560,
            "byteOffset" : 364680
        },
        {
            "buffer" : 0,
            "byteLength" : 31008,
            "byteOffset" : 486240
        },
        {
            "buffer" : 0,
            "byteLength" : 1512,
            "byteOffset" : 517248
        },
        {
            "buffer" : 0,
            "byteLength" : 1512,
            "byteOffset" : 518760
        },
        {
            "buffer" : 0,
            "byteLength" : 1008,
            "byteOffset" : 520272
        },
        {
            "buffer" : 0,
            "byteLength" : 264,
            "byteOffset" : 521280
        }
    ],
    "buffers" : [
        {
            "byteLength" : 521544,
            "uri" : "data:application/octet-stream;base64,"
        }
    ]
}
