{
    "asset" : {
        "generator" : "Khronos glTF Blender I/O v1.8.19",
        "version" : "2.0"
    },
    "scene" : 0,
    "scenes" : [
        {
            "name" : "Scene",
            "nodes" : [
                0
            ]
        }
    ],
    "nodes" : [
        {
            "mesh" : 0,
            "name" : "group1756419456"
        }
    ],
    "materials" : [
        {
            "name" : "mat20",
            "pbrMetallicRoughness" : {
                "baseColorFactor" : [
                    0.1899999976158142,
                    0.09000000357627869,
                    0.05999999865889549,
                    1
                ],
                "metallicFactor" : 0
            }
        },
        {
            "name" : "mat21",
            "pbrMetallicRoughness" : {
                "metallicFactor" : 0
            }
        },
        {
            "name" : "mat15",
            "pbrMetallicRoughness" : {
                "baseColorFactor" : [
                    0.6299999952316284,
                    0.699999988079071,
                    0.7200000286102295,
                    1
                ],
                "metallicFactor" : 0
            }
        },
        {
            "name" : "mat14",
            "pbrMetallicRoughness" : {
                "baseColorFactor" : [
                    1,
                    0.09000000357627869,
                    0.009999999776482582,
                    1
                ],
                "metallicFactor" : 0
            }
        },
        {
            "name" : "mat5",
            "pbrMetallicRoughness" : {
                "baseColorFactor" : [
                    0,
                    0.3400000035762787,
                    0.7900000214576721,
                    1
                ],
                "metallicFactor" : 0
            }
        }
    ],
    "meshes" : [
        {
            "name" : "mesh1756419456",
            "primitives" : [
                {
                    "attributes" : {
                        "POSITION" : 0,
                        "NORMAL" : 1,
                        "TEXCOORD_0" : 2
                    },
                    "indices" : 3,
                    "material" : 0
                },
                {
                    "attributes" : {
                        "POSITION" : 4,
                        "NORMAL" : 5,
                        "TEXCOORD_0" : 6
                    },
                    "indices" : 7,
                    "material" : 1
                },
                {
                    "attributes" : {
                        "POSITION" : 8,
                        "NORMAL" : 9,
                        "TEXCOORD_0" : 10
                    },
                    "indices" : 11,
                    "material" : 2
                },
                {
                    "attributes" : {
                        "POSITION" : 12,
                        "NORMAL" : 13,
                        "TEXCOORD_0" : 14
                    },
                    "indices" : 15,
                    "material" : 3
                },
                {
                    "attributes" : {
                        "POSITION" : 16,
                        "NORMAL" : 17,
                        "TEXCOORD_0" : 18
                    },
                    "indices" : 19,
                    "material" : 4
                }
            ]
        }
    ],
    "accessors" : [
        {
            "bufferView" : 0,
            "componentType" : 5126,
            "count" : 4470,
            "max" : [
                1.1113495826721191,
                1.4705473184585571,
                0.17677749693393707
            ],
            "min" : [
                -0.7489320039749146,
                -0.12014269828796387,
                -0.2779010236263275
            ],
            "type" : "VEC3"
        },
        {
            "bufferView" : 1,
            "componentType" : 5126,
            "count" : 4470,
            "type" : "VEC3"
        },
        {
            "bufferView" : 2,
            "componentType" : 5126,
            "count" : 4470,
            "type" : "VEC2"
        },
        {
            "bufferView" : 3,
            "componentType" : 5123,
            "count" : 4968,
            "type" : "SCALAR"
        },
        {
            "bufferView" : 4,
            "componentType" : 5126,
            "count" : 16680,
            "max" : [
                1.0990421772003174,
                1.7082033157348633,
                0.6668815016746521
            ],
            "min" : [
                -1.2177376747131348,
                0.5913536548614502,
                -0.0560649074614048
            ],
            "type" : "VEC3"
        },
        {
            "bufferView" : 5,
            "componentType" : 5126,
            "count" : 16680,
            "type" : "VEC3"
        },
        {
            "bufferView" : 6,
            "componentType" : 5126,
            "count" : 16680,
            "type" : "VEC2"
        },
        {
            "bufferView" : 7,
            "componentType" : 5123,
            "count" : 16704,
            "type" : "SCALAR"
        },
        {
            "bufferView" : 8,
            "componentType" : 5126,
            "count" : 382,
            "max" : [
                0.506924569606781,
                1.0279194116592407,
                0.17571109533309937
            ],
            "min" : [
                -0.3451533317565918,
                0.24801088869571686,
                -0.33834215998649597
            ],
            "type" : "VEC3"
        },
        {
            "bufferView" : 9,
            "componentType" : 5126,
            "count" : 382,
            "type" : "VEC3"
        },
        {
            "bufferView" : 10,
            "componentType" : 5126,
            "count" : 382,
            "type" : "VEC2"
        },
        {
            "bufferView" : 11,
            "componentType" : 5123,
            "count" : 432,
            "type" : "SCALAR"
        },
        {
            "bufferView" : 12,
            "componentType" : 5126,
            "count" : 180,
            "max" : [
                0.31593814492225647,
                1.4826868772506714,
                -0.007114059757441282
            ],
            "min" : [
                -0.5809279680252075,
                1.0685352087020874,
                -0.08040731400251389
            ],
            "type" : "VEC3"
        },
        {
            "bufferView" : 13,
            "componentType" : 5126,
            "count" : 180,
            "type" : "VEC3"
        },
        {
            "bufferView" : 14,
            "componentType" : 5126,
            "count" : 180,
            "type" : "VEC2"
        },
        {
            "bufferView" : 15,
            "componentType" : 5123,
            "count" : 252,
            "type" : "SCALAR"
        },
        {
            "bufferView" : 16,
            "componentType" : 5126,
            "count" : 1050,
            "max" : [
                1.1645445823669434,
                0.4252137839794159,
                0.2645569145679474
            ],
            "min" : [
                -1.134432315826416,
                -0.3797868490219116,
                -0.3965519368648529
            ],
            "type" : "VEC3"
        },
        {
            "bufferView" : 17,
            "componentType" : 5126,
            "count" : 1050,
            "type" : "VEC3"
        },
        {
            "bufferView" : 18,
            "componentType" : 5126,
            "count" : 1050,
            "type" : "VEC2"
        },
        {
            "bufferView" : 19,
            "componentType" : 5123,
            "count" : 1050,
            "type" : "SCALAR"
        }
    ],
    "bufferViews" : [
        {
            "buffer" : 0,
            "byteLength" : 53640,
            "byteOffset" : 0
        },
        {
            "buffer" : 0,
            "byteLength" : 53640,
            "byteOffset" : 53640
        },
        {
            "buffer" : 0,
            "byteLength" : 35760,
            "byteOffset" : 107280
        },
        {
            "buffer" : 0,
            "byteLength" : 9936,
            "byteOffset" : 143040
        },
        {
            "buffer" : 0,
            "byteLength" : 200160,
            "byteOffset" : 152976
        },
        {
            "buffer" : 0,
            "byteLength" : 200160,
            "byteOffset" : 353136
        },
        {
            "buffer" : 0,
            "byteLength" : 133440,
            "byteOffset" : 553296
        },
        {
            "buffer" : 0,
            "byteLength" : 33408,
            "byteOffset" : 686736
        },
        {
            "buffer" : 0,
            "byteLength" : 4584,
            "byteOffset" : 720144
        },
        {
            "buffer" : 0,
            "byteLength" : 4584,
            "byteOffset" : 724728
        },
        {
            "buffer" : 0,
            "byteLength" : 3056,
            "byteOffset" : 729312
        },
        {
            "buffer" : 0,
            "byteLength" : 864,
            "byteOffset" : 732368
        },
        {
            "buffer" : 0,
            "byteLength" : 2160,
            "byteOffset" : 733232
        },
        {
            "buffer" : 0,
            "byteLength" : 2160,
            "byteOffset" : 735392
        },
        {
            "buffer" : 0,
            "byteLength" : 1440,
            "byteOffset" : 737552
        },
        {
            "buffer" : 0,
            "byteLength" : 504,
            "byteOffset" : 738992
        },
        {
            "buffer" : 0,
            "byteLength" : 12600,
            "byteOffset" : 739496
        },
        {
            "buffer" : 0,
            "byteLength" : 12600,
            "byteOffset" : 752096
        },
        {
            "buffer" : 0,
            "byteLength" : 8400,
            "byteOffset" : 764696
        },
        {
            "buffer" : 0,
            "byteLength" : 2100,
            "byteOffset" : 773096
        }
    ],
    "buffers" : [
        {
            "byteLength" : 775196,
            "uri" : "data:application/octet-stream;base64,"
        }
    ]
}
