{
    "asset" : {
        "generator" : "Khronos glTF Blender I/O v1.8.19",
        "version" : "2.0"
    },
    "scene" : 0,
    "scenes" : [
        {
            "name" : "Scene",
            "nodes" : [
                0
            ]
        }
    ],
    "nodes" : [
        {
            "mesh" : 0,
            "name" : "group1756419456"
        }
    ],
    "materials" : [
        {
            "name" : "mat20",
            "pbrMetallicRoughness" : {
                "baseColorFactor" : [
                    0.1899999976158142,
                    0.09000000357627869,
                    0.05999999865889549,
                    1
                ],
                "metallicFactor" : 0
            }
        },
        {
            "name" : "mat21",
            "pbrMetallicRoughness" : {
                "metallicFactor" : 0
            }
        },
        {
            "name" : "mat15",
            "pbrMetallicRoughness" : {
                "baseColorFactor" : [
                    0.6299999952316284,
                    0.699999988079071,
                    0.7200000286102295,
                    1
                ],
                "metallicFactor" : 0
            }
        },
        {
            "name" : "mat14",
            "pbrMetallicRoughness" : {
                "baseColorFactor" : [
                    1,
                    0.09000000357627869,
                    0.009999999776482582,
                    1
                ],
                "metallicFactor" : 0
            }
        },
        {
            "name" : "mat5",
            "pbrMetallicRoughness" : {
                "baseColorFactor" : [
                    0,
                    0.3400000035762787,
                    0.7900000214576721,
                    1
                ],
                "metallicFactor" : 0
            }
        }
    ],
    "meshes" : [
        {
            "name" : "mesh1756419456",
            "primitives" : [
                {
                    "attributes" : {
                        "POSITION" : 0,
                        "NORMAL" : 1,
                        "TEXCOORD_0" : 2
                    },
                    "indices" : 3,
                    "material" : 0
                },
                {
                    "attributes" : {
                        "POSITION" : 4,
                        "NORMAL" : 5,
                        "TEXCOORD_0" : 6
                    },
                    "indices" : 7,
                    "material" : 1
                },
                {
                    "attributes" : {
                        "POSITION" : 8,
                        "NORMAL" : 9,
                        "TEXCOORD_0" : 10
                    },
                    "indices" : 11,
                    "material" : 2
                },
                {
                    "attributes" : {
                        "POSITION" : 12,
                        "NORMAL" : 13,
                        "TEXCOORD_0" : 14
                    },
                    "indices" : 15,
                    "material" : 3
                },
                {
                    "attributes" : {
                        "POSITION" : 16,
                        "NORMAL" : 17,
                        "TEXCOORD_0" : 18
                    },
                    "indices" : 19,
                    "material" : 4
                }
            ]
        }
    ],
    "accessors" : [
        {
            "bufferView" : 0,
            "componentType" : 5126,
            "count" : 4494,
            "max" : [
                6.714441776275635,
                8.884607315063477,
                1.0680367946624756
            ],
            "min" : [
                -4.524823188781738,
                -0.7258662581443787,
                -1.67899489402771
            ],
            "type" : "VEC3"
        },
        {
            "bufferView" : 1,
            "componentType" : 5126,
            "count" : 4494,
            "type" : "VEC3"
        },
        {
            "bufferView" : 2,
            "componentType" : 5126,
            "count" : 4494,
            "type" : "VEC2"
        },
        {
            "bufferView" : 3,
            "componentType" : 5123,
            "count" : 4968,
            "type" : "SCALAR"
        },
        {
            "bufferView" : 4,
            "componentType" : 5126,
            "count" : 16704,
            "max" : [
                6.640084266662598,
                10.320453643798828,
                4.0290985107421875
            ],
            "min" : [
                -7.35720682144165,
                3.572781801223755,
                -0.3387273848056793
            ],
            "type" : "VEC3"
        },
        {
            "bufferView" : 5,
            "componentType" : 5126,
            "count" : 16704,
            "type" : "VEC3"
        },
        {
            "bufferView" : 6,
            "componentType" : 5126,
            "count" : 16704,
            "type" : "VEC2"
        },
        {
            "bufferView" : 7,
            "componentType" : 5123,
            "count" : 16704,
            "type" : "SCALAR"
        },
        {
            "bufferView" : 8,
            "componentType" : 5126,
            "count" : 382,
            "max" : [
                3.0626866817474365,
                6.210381507873535,
                1.0615938901901245
            ],
            "min" : [
                -2.085313081741333,
                1.4984076023101807,
                -2.0441620349884033
            ],
            "type" : "VEC3"
        },
        {
            "bufferView" : 9,
            "componentType" : 5126,
            "count" : 382,
            "type" : "VEC3"
        },
        {
            "bufferView" : 10,
            "componentType" : 5126,
            "count" : 382,
            "type" : "VEC2"
        },
        {
            "bufferView" : 11,
            "componentType" : 5123,
            "count" : 432,
            "type" : "SCALAR"
        },
        {
            "bufferView" : 12,
            "componentType" : 5126,
            "count" : 180,
            "max" : [
                1.9088037014007568,
                8.957950592041016,
                -0.042981021106243134
            ],
            "min" : [
                -3.5097930431365967,
                6.455770015716553,
                -0.4857969284057617
            ],
            "type" : "VEC3"
        },
        {
            "bufferView" : 13,
            "componentType" : 5126,
            "count" : 180,
            "type" : "VEC3"
        },
        {
            "bufferView" : 14,
            "componentType" : 5126,
            "count" : 180,
            "type" : "VEC2"
        },
        {
            "bufferView" : 15,
            "componentType" : 5123,
            "count" : 252,
            "type" : "SCALAR"
        },
        {
            "bufferView" : 16,
            "componentType" : 5126,
            "count" : 1050,
            "max" : [
                7.035830020904541,
                2.569014549255371,
                1.5983737707138062
            ],
            "min" : [
                -6.853900909423828,
                -2.294558525085449,
                -2.395848274230957
            ],
            "type" : "VEC3"
        },
        {
            "bufferView" : 17,
            "componentType" : 5126,
            "count" : 1050,
            "type" : "VEC3"
        },
        {
            "bufferView" : 18,
            "componentType" : 5126,
            "count" : 1050,
            "type" : "VEC2"
        },
        {
            "bufferView" : 19,
            "componentType" : 5123,
            "count" : 1050,
            "type" : "SCALAR"
        }
    ],
    "bufferViews" : [
        {
            "buffer" : 0,
            "byteLength" : 53928,
            "byteOffset" : 0
        },
        {
            "buffer" : 0,
            "byteLength" : 53928,
            "byteOffset" : 53928
        },
        {
            "buffer" : 0,
            "byteLength" : 35952,
            "byteOffset" : 107856
        },
        {
            "buffer" : 0,
            "byteLength" : 9936,
            "byteOffset" : 143808
        },
        {
            "buffer" : 0,
            "byteLength" : 200448,
            "byteOffset" : 153744
        },
        {
            "buffer" : 0,
            "byteLength" : 200448,
            "byteOffset" : 354192
        },
        {
            "buffer" : 0,
            "byteLength" : 133632,
            "byteOffset" : 554640
        },
        {
            "buffer" : 0,
            "byteLength" : 33408,
            "byteOffset" : 688272
        },
        {
            "buffer" : 0,
            "byteLength" : 4584,
            "byteOffset" : 721680
        },
        {
            "buffer" : 0,
            "byteLength" : 4584,
            "byteOffset" : 726264
        },
        {
            "buffer" : 0,
            "byteLength" : 3056,
            "byteOffset" : 730848
        },
        {
            "buffer" : 0,
            "byteLength" : 864,
            "byteOffset" : 733904
        },
        {
            "buffer" : 0,
            "byteLength" : 2160,
            "byteOffset" : 734768
        },
        {
            "buffer" : 0,
            "byteLength" : 2160,
            "byteOffset" : 736928
        },
        {
            "buffer" : 0,
            "byteLength" : 1440,
            "byteOffset" : 739088
        },
        {
            "buffer" : 0,
            "byteLength" : 504,
            "byteOffset" : 740528
        },
        {
            "buffer" : 0,
            "byteLength" : 12600,
            "byteOffset" : 741032
        },
        {
            "buffer" : 0,
            "byteLength" : 12600,
            "byteOffset" : 753632
        },
        {
            "buffer" : 0,
            "byteLength" : 8400,
            "byteOffset" : 766232
        },
        {
            "buffer" : 0,
            "byteLength" : 2100,
            "byteOffset" : 774632
        }
    ],
    "buffers" : [
        {
            "byteLength" : 776732,
            "uri" : "data:application/octet-stream;base64,"
        }
    ]
}
