{
    "asset" : {
        "generator" : "Khronos glTF Blender I/O v1.8.19",
        "version" : "2.0"
    },
    "scene" : 0,
    "scenes" : [
        {
            "name" : "Scene",
            "nodes" : [
                0
            ]
        }
    ],
    "nodes" : [
        {
            "mesh" : 0,
            "name" : "Node"
        }
    ],
    "materials" : [
        {
            "name" : "mat17",
            "pbrMetallicRoughness" : {
                "baseColorFactor" : [
                    0.05999999865889549,
                    0.10000000149011612,
                    0.12999999523162842,
                    1
                ],
                "metallicFactor" : 0
            }
        },
        {
            "name" : "mat20.001",
            "pbrMetallicRoughness" : {
                "baseColorFactor" : [
                    0.1899999976158142,
                    0.09000000357627869,
                    0.05999999865889549,
                    1
                ],
                "metallicFactor" : 0
            }
        },
        {
            "name" : "mat23",
            "pbrMetallicRoughness" : {
                "baseColorFactor" : [
                    0.009999999776482582,
                    0.009999999776482582,
                    0.009999999776482582,
                    1
                ],
                "metallicFactor" : 0
            }
        },
        {
            "name" : "mat16",
            "pbrMetallicRoughness" : {
                "baseColorFactor" : [
                    0.1899999976158142,
                    0.2800000011920929,
                    0.3400000035762787,
                    1
                ],
                "metallicFactor" : 0
            }
        },
        {
            "alphaMode" : "BLEND",
            "doubleSided" : true,
            "name" : "mat25.001",
            "pbrMetallicRoughness" : {
                "baseColorFactor" : [
                    0.8299999833106995,
                    0.8899999856948853,
                    0.8700000047683716,
                    0.4000000059604645
                ],
                "metallicFactor" : 0,
                "roughnessFactor" : 0.699999988079071
            }
        }
    ],
    "meshes" : [
        {
            "name" : "Node-Mesh",
            "primitives" : [
                {
                    "attributes" : {
                        "POSITION" : 0,
                        "NORMAL" : 1
                    },
                    "indices" : 2,
                    "material" : 0
                },
                {
                    "attributes" : {
                        "POSITION" : 3,
                        "NORMAL" : 4
                    },
                    "indices" : 5,
                    "material" : 1
                },
                {
                    "attributes" : {
                        "POSITION" : 6,
                        "NORMAL" : 7
                    },
                    "indices" : 8,
                    "material" : 2
                },
                {
                    "attributes" : {
                        "POSITION" : 9,
                        "NORMAL" : 10
                    },
                    "indices" : 11,
                    "material" : 3
                },
                {
                    "attributes" : {
                        "POSITION" : 12,
                        "NORMAL" : 13
                    },
                    "indices" : 14,
                    "material" : 4
                }
            ]
        }
    ],
    "accessors" : [
        {
            "bufferView" : 0,
            "componentType" : 5126,
            "count" : 462,
            "max" : [
                9.960708618164062,
                12.192198753356934,
                9.238215446472168
            ],
            "min" : [
                -8.37894058227539,
                -3.1501832008361816,
                -8.008955001831055
            ],
            "type" : "VEC3"
        },
        {
            "bufferView" : 1,
            "componentType" : 5126,
            "count" : 462,
            "type" : "VEC3"
        },
        {
            "bufferView" : 2,
            "componentType" : 5123,
            "count" : 480,
            "type" : "SCALAR"
        },
        {
            "bufferView" : 3,
            "componentType" : 5126,
            "count" : 662,
            "max" : [
                10.132011413574219,
                5.362245559692383,
                9.394968032836914
            ],
            "min" : [
                -8.462089538574219,
                -3.480543375015259,
                -7.900303363800049
            ],
            "type" : "VEC3"
        },
        {
            "bufferView" : 4,
            "componentType" : 5126,
            "count" : 662,
            "type" : "VEC3"
        },
        {
            "bufferView" : 5,
            "componentType" : 5123,
            "count" : 822,
            "type" : "SCALAR"
        },
        {
            "bufferView" : 6,
            "componentType" : 5126,
            "count" : 1438,
            "max" : [
                10.132011413574219,
                10.885754585266113,
                9.394968032836914
            ],
            "min" : [
                -8.462089538574219,
                -3.480543375015259,
                -7.900303363800049
            ],
            "type" : "VEC3"
        },
        {
            "bufferView" : 7,
            "componentType" : 5126,
            "count" : 1438,
            "type" : "VEC3"
        },
        {
            "bufferView" : 8,
            "componentType" : 5123,
            "count" : 1968,
            "type" : "SCALAR"
        },
        {
            "bufferView" : 9,
            "componentType" : 5126,
            "count" : 3156,
            "max" : [
                10.07713794708252,
                12.68261432647705,
                9.543469429016113
            ],
            "min" : [
                -8.234739303588867,
                -3.1422927379608154,
                -7.785733699798584
            ],
            "type" : "VEC3"
        },
        {
            "bufferView" : 10,
            "componentType" : 5126,
            "count" : 3156,
            "type" : "VEC3"
        },
        {
            "bufferView" : 11,
            "componentType" : 5123,
            "count" : 3678,
            "type" : "SCALAR"
        },
        {
            "bufferView" : 12,
            "componentType" : 5126,
            "count" : 204,
            "max" : [
                8.710768699645996,
                4.6177167892456055,
                7.743156909942627
            ],
            "min" : [
                3.8969032764434814,
                2.9148051738739014,
                0.609318196773529
            ],
            "type" : "VEC3"
        },
        {
            "bufferView" : 13,
            "componentType" : 5126,
            "count" : 204,
            "type" : "VEC3"
        },
        {
            "bufferView" : 14,
            "componentType" : 5123,
            "count" : 264,
            "type" : "SCALAR"
        }
    ],
    "bufferViews" : [
        {
            "buffer" : 0,
            "byteLength" : 5544,
            "byteOffset" : 0
        },
        {
            "buffer" : 0,
            "byteLength" : 5544,
            "byteOffset" : 5544
        },
        {
            "buffer" : 0,
            "byteLength" : 960,
            "byteOffset" : 11088
        },
        {
            "buffer" : 0,
            "byteLength" : 7944,
            "byteOffset" : 12048
        },
        {
            "buffer" : 0,
            "byteLength" : 7944,
            "byteOffset" : 19992
        },
        {
            "buffer" : 0,
            "byteLength" : 1644,
            "byteOffset" : 27936
        },
        {
            "buffer" : 0,
            "byteLength" : 17256,
            "byteOffset" : 29580
        },
        {
            "buffer" : 0,
            "byteLength" : 17256,
            "byteOffset" : 46836
        },
        {
            "buffer" : 0,
            "byteLength" : 3936,
            "byteOffset" : 64092
        },
        {
            "buffer" : 0,
            "byteLength" : 37872,
            "byteOffset" : 68028
        },
        {
            "buffer" : 0,
            "byteLength" : 37872,
            "byteOffset" : 105900
        },
        {
            "buffer" : 0,
            "byteLength" : 7356,
            "byteOffset" : 143772
        },
        {
            "buffer" : 0,
            "byteLength" : 2448,
            "byteOffset" : 151128
        },
        {
            "buffer" : 0,
            "byteLength" : 2448,
            "byteOffset" : 153576
        },
        {
            "buffer" : 0,
            "byteLength" : 528,
            "byteOffset" : 156024
        }
    ],
    "buffers" : [
        {
            "byteLength" : 156552,
            "uri" : "data:application/octet-stream;base64,"
        }
    ]
}
