{
    "asset" : {
        "generator" : "Khronos glTF Blender I/O v1.8.19",
        "version" : "2.0"
    },
    "scene" : 0,
    "scenes" : [
        {
            "name" : "Scene",
            "nodes" : [
                0
            ]
        }
    ],
    "nodes" : [
        {
            "mesh" : 0,
            "name" : "Node"
        }
    ],
    "materials" : [
        {
            "name" : "mat21.002",
            "pbrMetallicRoughness" : {
                "metallicFactor" : 0
            }
        },
        {
            "name" : "mat12",
            "pbrMetallicRoughness" : {
                "baseColorFactor" : [
                    1,
                    0.8299999833106995,
                    0.03999999910593033,
                    1
                ],
                "metallicFactor" : 0
            }
        },
        {
            "name" : "mat20.002",
            "pbrMetallicRoughness" : {
                "baseColorFactor" : [
                    0.1899999976158142,
                    0.09000000357627869,
                    0.05999999865889549,
                    1
                ],
                "metallicFactor" : 0
            }
        },
        {
            "name" : "mat18",
            "pbrMetallicRoughness" : {
                "baseColorFactor" : [
                    1,
                    0.6100000143051147,
                    0.25,
                    1
                ],
                "metallicFactor" : 0
            }
        },
        {
            "name" : "mat13",
            "pbrMetallicRoughness" : {
                "baseColorFactor" : [
                    1,
                    0.33000001311302185,
                    0,
                    1
                ],
                "metallicFactor" : 0
            }
        },
        {
            "name" : "mat15.002",
            "pbrMetallicRoughness" : {
                "baseColorFactor" : [
                    0.6299999952316284,
                    0.699999988079071,
                    0.7200000286102295,
                    1
                ],
                "metallicFactor" : 0
            }
        },
        {
            "name" : "mat16.001",
            "pbrMetallicRoughness" : {
                "baseColorFactor" : [
                    0.1899999976158142,
                    0.2800000011920929,
                    0.3400000035762787,
                    1
                ],
                "metallicFactor" : 0
            }
        },
        {
            "name" : "mat19",
            "pbrMetallicRoughness" : {
                "baseColorFactor" : [
                    0.7400000095367432,
                    0.33000001311302185,
                    0.05999999865889549,
                    1
                ],
                "metallicFactor" : 0
            }
        },
        {
            "name" : "mat10",
            "pbrMetallicRoughness" : {
                "baseColorFactor" : [
                    0.07000000029802322,
                    0.4399999976158142,
                    0.07999999821186066,
                    1
                ],
                "metallicFactor" : 0
            }
        },
        {
            "name" : "mat22",
            "pbrMetallicRoughness" : {
                "baseColorFactor" : [
                    0.3499999940395355,
                    0.3499999940395355,
                    0.3499999940395355,
                    1
                ],
                "metallicFactor" : 0
            }
        },
        {
            "name" : "mat17.001",
            "pbrMetallicRoughness" : {
                "baseColorFactor" : [
                    0.05999999865889549,
                    0.10000000149011612,
                    0.12999999523162842,
                    1
                ],
                "metallicFactor" : 0
            }
        },
        {
            "name" : "mat8",
            "pbrMetallicRoughness" : {
                "baseColorFactor" : [
                    0.9100000262260437,
                    0.05000000074505806,
                    0.029999999329447746,
                    1
                ],
                "metallicFactor" : 0
            }
        },
        {
            "name" : "mat7",
            "pbrMetallicRoughness" : {
                "baseColorFactor" : [
                    0.8700000047683716,
                    0.11999999731779099,
                    0.28999999165534973,
                    1
                ],
                "metallicFactor" : 0
            }
        }
    ],
    "meshes" : [
        {
            "name" : "Node-Mesh.001",
            "primitives" : [
                {
                    "attributes" : {
                        "POSITION" : 0,
                        "NORMAL" : 1
                    },
                    "indices" : 2,
                    "material" : 0
                },
                {
                    "attributes" : {
                        "POSITION" : 3,
                        "NORMAL" : 4
                    },
                    "indices" : 5,
                    "material" : 1
                },
                {
                    "attributes" : {
                        "POSITION" : 6,
                        "NORMAL" : 7
                    },
                    "indices" : 8,
                    "material" : 2
                },
                {
                    "attributes" : {
                        "POSITION" : 9,
                        "NORMAL" : 10
                    },
                    "indices" : 11,
                    "material" : 3
                },
                {
                    "attributes" : {
                        "POSITION" : 12,
                        "NORMAL" : 13
                    },
                    "indices" : 14,
                    "material" : 4
                },
                {
                    "attributes" : {
                        "POSITION" : 15,
                        "NORMAL" : 16
                    },
                    "indices" : 17,
                    "material" : 5
                },
                {
                    "attributes" : {
                        "POSITION" : 18,
                        "NORMAL" : 19
                    },
                    "indices" : 20,
                    "material" : 6
                },
                {
                    "attributes" : {
                        "POSITION" : 21,
                        "NORMAL" : 22
                    },
                    "indices" : 23,
                    "material" : 7
                },
                {
                    "attributes" : {
                        "POSITION" : 24,
                        "NORMAL" : 25
                    },
                    "indices" : 26,
                    "material" : 8
                },
                {
                    "attributes" : {
                        "POSITION" : 27,
                        "NORMAL" : 28
                    },
                    "indices" : 29,
                    "material" : 9
                },
                {
                    "attributes" : {
                        "POSITION" : 30,
                        "NORMAL" : 31
                    },
                    "indices" : 32,
                    "material" : 10
                },
                {
                    "attributes" : {
                        "POSITION" : 33,
                        "NORMAL" : 34
                    },
                    "indices" : 35,
                    "material" : 11
                },
                {
                    "attributes" : {
                        "POSITION" : 36,
                        "NORMAL" : 37
                    },
                    "indices" : 23,
                    "material" : 12
                }
            ]
        }
    ],
    "accessors" : [
        {
            "bufferView" : 0,
            "componentType" : 5126,
            "count" : 177,
            "max" : [
                3.091527223587036,
                10.406193733215332,
                3.020477771759033
            ],
            "min" : [
                -2.2934861183166504,
                -0.43560701608657837,
                -2.9601268768310547
            ],
            "type" : "VEC3"
        },
        {
            "bufferView" : 1,
            "componentType" : 5126,
            "count" : 177,
            "type" : "VEC3"
        },
        {
            "bufferView" : 2,
            "componentType" : 5123,
            "count" : 189,
            "type" : "SCALAR"
        },
        {
            "bufferView" : 3,
            "componentType" : 5126,
            "count" : 30,
            "max" : [
                3.078615665435791,
                0.7536067962646484,
                2.4418890476226807
            ],
            "min" : [
                -2.281562328338623,
                0.5254536271095276,
                -2.9601268768310547
            ],
            "type" : "VEC3"
        },
        {
            "bufferView" : 4,
            "componentType" : 5126,
            "count" : 30,
            "type" : "VEC3"
        },
        {
            "bufferView" : 5,
            "componentType" : 5123,
            "count" : 30,
            "type" : "SCALAR"
        },
        {
            "bufferView" : 6,
            "componentType" : 5126,
            "count" : 562,
            "max" : [
                1.1319559812545776,
                6.0512871742248535,
                1.4397804737091064
            ],
            "min" : [
                -2.240428924560547,
                0.7086803913116455,
                -1.3382353782653809
            ],
            "type" : "VEC3"
        },
        {
            "bufferView" : 7,
            "componentType" : 5126,
            "count" : 562,
            "type" : "VEC3"
        },
        {
            "bufferView" : 8,
            "componentType" : 5123,
            "count" : 588,
            "type" : "SCALAR"
        },
        {
            "bufferView" : 9,
            "componentType" : 5126,
            "count" : 854,
            "max" : [
                2.556169033050537,
                10.902201652526855,
                1.4155287742614746
            ],
            "min" : [
                -2.330510377883911,
                0.8619421124458313,
                -0.9640836715698242
            ],
            "type" : "VEC3"
        },
        {
            "bufferView" : 10,
            "componentType" : 5126,
            "count" : 854,
            "type" : "VEC3"
        },
        {
            "bufferView" : 11,
            "componentType" : 5123,
            "count" : 918,
            "type" : "SCALAR"
        },
        {
            "bufferView" : 12,
            "componentType" : 5126,
            "count" : 339,
            "max" : [
                3.975641965866089,
                11.020861625671387,
                2.3458411693573
            ],
            "min" : [
                -2.2900187969207764,
                1.493187427520752,
                -1.1403186321258545
            ],
            "type" : "VEC3"
        },
        {
            "bufferView" : 13,
            "componentType" : 5126,
            "count" : 339,
            "type" : "VEC3"
        },
        {
            "bufferView" : 14,
            "componentType" : 5123,
            "count" : 345,
            "type" : "SCALAR"
        },
        {
            "bufferView" : 15,
            "componentType" : 5126,
            "count" : 66,
            "max" : [
                1.3446660041809082,
                8.681840896606445,
                3.179319381713867
            ],
            "min" : [
                -2.2934861183166504,
                5.665971755981445,
                -1.0590271949768066
            ],
            "type" : "VEC3"
        },
        {
            "bufferView" : 16,
            "componentType" : 5126,
            "count" : 66,
            "type" : "VEC3"
        },
        {
            "bufferView" : 17,
            "componentType" : 5123,
            "count" : 66,
            "type" : "SCALAR"
        },
        {
            "bufferView" : 18,
            "componentType" : 5126,
            "count" : 643,
            "max" : [
                1.7707518339157104,
                12.295607566833496,
                1.338010311126709
            ],
            "min" : [
                -2.012202262878418,
                5.823660850524902,
                -1.2248860597610474
            ],
            "type" : "VEC3"
        },
        {
            "bufferView" : 19,
            "componentType" : 5126,
            "count" : 643,
            "type" : "VEC3"
        },
        {
            "bufferView" : 20,
            "componentType" : 5123,
            "count" : 711,
            "type" : "SCALAR"
        },
        {
            "bufferView" : 21,
            "componentType" : 5126,
            "count" : 12,
            "max" : [
                0.24561777710914612,
                10.117829322814941,
                0.4589066803455353
            ],
            "min" : [
                -0.5111321210861206,
                8.817221641540527,
                -0.0955275371670723
            ],
            "type" : "VEC3"
        },
        {
            "bufferView" : 22,
            "componentType" : 5126,
            "count" : 12,
            "type" : "VEC3"
        },
        {
            "bufferView" : 23,
            "componentType" : 5123,
            "count" : 12,
            "type" : "SCALAR"
        },
        {
            "bufferView" : 24,
            "componentType" : 5126,
            "count" : 6,
            "max" : [
                0.1782577484846115,
                10.334609031677246,
                0.28389793634414673
            ],
            "min" : [
                -0.46868571639060974,
                10.251497268676758,
                0.24594636261463165
            ],
            "type" : "VEC3"
        },
        {
            "bufferView" : 25,
            "componentType" : 5126,
            "count" : 6,
            "type" : "VEC3"
        },
        {
            "bufferView" : 26,
            "componentType" : 5123,
            "count" : 6,
            "type" : "SCALAR"
        },
        {
            "bufferView" : 27,
            "componentType" : 5126,
            "count" : 48,
            "max" : [
                -1.9310883283615112,
                6.088952541351318,
                1.7572566270828247
            ],
            "min" : [
                -2.3076131343841553,
                4.852357387542725,
                0.4648798704147339
            ],
            "type" : "VEC3"
        },
        {
            "bufferView" : 28,
            "componentType" : 5126,
            "count" : 48,
            "type" : "VEC3"
        },
        {
            "bufferView" : 29,
            "componentType" : 5123,
            "count" : 54,
            "type" : "SCALAR"
        },
        {
            "bufferView" : 30,
            "componentType" : 5126,
            "count" : 124,
            "max" : [
                0.46939244866371155,
                11.071124076843262,
                0.4135130047798157
            ],
            "min" : [
                -0.716739296913147,
                10.238504409790039,
                -0.8866016268730164
            ],
            "type" : "VEC3"
        },
        {
            "bufferView" : 31,
            "componentType" : 5126,
            "count" : 124,
            "type" : "VEC3"
        },
        {
            "bufferView" : 32,
            "componentType" : 5123,
            "count" : 126,
            "type" : "SCALAR"
        },
        {
            "bufferView" : 33,
            "componentType" : 5126,
            "count" : 135,
            "max" : [
                3.975641965866089,
                12.311787605285645,
                2.3458411693573
            ],
            "min" : [
                -0.7138466835021973,
                1.493187427520752,
                -1.8478511571884155
            ],
            "type" : "VEC3"
        },
        {
            "bufferView" : 34,
            "componentType" : 5126,
            "count" : 135,
            "type" : "VEC3"
        },
        {
            "bufferView" : 35,
            "componentType" : 5123,
            "count" : 135,
            "type" : "SCALAR"
        },
        {
            "bufferView" : 36,
            "componentType" : 5126,
            "count" : 12,
            "max" : [
                -0.018264533951878548,
                9.818154335021973,
                0.3824184238910675
            ],
            "min" : [
                -0.30026790499687195,
                9.638639450073242,
                0.3165947496891022
            ],
            "type" : "VEC3"
        },
        {
            "bufferView" : 37,
            "componentType" : 5126,
            "count" : 12,
            "type" : "VEC3"
        }
    ],
    "bufferViews" : [
        {
            "buffer" : 0,
            "byteLength" : 2124,
            "byteOffset" : 0
        },
        {
            "buffer" : 0,
            "byteLength" : 2124,
            "byteOffset" : 2124
        },
        {
            "buffer" : 0,
            "byteLength" : 378,
            "byteOffset" : 4248
        },
        {
            "buffer" : 0,
            "byteLength" : 360,
            "byteOffset" : 4628
        },
        {
            "buffer" : 0,
            "byteLength" : 360,
            "byteOffset" : 4988
        },
        {
            "buffer" : 0,
            "byteLength" : 60,
            "byteOffset" : 5348
        },
        {
            "buffer" : 0,
            "byteLength" : 6744,
            "byteOffset" : 5408
        },
        {
            "buffer" : 0,
            "byteLength" : 6744,
            "byteOffset" : 12152
        },
        {
            "buffer" : 0,
            "byteLength" : 1176,
            "byteOffset" : 18896
        },
        {
            "buffer" : 0,
            "byteLength" : 10248,
            "byteOffset" : 20072
        },
        {
            "buffer" : 0,
            "byteLength" : 10248,
            "byteOffset" : 30320
        },
        {
            "buffer" : 0,
            "byteLength" : 1836,
            "byteOffset" : 40568
        },
        {
            "buffer" : 0,
            "byteLength" : 4068,
            "byteOffset" : 42404
        },
        {
            "buffer" : 0,
            "byteLength" : 4068,
            "byteOffset" : 46472
        },
        {
            "buffer" : 0,
            "byteLength" : 690,
            "byteOffset" : 50540
        },
        {
            "buffer" : 0,
            "byteLength" : 792,
            "byteOffset" : 51232
        },
        {
            "buffer" : 0,
            "byteLength" : 792,
            "byteOffset" : 52024
        },
        {
            "buffer" : 0,
            "byteLength" : 132,
            "byteOffset" : 52816
        },
        {
            "buffer" : 0,
            "byteLength" : 7716,
            "byteOffset" : 52948
        },
        {
            "buffer" : 0,
            "byteLength" : 7716,
            "byteOffset" : 60664
        },
        {
            "buffer" : 0,
            "byteLength" : 1422,
            "byteOffset" : 68380
        },
        {
            "buffer" : 0,
            "byteLength" : 144,
            "byteOffset" : 69804
        },
        {
            "buffer" : 0,
            "byteLength" : 144,
            "byteOffset" : 69948
        },
        {
            "buffer" : 0,
            "byteLength" : 24,
            "byteOffset" : 70092
        },
        {
            "buffer" : 0,
            "byteLength" : 72,
            "byteOffset" : 70116
        },
        {
            "buffer" : 0,
            "byteLength" : 72,
            "byteOffset" : 70188
        },
        {
            "buffer" : 0,
            "byteLength" : 12,
            "byteOffset" : 70260
        },
        {
            "buffer" : 0,
            "byteLength" : 576,
            "byteOffset" : 70272
        },
        {
            "buffer" : 0,
            "byteLength" : 576,
            "byteOffset" : 70848
        },
        {
            "buffer" : 0,
            "byteLength" : 108,
            "byteOffset" : 71424
        },
        {
            "buffer" : 0,
            "byteLength" : 1488,
            "byteOffset" : 71532
        },
        {
            "buffer" : 0,
            "byteLength" : 1488,
            "byteOffset" : 73020
        },
        {
            "buffer" : 0,
            "byteLength" : 252,
            "byteOffset" : 74508
        },
        {
            "buffer" : 0,
            "byteLength" : 1620,
            "byteOffset" : 74760
        },
        {
            "buffer" : 0,
            "byteLength" : 1620,
            "byteOffset" : 76380
        },
        {
            "buffer" : 0,
            "byteLength" : 270,
            "byteOffset" : 78000
        },
        {
            "buffer" : 0,
            "byteLength" : 144,
            "byteOffset" : 78272
        },
        {
            "buffer" : 0,
            "byteLength" : 144,
            "byteOffset" : 78416
        }
    ],
    "buffers" : [
        {
            "byteLength" : 78560,
            "uri" : "data:application/octet-stream;base64,"
        }
    ]
}
