{
    "asset" : {
        "generator" : "Khronos glTF Blender I/O v1.8.19",
        "version" : "2.0"
    },
    "scene" : 0,
    "scenes" : [
        {
            "name" : "Scene",
            "nodes" : [
                0
            ]
        }
    ],
    "nodes" : [
        {
            "mesh" : 0,
            "name" : "Node"
        }
    ],
    "materials" : [
        {
            "name" : "mat17",
            "pbrMetallicRoughness" : {
                "baseColorFactor" : [
                    0.05999999865889549,
                    0.10000000149011612,
                    0.12999999523162842,
                    1
                ],
                "metallicFactor" : 0
            }
        },
        {
            "name" : "mat20.001",
            "pbrMetallicRoughness" : {
                "baseColorFactor" : [
                    0.1899999976158142,
                    0.09000000357627869,
                    0.05999999865889549,
                    1
                ],
                "metallicFactor" : 0
            }
        },
        {
            "name" : "mat23",
            "pbrMetallicRoughness" : {
                "baseColorFactor" : [
                    0.009999999776482582,
                    0.009999999776482582,
                    0.009999999776482582,
                    1
                ],
                "metallicFactor" : 0
            }
        },
        {
            "name" : "mat16",
            "pbrMetallicRoughness" : {
                "baseColorFactor" : [
                    0.1899999976158142,
                    0.2800000011920929,
                    0.3400000035762787,
                    1
                ],
                "metallicFactor" : 0
            }
        },
        {
            "alphaMode" : "BLEND",
            "doubleSided" : true,
            "name" : "mat25.001",
            "pbrMetallicRoughness" : {
                "baseColorFactor" : [
                    0.8299999833106995,
                    0.8899999856948853,
                    0.8700000047683716,
                    0.4000000059604645
                ],
                "metallicFactor" : 0,
                "roughnessFactor" : 0.699999988079071
            }
        }
    ],
    "meshes" : [
        {
            "name" : "Node-Mesh",
            "primitives" : [
                {
                    "attributes" : {
                        "POSITION" : 0,
                        "NORMAL" : 1
                    },
                    "indices" : 2,
                    "material" : 0
                },
                {
                    "attributes" : {
                        "POSITION" : 3,
                        "NORMAL" : 4
                    },
                    "indices" : 5,
                    "material" : 1
                },
                {
                    "attributes" : {
                        "POSITION" : 6,
                        "NORMAL" : 7
                    },
                    "indices" : 8,
                    "material" : 2
                },
                {
                    "attributes" : {
                        "POSITION" : 9,
                        "NORMAL" : 10
                    },
                    "indices" : 11,
                    "material" : 3
                },
                {
                    "attributes" : {
                        "POSITION" : 12,
                        "NORMAL" : 13
                    },
                    "indices" : 14,
                    "material" : 4
                }
            ]
        }
    ],
    "accessors" : [
        {
            "bufferView" : 0,
            "componentType" : 5126,
            "count" : 462,
            "max" : [
                0.9739701747894287,
                1.1921679973602295,
                0.9033239483833313
            ],
            "min" : [
                -0.8193029761314392,
                -0.3080287575721741,
                -0.7831254005432129
            ],
            "type" : "VEC3"
        },
        {
            "bufferView" : 1,
            "componentType" : 5126,
            "count" : 462,
            "type" : "VEC3"
        },
        {
            "bufferView" : 2,
            "componentType" : 5123,
            "count" : 480,
            "type" : "SCALAR"
        },
        {
            "bufferView" : 3,
            "componentType" : 5126,
            "count" : 660,
            "max" : [
                0.9907203912734985,
                0.5243269205093384,
                0.9186514019966125
            ],
            "min" : [
                -0.8274334073066711,
                -0.3403317630290985,
                -0.7725012898445129
            ],
            "type" : "VEC3"
        },
        {
            "bufferView" : 4,
            "componentType" : 5126,
            "count" : 660,
            "type" : "VEC3"
        },
        {
            "bufferView" : 5,
            "componentType" : 5123,
            "count" : 822,
            "type" : "SCALAR"
        },
        {
            "bufferView" : 6,
            "componentType" : 5126,
            "count" : 1436,
            "max" : [
                0.9907203912734985,
                1.064422369003296,
                0.9186514019966125
            ],
            "min" : [
                -0.8274334073066711,
                -0.3403317630290985,
                -0.7725012898445129
            ],
            "type" : "VEC3"
        },
        {
            "bufferView" : 7,
            "componentType" : 5126,
            "count" : 1436,
            "type" : "VEC3"
        },
        {
            "bufferView" : 8,
            "componentType" : 5123,
            "count" : 1968,
            "type" : "SCALAR"
        },
        {
            "bufferView" : 9,
            "componentType" : 5126,
            "count" : 3154,
            "max" : [
                0.9853548407554626,
                1.2401214838027954,
                0.9331720471382141
            ],
            "min" : [
                -0.805202841758728,
                -0.30725720524787903,
                -0.7612984776496887
            ],
            "type" : "VEC3"
        },
        {
            "bufferView" : 10,
            "componentType" : 5126,
            "count" : 3154,
            "type" : "VEC3"
        },
        {
            "bufferView" : 11,
            "componentType" : 5123,
            "count" : 3678,
            "type" : "SCALAR"
        },
        {
            "bufferView" : 12,
            "componentType" : 5126,
            "count" : 204,
            "max" : [
                0.8517495393753052,
                0.4515259861946106,
                0.7571353316307068
            ],
            "min" : [
                0.381043940782547,
                0.28501319885253906,
                0.05957987159490585
            ],
            "type" : "VEC3"
        },
        {
            "bufferView" : 13,
            "componentType" : 5126,
            "count" : 204,
            "type" : "VEC3"
        },
        {
            "bufferView" : 14,
            "componentType" : 5123,
            "count" : 264,
            "type" : "SCALAR"
        }
    ],
    "bufferViews" : [
        {
            "buffer" : 0,
            "byteLength" : 5544,
            "byteOffset" : 0
        },
        {
            "buffer" : 0,
            "byteLength" : 5544,
            "byteOffset" : 5544
        },
        {
            "buffer" : 0,
            "byteLength" : 960,
            "byteOffset" : 11088
        },
        {
            "buffer" : 0,
            "byteLength" : 7920,
            "byteOffset" : 12048
        },
        {
            "buffer" : 0,
            "byteLength" : 7920,
            "byteOffset" : 19968
        },
        {
            "buffer" : 0,
            "byteLength" : 1644,
            "byteOffset" : 27888
        },
        {
            "buffer" : 0,
            "byteLength" : 17232,
            "byteOffset" : 29532
        },
        {
            "buffer" : 0,
            "byteLength" : 17232,
            "byteOffset" : 46764
        },
        {
            "buffer" : 0,
            "byteLength" : 3936,
            "byteOffset" : 63996
        },
        {
            "buffer" : 0,
            "byteLength" : 37848,
            "byteOffset" : 67932
        },
        {
            "buffer" : 0,
            "byteLength" : 37848,
            "byteOffset" : 105780
        },
        {
            "buffer" : 0,
            "byteLength" : 7356,
            "byteOffset" : 143628
        },
        {
            "buffer" : 0,
            "byteLength" : 2448,
            "byteOffset" : 150984
        },
        {
            "buffer" : 0,
            "byteLength" : 2448,
            "byteOffset" : 153432
        },
        {
            "buffer" : 0,
            "byteLength" : 528,
            "byteOffset" : 155880
        }
    ],
    "buffers" : [
        {
            "byteLength" : 156408,
            "uri" : "data:application/octet-stream;base64,"
        }
    ]
}
