{
    "asset" : {
        "generator" : "Khronos glTF Blender I/O v1.8.19",
        "version" : "2.0"
    },
    "scene" : 0,
    "scenes" : [
        {
            "name" : "Scene",
            "nodes" : [
                0
            ]
        }
    ],
    "nodes" : [
        {
            "mesh" : 0,
            "name" : "Node"
        }
    ],
    "materials" : [
        {
            "name" : "mat21.002",
            "pbrMetallicRoughness" : {
                "metallicFactor" : 0
            }
        },
        {
            "name" : "mat12",
            "pbrMetallicRoughness" : {
                "baseColorFactor" : [
                    1,
                    0.8299999833106995,
                    0.03999999910593033,
                    1
                ],
                "metallicFactor" : 0
            }
        },
        {
            "name" : "mat20.002",
            "pbrMetallicRoughness" : {
                "baseColorFactor" : [
                    0.1899999976158142,
                    0.09000000357627869,
                    0.05999999865889549,
                    1
                ],
                "metallicFactor" : 0
            }
        },
        {
            "name" : "mat18",
            "pbrMetallicRoughness" : {
                "baseColorFactor" : [
                    1,
                    0.6100000143051147,
                    0.25,
                    1
                ],
                "metallicFactor" : 0
            }
        },
        {
            "name" : "mat13",
            "pbrMetallicRoughness" : {
                "baseColorFactor" : [
                    1,
                    0.33000001311302185,
                    0,
                    1
                ],
                "metallicFactor" : 0
            }
        },
        {
            "name" : "mat15.002",
            "pbrMetallicRoughness" : {
                "baseColorFactor" : [
                    0.6299999952316284,
                    0.699999988079071,
                    0.7200000286102295,
                    1
                ],
                "metallicFactor" : 0
            }
        },
        {
            "name" : "mat16.001",
            "pbrMetallicRoughness" : {
                "baseColorFactor" : [
                    0.1899999976158142,
                    0.2800000011920929,
                    0.3400000035762787,
                    1
                ],
                "metallicFactor" : 0
            }
        },
        {
            "name" : "mat19",
            "pbrMetallicRoughness" : {
                "baseColorFactor" : [
                    0.7400000095367432,
                    0.33000001311302185,
                    0.05999999865889549,
                    1
                ],
                "metallicFactor" : 0
            }
        },
        {
            "name" : "mat10",
            "pbrMetallicRoughness" : {
                "baseColorFactor" : [
                    0.07000000029802322,
                    0.4399999976158142,
                    0.07999999821186066,
                    1
                ],
                "metallicFactor" : 0
            }
        },
        {
            "name" : "mat22",
            "pbrMetallicRoughness" : {
                "baseColorFactor" : [
                    0.3499999940395355,
                    0.3499999940395355,
                    0.3499999940395355,
                    1
                ],
                "metallicFactor" : 0
            }
        },
        {
            "name" : "mat17.001",
            "pbrMetallicRoughness" : {
                "baseColorFactor" : [
                    0.05999999865889549,
                    0.10000000149011612,
                    0.12999999523162842,
                    1
                ],
                "metallicFactor" : 0
            }
        },
        {
            "name" : "mat8",
            "pbrMetallicRoughness" : {
                "baseColorFactor" : [
                    0.9100000262260437,
                    0.05000000074505806,
                    0.029999999329447746,
                    1
                ],
                "metallicFactor" : 0
            }
        },
        {
            "name" : "mat7",
            "pbrMetallicRoughness" : {
                "baseColorFactor" : [
                    0.8700000047683716,
                    0.11999999731779099,
                    0.28999999165534973,
                    1
                ],
                "metallicFactor" : 0
            }
        }
    ],
    "meshes" : [
        {
            "name" : "Node-Mesh.001",
            "primitives" : [
                {
                    "attributes" : {
                        "POSITION" : 0,
                        "NORMAL" : 1
                    },
                    "indices" : 2,
                    "material" : 0
                },
                {
                    "attributes" : {
                        "POSITION" : 3,
                        "NORMAL" : 4
                    },
                    "indices" : 5,
                    "material" : 1
                },
                {
                    "attributes" : {
                        "POSITION" : 6,
                        "NORMAL" : 7
                    },
                    "indices" : 8,
                    "material" : 2
                },
                {
                    "attributes" : {
                        "POSITION" : 9,
                        "NORMAL" : 10
                    },
                    "indices" : 11,
                    "material" : 3
                },
                {
                    "attributes" : {
                        "POSITION" : 12,
                        "NORMAL" : 13
                    },
                    "indices" : 14,
                    "material" : 4
                },
                {
                    "attributes" : {
                        "POSITION" : 15,
                        "NORMAL" : 16
                    },
                    "indices" : 17,
                    "material" : 5
                },
                {
                    "attributes" : {
                        "POSITION" : 18,
                        "NORMAL" : 19
                    },
                    "indices" : 20,
                    "material" : 6
                },
                {
                    "attributes" : {
                        "POSITION" : 21,
                        "NORMAL" : 22
                    },
                    "indices" : 23,
                    "material" : 7
                },
                {
                    "attributes" : {
                        "POSITION" : 24,
                        "NORMAL" : 25
                    },
                    "indices" : 26,
                    "material" : 8
                },
                {
                    "attributes" : {
                        "POSITION" : 27,
                        "NORMAL" : 28
                    },
                    "indices" : 29,
                    "material" : 9
                },
                {
                    "attributes" : {
                        "POSITION" : 30,
                        "NORMAL" : 31
                    },
                    "indices" : 32,
                    "material" : 10
                },
                {
                    "attributes" : {
                        "POSITION" : 33,
                        "NORMAL" : 34
                    },
                    "indices" : 35,
                    "material" : 11
                },
                {
                    "attributes" : {
                        "POSITION" : 36,
                        "NORMAL" : 37
                    },
                    "indices" : 23,
                    "material" : 12
                }
            ]
        }
    ],
    "accessors" : [
        {
            "bufferView" : 0,
            "componentType" : 5126,
            "count" : 177,
            "max" : [
                0.4330454170703888,
                1.4576466083526611,
                0.42309316992759705
            ],
            "min" : [
                -0.32125985622406006,
                -0.06101761385798454,
                -0.41463950276374817
            ],
            "type" : "VEC3"
        },
        {
            "bufferView" : 1,
            "componentType" : 5126,
            "count" : 177,
            "type" : "VEC3"
        },
        {
            "bufferView" : 2,
            "componentType" : 5123,
            "count" : 189,
            "type" : "SCALAR"
        },
        {
            "bufferView" : 3,
            "componentType" : 5126,
            "count" : 30,
            "max" : [
                0.43123680353164673,
                0.10556140542030334,
                0.34204739332199097
            ],
            "min" : [
                -0.31958964467048645,
                0.07360287010669708,
                -0.41463950276374817
            ],
            "type" : "VEC3"
        },
        {
            "bufferView" : 4,
            "componentType" : 5126,
            "count" : 30,
            "type" : "VEC3"
        },
        {
            "bufferView" : 5,
            "componentType" : 5123,
            "count" : 30,
            "type" : "SCALAR"
        },
        {
            "bufferView" : 6,
            "componentType" : 5126,
            "count" : 562,
            "max" : [
                0.15855863690376282,
                0.8476335406303406,
                0.2016771286725998
            ],
            "min" : [
                -0.31382787227630615,
                0.0992683470249176,
                -0.18745321035385132
            ],
            "type" : "VEC3"
        },
        {
            "bufferView" : 7,
            "componentType" : 5126,
            "count" : 562,
            "type" : "VEC3"
        },
        {
            "bufferView" : 8,
            "componentType" : 5123,
            "count" : 588,
            "type" : "SCALAR"
        },
        {
            "bufferView" : 9,
            "componentType" : 5126,
            "count" : 854,
            "max" : [
                0.35805514454841614,
                1.5271248817443848,
                0.19828006625175476
            ],
            "min" : [
                -0.3264460265636444,
                0.12073646485805511,
                -0.1350439339876175
            ],
            "type" : "VEC3"
        },
        {
            "bufferView" : 10,
            "componentType" : 5126,
            "count" : 854,
            "type" : "VEC3"
        },
        {
            "bufferView" : 11,
            "componentType" : 5123,
            "count" : 918,
            "type" : "SCALAR"
        },
        {
            "bufferView" : 12,
            "componentType" : 5126,
            "count" : 339,
            "max" : [
                0.556887686252594,
                1.5437462329864502,
                0.32859349250793457
            ],
            "min" : [
                -0.3207741975784302,
                0.20915809273719788,
                -0.15973003208637238
            ],
            "type" : "VEC3"
        },
        {
            "bufferView" : 13,
            "componentType" : 5126,
            "count" : 339,
            "type" : "VEC3"
        },
        {
            "bufferView" : 14,
            "componentType" : 5123,
            "count" : 345,
            "type" : "SCALAR"
        },
        {
            "bufferView" : 15,
            "componentType" : 5126,
            "count" : 66,
            "max" : [
                0.18835397064685822,
                1.2161080837249756,
                0.44534286856651306
            ],
            "min" : [
                -0.32125985622406006,
                0.7936605215072632,
                -0.14834314584732056
            ],
            "type" : "VEC3"
        },
        {
            "bufferView" : 16,
            "componentType" : 5126,
            "count" : 66,
            "type" : "VEC3"
        },
        {
            "bufferView" : 17,
            "componentType" : 5123,
            "count" : 66,
            "type" : "SCALAR"
        },
        {
            "bufferView" : 18,
            "componentType" : 5126,
            "count" : 643,
            "max" : [
                0.2480379045009613,
                1.7223061323165894,
                0.18742167949676514
            ],
            "min" : [
                -0.28185904026031494,
                0.8157487511634827,
                -0.17157581448554993
            ],
            "type" : "VEC3"
        },
        {
            "bufferView" : 19,
            "componentType" : 5126,
            "count" : 643,
            "type" : "VEC3"
        },
        {
            "bufferView" : 20,
            "componentType" : 5123,
            "count" : 711,
            "type" : "SCALAR"
        },
        {
            "bufferView" : 21,
            "componentType" : 5126,
            "count" : 12,
            "max" : [
                0.03440488874912262,
                1.417254090309143,
                0.06428131461143494
            ],
            "min" : [
                -0.07159678637981415,
                1.2350715398788452,
                -0.01338101178407669
            ],
            "type" : "VEC3"
        },
        {
            "bufferView" : 22,
            "componentType" : 5126,
            "count" : 12,
            "type" : "VEC3"
        },
        {
            "bufferView" : 23,
            "componentType" : 5123,
            "count" : 12,
            "type" : "SCALAR"
        },
        {
            "bufferView" : 24,
            "componentType" : 5126,
            "count" : 6,
            "max" : [
                0.02496943809092045,
                1.4476194381713867,
                0.03976697847247124
            ],
            "min" : [
                -0.06565111130475998,
                1.435977578163147,
                0.03445091471076012
            ],
            "type" : "VEC3"
        },
        {
            "bufferView" : 25,
            "componentType" : 5126,
            "count" : 6,
            "type" : "VEC3"
        },
        {
            "bufferView" : 26,
            "componentType" : 5123,
            "count" : 6,
            "type" : "SCALAR"
        },
        {
            "bufferView" : 27,
            "componentType" : 5126,
            "count" : 48,
            "max" : [
                -0.27049702405929565,
                0.852909505367279,
                0.24614757299423218
            ],
            "min" : [
                -0.32323870062828064,
                0.6796935200691223,
                0.06511800736188889
            ],
            "type" : "VEC3"
        },
        {
            "bufferView" : 28,
            "componentType" : 5126,
            "count" : 48,
            "type" : "VEC3"
        },
        {
            "bufferView" : 29,
            "componentType" : 5123,
            "count" : 54,
            "type" : "SCALAR"
        },
        {
            "bufferView" : 30,
            "componentType" : 5126,
            "count" : 124,
            "max" : [
                0.0657501071691513,
                1.5507867336273193,
                0.05792279914021492
            ],
            "min" : [
                -0.10039719194173813,
                1.4341576099395752,
                -0.12419064342975616
            ],
            "type" : "VEC3"
        },
        {
            "bufferView" : 31,
            "componentType" : 5126,
            "count" : 124,
            "type" : "VEC3"
        },
        {
            "bufferView" : 32,
            "componentType" : 5123,
            "count" : 126,
            "type" : "SCALAR"
        },
        {
            "bufferView" : 33,
            "componentType" : 5126,
            "count" : 135,
            "max" : [
                0.556887686252594,
                1.7245725393295288,
                0.32859349250793457
            ],
            "min" : [
                -0.09999201446771622,
                0.20915809273719788,
                -0.25883758068084717
            ],
            "type" : "VEC3"
        },
        {
            "bufferView" : 34,
            "componentType" : 5126,
            "count" : 135,
            "type" : "VEC3"
        },
        {
            "bufferView" : 35,
            "componentType" : 5123,
            "count" : 135,
            "type" : "SCALAR"
        },
        {
            "bufferView" : 36,
            "componentType" : 5126,
            "count" : 12,
            "max" : [
                -0.0025584029499441385,
                1.375277042388916,
                0.053567226976156235
            ],
            "min" : [
                -0.0420599989593029,
                1.350131630897522,
                0.04434698075056076
            ],
            "type" : "VEC3"
        },
        {
            "bufferView" : 37,
            "componentType" : 5126,
            "count" : 12,
            "type" : "VEC3"
        }
    ],
    "bufferViews" : [
        {
            "buffer" : 0,
            "byteLength" : 2124,
            "byteOffset" : 0
        },
        {
            "buffer" : 0,
            "byteLength" : 2124,
            "byteOffset" : 2124
        },
        {
            "buffer" : 0,
            "byteLength" : 378,
            "byteOffset" : 4248
        },
        {
            "buffer" : 0,
            "byteLength" : 360,
            "byteOffset" : 4628
        },
        {
            "buffer" : 0,
            "byteLength" : 360,
            "byteOffset" : 4988
        },
        {
            "buffer" : 0,
            "byteLength" : 60,
            "byteOffset" : 5348
        },
        {
            "buffer" : 0,
            "byteLength" : 6744,
            "byteOffset" : 5408
        },
        {
            "buffer" : 0,
            "byteLength" : 6744,
            "byteOffset" : 12152
        },
        {
            "buffer" : 0,
            "byteLength" : 1176,
            "byteOffset" : 18896
        },
        {
            "buffer" : 0,
            "byteLength" : 10248,
            "byteOffset" : 20072
        },
        {
            "buffer" : 0,
            "byteLength" : 10248,
            "byteOffset" : 30320
        },
        {
            "buffer" : 0,
            "byteLength" : 1836,
            "byteOffset" : 40568
        },
        {
            "buffer" : 0,
            "byteLength" : 4068,
            "byteOffset" : 42404
        },
        {
            "buffer" : 0,
            "byteLength" : 4068,
            "byteOffset" : 46472
        },
        {
            "buffer" : 0,
            "byteLength" : 690,
            "byteOffset" : 50540
        },
        {
            "buffer" : 0,
            "byteLength" : 792,
            "byteOffset" : 51232
        },
        {
            "buffer" : 0,
            "byteLength" : 792,
            "byteOffset" : 52024
        },
        {
            "buffer" : 0,
            "byteLength" : 132,
            "byteOffset" : 52816
        },
        {
            "buffer" : 0,
            "byteLength" : 7716,
            "byteOffset" : 52948
        },
        {
            "buffer" : 0,
            "byteLength" : 7716,
            "byteOffset" : 60664
        },
        {
            "buffer" : 0,
            "byteLength" : 1422,
            "byteOffset" : 68380
        },
        {
            "buffer" : 0,
            "byteLength" : 144,
            "byteOffset" : 69804
        },
        {
            "buffer" : 0,
            "byteLength" : 144,
            "byteOffset" : 69948
        },
        {
            "buffer" : 0,
            "byteLength" : 24,
            "byteOffset" : 70092
        },
        {
            "buffer" : 0,
            "byteLength" : 72,
            "byteOffset" : 70116
        },
        {
            "buffer" : 0,
            "byteLength" : 72,
            "byteOffset" : 70188
        },
        {
            "buffer" : 0,
            "byteLength" : 12,
            "byteOffset" : 70260
        },
        {
            "buffer" : 0,
            "byteLength" : 576,
            "byteOffset" : 70272
        },
        {
            "buffer" : 0,
            "byteLength" : 576,
            "byteOffset" : 70848
        },
        {
            "buffer" : 0,
            "byteLength" : 108,
            "byteOffset" : 71424
        },
        {
            "buffer" : 0,
            "byteLength" : 1488,
            "byteOffset" : 71532
        },
        {
            "buffer" : 0,
            "byteLength" : 1488,
            "byteOffset" : 73020
        },
        {
            "buffer" : 0,
            "byteLength" : 252,
            "byteOffset" : 74508
        },
        {
            "buffer" : 0,
            "byteLength" : 1620,
            "byteOffset" : 74760
        },
        {
            "buffer" : 0,
            "byteLength" : 1620,
            "byteOffset" : 76380
        },
        {
            "buffer" : 0,
            "byteLength" : 270,
            "byteOffset" : 78000
        },
        {
            "buffer" : 0,
            "byteLength" : 144,
            "byteOffset" : 78272
        },
        {
            "buffer" : 0,
            "byteLength" : 144,
            "byteOffset" : 78416
        }
    ],
    "buffers" : [
        {
            "byteLength" : 78560,
            "uri" : "data:application/octet-stream;base64,"
        }
    ]
}
